<?xml version="1.0" encoding="utf-8"?>
<!-- Generator: Adobe Illustrator 24.2.0, SVG Export Plug-In . SVG Version: 6.00 Build 0)  -->
<svg version="1.1" id="Layer_1" xmlns="http://www.w3.org/2000/svg" xmlns:xlink="http://www.w3.org/1999/xlink" x="0px" y="0px"
	 viewBox="0 0 67.54 25.5" style="enable-background:new 0 0 67.54 25.5;" xml:space="preserve">
<style type="text/css">
	.st0{fill:#1A2523;}
	.st1{fill:#DEE0DE;}
</style>
<g>
	<g>
		<g>
			<rect x="24" y="8.78" class="st0" width="39.35" height="12.61"/>
		</g>
	</g>
	<g>
		<path class="st1" d="M29.63,17.64c-0.27-0.14-0.48-0.36-0.62-0.63c-0.14-0.28-0.21-0.61-0.21-1v-1.37c0-0.39,0.07-0.73,0.21-1
			c0.14-0.28,0.35-0.49,0.62-0.64c0.27-0.15,0.59-0.22,0.97-0.22c0.31,0,0.59,0.07,0.84,0.2s0.45,0.33,0.61,0.59
			c0.16,0.26,0.27,0.57,0.33,0.93h-0.97c-0.04-0.16-0.09-0.3-0.17-0.42c-0.08-0.12-0.17-0.21-0.28-0.27
			c-0.11-0.06-0.23-0.09-0.36-0.09c-0.18,0-0.33,0.04-0.45,0.11c-0.12,0.07-0.22,0.18-0.28,0.32c-0.06,0.14-0.1,0.3-0.1,0.5v1.37
			c0,0.19,0.03,0.36,0.1,0.5c0.07,0.14,0.16,0.24,0.28,0.31c0.12,0.07,0.27,0.11,0.45,0.11c0.14,0,0.26-0.03,0.37-0.09
			s0.2-0.15,0.28-0.27s0.13-0.26,0.16-0.42h0.97c-0.06,0.36-0.18,0.67-0.34,0.93c-0.16,0.26-0.36,0.45-0.61,0.59
			c-0.25,0.13-0.52,0.2-0.84,0.2C30.22,17.86,29.9,17.79,29.63,17.64z"/>
		<path class="st1" d="M33.87,17.63c-0.27-0.15-0.49-0.37-0.64-0.64c-0.15-0.28-0.23-0.6-0.23-0.96v-1.41
			c0-0.37,0.08-0.69,0.23-0.96c0.15-0.28,0.36-0.49,0.64-0.64c0.28-0.15,0.59-0.23,0.95-0.23c0.36,0,0.68,0.08,0.95,0.23
			c0.27,0.15,0.49,0.37,0.64,0.64c0.15,0.28,0.23,0.6,0.23,0.96v1.41c0,0.37-0.08,0.69-0.23,0.96c-0.15,0.28-0.36,0.49-0.64,0.64
			c-0.28,0.15-0.59,0.23-0.95,0.23C34.46,17.86,34.14,17.79,33.87,17.63z M35.27,16.81c0.13-0.07,0.23-0.17,0.3-0.31
			c0.07-0.13,0.1-0.29,0.1-0.46v-1.46c0-0.17-0.04-0.33-0.1-0.46c-0.07-0.13-0.17-0.23-0.3-0.31c-0.13-0.07-0.28-0.11-0.44-0.11
			s-0.32,0.04-0.45,0.11c-0.13,0.07-0.23,0.17-0.3,0.31c-0.07,0.13-0.1,0.29-0.1,0.46v1.46c0,0.17,0.04,0.33,0.1,0.46
			c0.07,0.13,0.17,0.23,0.3,0.31c0.13,0.07,0.28,0.11,0.45,0.11S35.14,16.89,35.27,16.81z"/>
		<path class="st1" d="M37.57,12.83h1.15l1.85,3.81l-0.08,0.09v-3.9h0.9v4.97h-1.15l-1.85-3.76l0.08-0.09v3.84h-0.9V12.83z"/>
		<path class="st1" d="M43.34,17.79c-0.23-0.05-0.44-0.12-0.64-0.21c-0.2-0.09-0.38-0.2-0.54-0.33l0.44-0.77
			c0.19,0.16,0.41,0.28,0.66,0.36c0.25,0.09,0.51,0.13,0.77,0.13c0.31,0,0.54-0.05,0.71-0.16c0.17-0.1,0.25-0.25,0.25-0.44v0
			c0-0.13-0.04-0.24-0.11-0.31c-0.08-0.08-0.17-0.13-0.29-0.17c-0.12-0.04-0.28-0.07-0.47-0.1c-0.01,0-0.01,0-0.02,0
			c-0.01,0-0.01,0-0.02,0l-0.08-0.01c-0.33-0.05-0.61-0.12-0.83-0.2c-0.22-0.08-0.41-0.22-0.56-0.41s-0.23-0.48-0.23-0.84v0
			c0-0.32,0.07-0.6,0.22-0.83s0.35-0.4,0.63-0.52c0.27-0.12,0.6-0.18,0.99-0.18c0.18,0,0.36,0.02,0.55,0.06
			c0.19,0.04,0.37,0.1,0.55,0.18c0.18,0.08,0.35,0.17,0.51,0.28l-0.4,0.79c-0.19-0.13-0.39-0.23-0.6-0.31s-0.41-0.11-0.6-0.11
			c-0.29,0-0.51,0.05-0.67,0.14s-0.24,0.23-0.24,0.4v0c0,0.14,0.04,0.26,0.12,0.34s0.18,0.14,0.3,0.18
			c0.12,0.04,0.29,0.08,0.51,0.12c0.01,0,0.02,0,0.03,0c0.01,0,0.02,0,0.03,0c0.01,0,0.03,0.01,0.04,0.01
			c0.01,0,0.03,0.01,0.04,0.01c0.32,0.06,0.58,0.14,0.79,0.22c0.21,0.09,0.39,0.23,0.53,0.42c0.14,0.2,0.21,0.46,0.21,0.8v0.01
			c0,0.32-0.07,0.59-0.22,0.82c-0.15,0.23-0.36,0.4-0.65,0.52c-0.28,0.12-0.63,0.18-1.03,0.18C43.8,17.86,43.57,17.84,43.34,17.79z"
			/>
		<path class="st1" d="M48.22,12.83h0.6l1.9,4.98h-1.01l-1.19-3.4l-1.19,3.4h-1.01L48.22,12.83z M47.23,16.11h2.62v0.9h-2.62V16.11z
			"/>
		<path class="st1" d="M50.51,12.83h3.65v0.9h-3.65V12.83z M51.87,13.24h0.94v4.57h-0.94V13.24z"/>
		<path class="st1" d="M55.83,12.83h0.6l1.9,4.98h-1.01l-1.19-3.4l-1.19,3.4h-1.01L55.83,12.83z M54.84,16.11h2.62v0.9h-2.62V16.11z
			"/>
	</g>
	<g>
		<g>
			<path class="st0" d="M8.29,21.45c-1.31,0-2.62,0-3.92,0c-0.08-0.18-0.23-0.36-0.23-0.55c-0.01-3.61-0.01-7.22,0-10.83
				c0-0.2,0.07-0.43,0.19-0.58C5.9,7.46,7.5,5.45,9.09,3.44c0.11,0,0.21,0,0.32,0c1.64,2.09,3.29,4.18,4.95,6.29
				c-0.76,0.67-1.47,1.37-2.25,1.99c-0.52,0.42-0.7,0.88-0.7,1.54c0.03,2.73,0,5.46,0,8.19c-0.4,0-0.8,0-1.2,0
				c-0.08-0.18-0.21-0.37-0.23-0.56c-0.04-0.38-0.01-0.77-0.01-1.15c0-0.4,0-0.81,0-1.21c-0.52,0-0.96,0-1.46,0
				c0,0.79,0.02,1.55-0.01,2.32C8.5,21.05,8.37,21.25,8.29,21.45z M5.6,14.14c0,0.5,0,0.96,0,1.43c0.49,0,0.96,0,1.44,0
				c0-0.49,0-0.95,0-1.43C6.55,14.14,6.09,14.14,5.6,14.14z M5.59,11.17c0.51,0,0.98,0,1.44,0c0-0.49,0-0.94,0-1.4
				c-0.5,0-0.97,0-1.44,0C5.59,10.25,5.59,10.7,5.59,11.17z M9.94,15.58c0-0.5,0-0.97,0-1.45c-0.48,0-0.93,0-1.4,0
				c0,0.49,0,0.96,0,1.45C9.02,15.58,9.47,15.58,9.94,15.58z M9.96,9.76c-0.5,0-0.95,0-1.42,0c0,0.49,0,0.94,0,1.41
				c0.49,0,0.95,0,1.42,0C9.96,10.69,9.96,10.24,9.96,9.76z"/>
		</g>
		<g>
			<path class="st0" d="M13.1,21.45c-0.06-0.18-0.17-0.36-0.17-0.55c-0.01-2.12-0.02-4.24,0.01-6.35c0-0.22,0.13-0.51,0.29-0.64
				c0.99-0.83,2-1.63,3-2.45c0.22-0.18,0.42-0.2,0.64-0.02c1.03,0.83,2.06,1.64,3.08,2.48c0.15,0.12,0.26,0.38,0.26,0.58
				c0.02,2.14,0.02,4.29,0,6.43c0,0.17-0.15,0.34-0.23,0.51c-0.83,0-1.65,0-2.48,0c-0.06-0.18-0.16-0.36-0.18-0.54
				c-0.03-0.36-0.01-0.72-0.01-1.08c0-0.43,0-0.87,0-1.3c-0.53,0-0.99,0-1.49,0c0,0.81,0.02,1.59-0.01,2.38
				c-0.01,0.18-0.15,0.36-0.24,0.54C14.75,21.45,13.92,21.45,13.1,21.45z M18.75,15.62c-0.49,0-0.96,0-1.43,0c0,0.49,0,0.95,0,1.41
				c0.49,0,0.95,0,1.43,0C18.75,16.55,18.75,16.09,18.75,15.62z M14.39,17.03c0.49,0,0.94,0,1.42,0c0-0.48,0-0.94,0-1.41
				c-0.48,0-0.94,0-1.42,0C14.39,16.09,14.39,16.54,14.39,17.03z"/>
		</g>
	</g>
</g>
</svg>
