<?xml version="1.0" encoding="utf-8"?>
<!-- Generator: Adobe Illustrator 24.2.0, SVG Export Plug-In . SVG Version: 6.00 Build 0)  -->
<svg version="1.1" id="Layer_1" xmlns="http://www.w3.org/2000/svg" xmlns:xlink="http://www.w3.org/1999/xlink" x="0px" y="0px"
	 viewBox="0 0 71.66 25.5" style="enable-background:new 0 0 71.66 25.5;" xml:space="preserve">
<style type="text/css">
	.st0{fill:#1A2523;}
	.st1{fill:#DEE0DE;}
</style>
<g>
	<g>
		<g>
			<rect x="24" y="8.78" class="st0" width="43.53" height="12.61"/>
		</g>
	</g>
	<g>
		<path class="st1" d="M32.04,12.83h1.24v4.98h-0.85v-3.87l0.04,0.22l-0.95,3.09h-0.83l-0.95-3.02l0.03-0.29v3.87h-0.85v-4.98h1.24
			l0.95,3.36L32.04,12.83z"/>
		<path class="st1" d="M34.37,12.83h0.94v4.98h-0.94V12.83z M34.71,12.83h3v0.9h-3V12.83z M34.71,14.88h2.62v0.9h-2.62V14.88z
			 M34.71,16.9h3v0.9h-3V16.9z"/>
		<path class="st1" d="M39.29,17.64c-0.27-0.14-0.47-0.36-0.62-0.63s-0.21-0.61-0.21-1v-1.37c0-0.39,0.07-0.73,0.21-1
			s0.35-0.49,0.62-0.64c0.27-0.15,0.59-0.22,0.97-0.22c0.31,0,0.59,0.07,0.84,0.2c0.25,0.13,0.45,0.33,0.61,0.59
			s0.27,0.57,0.33,0.93h-0.97c-0.04-0.16-0.09-0.3-0.17-0.42c-0.08-0.12-0.17-0.21-0.28-0.27c-0.11-0.06-0.23-0.09-0.36-0.09
			c-0.18,0-0.33,0.04-0.45,0.11c-0.12,0.07-0.22,0.18-0.28,0.32c-0.06,0.14-0.1,0.3-0.1,0.5V16c0,0.19,0.03,0.36,0.1,0.5
			c0.07,0.14,0.16,0.24,0.28,0.31c0.12,0.07,0.27,0.11,0.45,0.11c0.14,0,0.26-0.03,0.37-0.09s0.2-0.15,0.28-0.27
			s0.13-0.26,0.16-0.42h0.97c-0.06,0.36-0.18,0.67-0.34,0.93c-0.16,0.26-0.36,0.45-0.61,0.59c-0.25,0.13-0.52,0.2-0.84,0.2
			C39.88,17.86,39.56,17.79,39.29,17.64z"/>
		<path class="st1" d="M44.12,12.83h0.6l1.9,4.98h-1.01l-1.19-3.4l-1.19,3.4h-1.01L44.12,12.83z M43.13,16.11h2.62v0.9h-2.62V16.11z
			"/>
		<path class="st1" d="M47.24,12.83h0.94v4.98h-0.94V12.83z M47.67,14.97h1.59c0.11,0,0.21-0.03,0.3-0.08
			c0.09-0.05,0.15-0.12,0.2-0.22s0.07-0.2,0.07-0.32c0-0.12-0.02-0.23-0.07-0.33s-0.11-0.17-0.2-0.22c-0.08-0.05-0.19-0.08-0.3-0.08
			h-1.59v-0.9h1.57c0.31,0,0.58,0.06,0.82,0.19s0.42,0.31,0.55,0.54c0.13,0.23,0.2,0.5,0.2,0.8c0,0.3-0.07,0.57-0.2,0.8
			c-0.13,0.23-0.31,0.41-0.55,0.53c-0.24,0.13-0.51,0.19-0.82,0.19h-1.57V14.97z"/>
		<path class="st1" d="M52.72,12.83h0.6l1.9,4.98h-1.01l-1.19-3.4l-1.19,3.4h-1.01L52.72,12.83z M51.73,16.11h2.62v0.9h-2.62V16.11z
			"/>
		<path class="st1" d="M56.29,17.64c-0.27-0.14-0.47-0.36-0.62-0.63s-0.21-0.61-0.21-1v-1.37c0-0.39,0.07-0.73,0.21-1
			s0.35-0.49,0.62-0.64c0.27-0.15,0.59-0.22,0.97-0.22c0.31,0,0.59,0.07,0.84,0.2c0.25,0.13,0.45,0.33,0.61,0.59
			s0.27,0.57,0.33,0.93h-0.97c-0.04-0.16-0.09-0.3-0.17-0.42c-0.08-0.12-0.17-0.21-0.28-0.27c-0.11-0.06-0.23-0.09-0.36-0.09
			c-0.18,0-0.33,0.04-0.45,0.11c-0.12,0.07-0.22,0.18-0.28,0.32c-0.06,0.14-0.1,0.3-0.1,0.5V16c0,0.19,0.03,0.36,0.1,0.5
			c0.07,0.14,0.16,0.24,0.28,0.31c0.12,0.07,0.27,0.11,0.45,0.11c0.14,0,0.26-0.03,0.37-0.09s0.2-0.15,0.28-0.27
			s0.13-0.26,0.16-0.42h0.97c-0.06,0.36-0.18,0.67-0.34,0.93c-0.16,0.26-0.36,0.45-0.61,0.59c-0.25,0.13-0.52,0.2-0.84,0.2
			C56.88,17.86,56.56,17.79,56.29,17.64z"/>
		<path class="st1" d="M61.12,12.83h0.6l1.9,4.98h-1.01l-1.19-3.4l-1.19,3.4h-1.01L61.12,12.83z M60.13,16.11h2.62v0.9h-2.62V16.11z
			"/>
	</g>
	<g>
		<g>
			<path class="st0" d="M8.29,21.45c-1.31,0-2.62,0-3.92,0c-0.08-0.18-0.23-0.36-0.23-0.55c-0.01-3.61-0.01-7.22,0-10.83
				c0-0.2,0.07-0.43,0.19-0.58C5.9,7.46,7.5,5.45,9.09,3.44c0.11,0,0.21,0,0.32,0c1.64,2.09,3.29,4.18,4.95,6.29
				c-0.76,0.67-1.47,1.37-2.25,1.99c-0.52,0.42-0.7,0.88-0.7,1.54c0.03,2.73,0,5.46,0,8.19c-0.4,0-0.8,0-1.2,0
				c-0.08-0.18-0.21-0.37-0.23-0.56c-0.04-0.38-0.01-0.77-0.01-1.15c0-0.4,0-0.81,0-1.21c-0.52,0-0.96,0-1.46,0
				c0,0.79,0.02,1.55-0.01,2.32C8.5,21.05,8.37,21.25,8.29,21.45z M5.6,14.14c0,0.5,0,0.96,0,1.43c0.49,0,0.96,0,1.44,0
				c0-0.49,0-0.95,0-1.43C6.55,14.14,6.09,14.14,5.6,14.14z M5.59,11.17c0.51,0,0.98,0,1.44,0c0-0.49,0-0.94,0-1.4
				c-0.5,0-0.97,0-1.44,0C5.59,10.25,5.59,10.7,5.59,11.17z M9.94,15.58c0-0.5,0-0.97,0-1.45c-0.48,0-0.93,0-1.4,0
				c0,0.49,0,0.96,0,1.45C9.02,15.58,9.47,15.58,9.94,15.58z M9.96,9.76c-0.5,0-0.95,0-1.42,0c0,0.49,0,0.94,0,1.41
				c0.49,0,0.95,0,1.42,0C9.96,10.69,9.96,10.24,9.96,9.76z"/>
		</g>
		<g>
			<path class="st0" d="M13.1,21.45c-0.06-0.18-0.17-0.36-0.17-0.55c-0.01-2.12-0.02-4.24,0.01-6.35c0-0.22,0.13-0.51,0.29-0.64
				c0.99-0.83,2-1.63,3-2.45c0.22-0.18,0.42-0.2,0.64-0.02c1.03,0.83,2.06,1.64,3.08,2.48c0.15,0.12,0.26,0.38,0.26,0.58
				c0.02,2.14,0.02,4.29,0,6.43c0,0.17-0.15,0.34-0.23,0.51c-0.83,0-1.65,0-2.48,0c-0.06-0.18-0.16-0.36-0.18-0.54
				c-0.03-0.36-0.01-0.72-0.01-1.08c0-0.43,0-0.87,0-1.3c-0.53,0-0.99,0-1.49,0c0,0.81,0.02,1.59-0.01,2.38
				c-0.01,0.18-0.15,0.36-0.24,0.54C14.75,21.45,13.92,21.45,13.1,21.45z M18.75,15.62c-0.49,0-0.96,0-1.43,0c0,0.49,0,0.95,0,1.41
				c0.49,0,0.95,0,1.43,0C18.75,16.55,18.75,16.09,18.75,15.62z M14.39,17.03c0.49,0,0.94,0,1.42,0c0-0.48,0-0.94,0-1.41
				c-0.48,0-0.94,0-1.42,0C14.39,16.09,14.39,16.54,14.39,17.03z"/>
		</g>
	</g>
</g>
</svg>
