<?xml version="1.0" encoding="utf-8"?>
<!-- Generator: Adobe Illustrator 24.2.0, SVG Export Plug-In . SVG Version: 6.00 Build 0)  -->
<svg version="1.1" id="Layer_1" xmlns="http://www.w3.org/2000/svg" xmlns:xlink="http://www.w3.org/1999/xlink" x="0px" y="0px"
	 viewBox="0 0 59.66 25.5" style="enable-background:new 0 0 59.66 25.5;" xml:space="preserve">
<style type="text/css">
	.st0{fill:#1A2523;}
	.st1{fill:#DEE0DE;}
</style>
<g>
	<g>
		<g>
			<rect x="24" y="8.78" class="st0" width="31.32" height="12.61"/>
		</g>
	</g>
	<g>
		<path class="st1" d="M28.91,12.83h0.94v4.98h-0.94V12.83z M29.34,14.97h1.59c0.11,0,0.21-0.03,0.3-0.08
			c0.09-0.05,0.15-0.12,0.2-0.22s0.07-0.2,0.07-0.32c0-0.12-0.02-0.23-0.07-0.33s-0.11-0.17-0.2-0.22c-0.09-0.05-0.19-0.08-0.3-0.08
			h-1.59v-0.9h1.57c0.31,0,0.58,0.06,0.82,0.19s0.42,0.31,0.55,0.54s0.2,0.5,0.2,0.8c0,0.3-0.07,0.57-0.2,0.8s-0.31,0.41-0.55,0.53
			c-0.24,0.13-0.51,0.19-0.82,0.19h-1.57V14.97z"/>
		<path class="st1" d="M33.97,17.63c-0.27-0.15-0.49-0.37-0.64-0.64c-0.15-0.28-0.23-0.6-0.23-0.96v-1.41
			c0-0.37,0.08-0.69,0.23-0.96c0.15-0.28,0.36-0.49,0.64-0.64c0.28-0.15,0.59-0.23,0.95-0.23c0.36,0,0.68,0.08,0.95,0.23
			c0.28,0.15,0.49,0.37,0.64,0.64c0.15,0.28,0.23,0.6,0.23,0.96v1.41c0,0.37-0.08,0.69-0.23,0.96c-0.15,0.28-0.36,0.49-0.64,0.64
			c-0.27,0.15-0.59,0.23-0.95,0.23C34.56,17.86,34.24,17.79,33.97,17.63z M35.37,16.81c0.13-0.07,0.23-0.17,0.3-0.31
			c0.07-0.13,0.1-0.29,0.1-0.46v-1.46c0-0.17-0.04-0.33-0.1-0.46s-0.17-0.23-0.3-0.31c-0.13-0.07-0.28-0.11-0.45-0.11
			s-0.32,0.04-0.45,0.11c-0.13,0.07-0.23,0.17-0.3,0.31c-0.07,0.13-0.1,0.29-0.1,0.46v1.46c0,0.17,0.03,0.33,0.1,0.46
			c0.07,0.13,0.17,0.23,0.3,0.31c0.13,0.07,0.28,0.11,0.45,0.11S35.24,16.89,35.37,16.81z"/>
		<path class="st1" d="M37.66,12.83h1.15l1.85,3.81l-0.08,0.09v-3.9h0.9v4.98h-1.15l-1.85-3.76l0.08-0.09v3.85h-0.9V12.83z"/>
		<path class="st1" d="M46.11,15.03V16c0,0.37-0.08,0.7-0.22,0.98s-0.36,0.5-0.63,0.65c-0.27,0.15-0.59,0.23-0.95,0.23
			c-0.36,0-0.68-0.07-0.96-0.22s-0.49-0.35-0.64-0.61c-0.15-0.27-0.23-0.57-0.23-0.92v-1.47c0-0.37,0.07-0.7,0.22-0.98
			c0.15-0.28,0.36-0.5,0.63-0.65c0.27-0.15,0.59-0.23,0.95-0.23c0.3,0,0.57,0.06,0.82,0.18s0.46,0.29,0.63,0.52s0.28,0.48,0.34,0.78
			h-1.01c-0.03-0.11-0.09-0.2-0.17-0.27c-0.08-0.08-0.17-0.13-0.28-0.17s-0.22-0.06-0.33-0.06c-0.17,0-0.31,0.04-0.44,0.11
			s-0.22,0.18-0.29,0.31c-0.07,0.14-0.1,0.29-0.1,0.47v1.47c0,0.16,0.04,0.29,0.11,0.41c0.07,0.12,0.17,0.21,0.3,0.27
			c0.13,0.06,0.28,0.1,0.45,0.1c0.17,0,0.32-0.04,0.44-0.1s0.22-0.17,0.29-0.3c0.07-0.13,0.1-0.29,0.1-0.47v-0.08h-0.75v-0.9H46.11z
			"/>
		<path class="st1" d="M47.73,17.63c-0.27-0.15-0.49-0.37-0.64-0.64c-0.15-0.28-0.23-0.6-0.23-0.96v-1.41
			c0-0.37,0.08-0.69,0.23-0.96c0.15-0.28,0.36-0.49,0.64-0.64c0.28-0.15,0.59-0.23,0.95-0.23c0.36,0,0.68,0.08,0.95,0.23
			c0.28,0.15,0.49,0.37,0.64,0.64c0.15,0.28,0.23,0.6,0.23,0.96v1.41c0,0.37-0.08,0.69-0.23,0.96c-0.15,0.28-0.36,0.49-0.64,0.64
			c-0.27,0.15-0.59,0.23-0.95,0.23C48.33,17.86,48.01,17.79,47.73,17.63z M49.13,16.81c0.13-0.07,0.23-0.17,0.3-0.31
			c0.07-0.13,0.1-0.29,0.1-0.46v-1.46c0-0.17-0.04-0.33-0.1-0.46s-0.17-0.23-0.3-0.31c-0.13-0.07-0.28-0.11-0.45-0.11
			s-0.32,0.04-0.45,0.11c-0.13,0.07-0.23,0.17-0.3,0.31c-0.07,0.13-0.1,0.29-0.1,0.46v1.46c0,0.17,0.03,0.33,0.1,0.46
			c0.07,0.13,0.17,0.23,0.3,0.31c0.13,0.07,0.28,0.11,0.45,0.11S49,16.89,49.13,16.81z"/>
	</g>
	<g>
		<g>
			<path class="st0" d="M8.29,21.45c-1.31,0-2.62,0-3.92,0c-0.08-0.18-0.23-0.36-0.23-0.55c-0.01-3.61-0.01-7.22,0-10.83
				c0-0.2,0.07-0.43,0.19-0.58C5.9,7.46,7.5,5.45,9.09,3.44c0.11,0,0.21,0,0.32,0c1.64,2.09,3.29,4.18,4.95,6.29
				c-0.76,0.67-1.47,1.37-2.25,1.99c-0.52,0.42-0.7,0.88-0.7,1.54c0.03,2.73,0,5.46,0,8.19c-0.4,0-0.8,0-1.2,0
				c-0.08-0.18-0.21-0.37-0.23-0.56c-0.04-0.38-0.01-0.77-0.01-1.15c0-0.4,0-0.81,0-1.21c-0.52,0-0.96,0-1.46,0
				c0,0.79,0.02,1.55-0.01,2.32C8.5,21.05,8.37,21.25,8.29,21.45z M5.6,14.14c0,0.5,0,0.96,0,1.43c0.49,0,0.96,0,1.44,0
				c0-0.49,0-0.95,0-1.43C6.55,14.14,6.09,14.14,5.6,14.14z M5.59,11.17c0.51,0,0.98,0,1.44,0c0-0.49,0-0.94,0-1.4
				c-0.5,0-0.97,0-1.44,0C5.59,10.25,5.59,10.7,5.59,11.17z M9.94,15.58c0-0.5,0-0.97,0-1.45c-0.48,0-0.93,0-1.4,0
				c0,0.49,0,0.96,0,1.45C9.02,15.58,9.47,15.58,9.94,15.58z M9.96,9.76c-0.5,0-0.95,0-1.42,0c0,0.49,0,0.94,0,1.41
				c0.49,0,0.95,0,1.42,0C9.96,10.69,9.96,10.24,9.96,9.76z"/>
		</g>
		<g>
			<path class="st0" d="M13.1,21.45c-0.06-0.18-0.17-0.36-0.17-0.55c-0.01-2.12-0.02-4.24,0.01-6.35c0-0.22,0.13-0.51,0.29-0.64
				c0.99-0.83,2-1.63,3-2.45c0.22-0.18,0.42-0.2,0.64-0.02c1.03,0.83,2.06,1.64,3.08,2.48c0.15,0.12,0.26,0.38,0.26,0.58
				c0.02,2.14,0.02,4.29,0,6.43c0,0.17-0.15,0.34-0.23,0.51c-0.83,0-1.65,0-2.48,0c-0.06-0.18-0.16-0.36-0.18-0.54
				c-0.03-0.36-0.01-0.72-0.01-1.08c0-0.43,0-0.87,0-1.3c-0.53,0-0.99,0-1.49,0c0,0.81,0.02,1.59-0.01,2.38
				c-0.01,0.18-0.15,0.36-0.24,0.54C14.75,21.45,13.92,21.45,13.1,21.45z M18.75,15.62c-0.49,0-0.96,0-1.43,0c0,0.49,0,0.95,0,1.41
				c0.49,0,0.95,0,1.43,0C18.75,16.55,18.75,16.09,18.75,15.62z M14.39,17.03c0.49,0,0.94,0,1.42,0c0-0.48,0-0.94,0-1.41
				c-0.48,0-0.94,0-1.42,0C14.39,16.09,14.39,16.54,14.39,17.03z"/>
		</g>
	</g>
</g>
</svg>
