<?xml version="1.0" encoding="utf-8"?>
<!-- Generator: Adobe Illustrator 24.2.0, SVG Export Plug-In . SVG Version: 6.00 Build 0)  -->
<svg version="1.1" id="Layer_1" xmlns="http://www.w3.org/2000/svg" xmlns:xlink="http://www.w3.org/1999/xlink" x="0px" y="0px"
	 viewBox="0 0 65.03 25.5" style="enable-background:new 0 0 65.03 25.5;" xml:space="preserve">
<style type="text/css">
	.st0{fill:#1A2523;}
	.st1{fill:#DEE0DE;}
</style>
<g>
	<g>
		<g>
			<rect x="19.52" y="6.99" class="st0" width="39.38" height="12.61"/>
		</g>
	</g>
	<g>
		<path class="st0" d="M11.11,5.2c-0.33-0.07-0.67-0.1-1-0.09c-0.33,0-0.66,0.03-1,0.09c-2.68,0.53-4.49,3.19-3.87,5.82
			c0.79,3.38,2.24,6.51,4,9.5c0.1,0.16,0.22,0.31,0.34,0.45c0.19,0.2,0.36,0.3,0.53,0.3c0.17,0.01,0.34-0.09,0.53-0.3
			c0.13-0.14,0.25-0.29,0.34-0.45c1.75-2.99,3.2-6.11,4-9.5C15.6,8.39,13.78,5.73,11.11,5.2z M10.13,17.59c-0.01,0-0.01,0-0.02,0
			c-0.01,0-0.01,0-0.02,0c-0.59,0-1.07-0.48-1.06-1.06c0.01-0.56,0.49-1.03,1.05-1.04c0.01,0,0.02,0,0.03,0c0.01,0,0.02,0,0.03,0
			c0.56,0.01,1.04,0.49,1.05,1.04C11.19,17.11,10.72,17.59,10.13,17.59z M12.31,10.64c-0.27,1.32-0.88,2.51-1.71,3.57
			c-0.2,0.25-0.34,0.37-0.49,0.37c-0.15,0.01-0.3-0.11-0.49-0.37c-0.82-1.07-1.43-2.25-1.71-3.57C7.61,9.2,8.68,7.87,10.1,7.88
			c0,0,0,0,0.01,0c0,0,0,0,0.01,0C11.53,7.87,12.6,9.2,12.31,10.64z"/>
	</g>
	<g>
		<path class="st1" d="M24.42,11.04h0.94v4.98h-0.94V11.04z M24.83,15.11h1.59c0.21,0,0.38-0.05,0.5-0.16
			c0.12-0.1,0.18-0.25,0.18-0.44v-0.01c0-0.13-0.03-0.23-0.08-0.32c-0.05-0.09-0.13-0.16-0.23-0.2s-0.22-0.07-0.36-0.07h-1.59v-0.9
			h1.59c0.19,0,0.34-0.05,0.45-0.15c0.11-0.1,0.16-0.24,0.16-0.42c0-0.16-0.05-0.28-0.16-0.37s-0.26-0.13-0.45-0.13h-1.59v-0.9h1.62
			c0.32,0,0.6,0.05,0.83,0.16c0.23,0.11,0.4,0.26,0.52,0.46c0.12,0.2,0.18,0.44,0.18,0.73c0,0.19-0.04,0.37-0.12,0.52
			c-0.08,0.15-0.19,0.27-0.33,0.37c-0.15,0.1-0.32,0.16-0.53,0.2c0.22,0.03,0.41,0.1,0.56,0.2c0.16,0.1,0.28,0.24,0.36,0.41
			c0.08,0.17,0.12,0.36,0.12,0.58v0.01c0,0.29-0.06,0.53-0.18,0.73c-0.12,0.2-0.29,0.36-0.52,0.46s-0.5,0.16-0.83,0.16h-1.68V15.11z
			"/>
		<path class="st1" d="M29.61,15.85c-0.27-0.14-0.48-0.36-0.62-0.63s-0.21-0.61-0.21-1v-3.18h0.94v3.2c0,0.29,0.08,0.51,0.23,0.66
			c0.15,0.16,0.37,0.24,0.65,0.24c0.28,0,0.5-0.08,0.65-0.24c0.15-0.16,0.23-0.38,0.23-0.66v-3.2h0.94v3.18c0,0.39-0.07,0.72-0.21,1
			s-0.35,0.49-0.62,0.63c-0.27,0.14-0.6,0.22-0.98,0.22C30.21,16.07,29.88,16,29.61,15.85z"/>
		<path class="st1" d="M34.17,16c-0.23-0.05-0.44-0.12-0.64-0.21c-0.2-0.09-0.38-0.2-0.54-0.33l0.44-0.77
			c0.19,0.16,0.41,0.28,0.66,0.36c0.25,0.09,0.51,0.13,0.77,0.13c0.31,0,0.54-0.05,0.71-0.16c0.17-0.1,0.25-0.25,0.25-0.44v0
			c0-0.13-0.04-0.24-0.11-0.31c-0.08-0.08-0.17-0.13-0.29-0.17c-0.12-0.04-0.28-0.07-0.47-0.1c-0.01,0-0.01,0-0.02,0s-0.01,0-0.02,0
			l-0.08-0.01c-0.33-0.05-0.61-0.12-0.83-0.2c-0.22-0.08-0.41-0.22-0.56-0.41c-0.15-0.2-0.23-0.48-0.23-0.84v0
			c0-0.32,0.07-0.6,0.22-0.83c0.14-0.23,0.35-0.4,0.63-0.52s0.6-0.18,0.99-0.18c0.18,0,0.36,0.02,0.55,0.06
			c0.19,0.04,0.37,0.1,0.55,0.18c0.18,0.08,0.35,0.17,0.51,0.28l-0.4,0.79c-0.19-0.13-0.39-0.23-0.6-0.31s-0.41-0.11-0.6-0.11
			c-0.29,0-0.51,0.05-0.67,0.14s-0.24,0.23-0.24,0.4v0c0,0.14,0.04,0.26,0.12,0.34c0.08,0.08,0.18,0.14,0.3,0.18
			c0.12,0.04,0.29,0.08,0.51,0.12c0.01,0,0.02,0,0.03,0s0.02,0,0.03,0c0.01,0,0.03,0.01,0.04,0.01c0.01,0,0.03,0.01,0.04,0.01
			c0.31,0.06,0.58,0.14,0.79,0.22s0.39,0.23,0.53,0.42c0.14,0.2,0.21,0.46,0.21,0.8v0.01c0,0.32-0.07,0.59-0.22,0.82
			c-0.15,0.23-0.36,0.4-0.65,0.52c-0.28,0.12-0.63,0.18-1.03,0.18C34.63,16.07,34.4,16.05,34.17,16z"/>
		<path class="st1" d="M40.37,16c-0.23-0.05-0.44-0.12-0.64-0.21c-0.2-0.09-0.38-0.2-0.54-0.33l0.44-0.77
			c0.19,0.16,0.41,0.28,0.66,0.36c0.25,0.09,0.51,0.13,0.77,0.13c0.31,0,0.54-0.05,0.71-0.16c0.17-0.1,0.25-0.25,0.25-0.44v0
			c0-0.13-0.04-0.24-0.11-0.31c-0.08-0.08-0.17-0.13-0.29-0.17c-0.12-0.04-0.28-0.07-0.47-0.1c-0.01,0-0.01,0-0.02,0s-0.01,0-0.02,0
			l-0.08-0.01c-0.33-0.05-0.61-0.12-0.83-0.2c-0.22-0.08-0.41-0.22-0.56-0.41c-0.15-0.2-0.23-0.48-0.23-0.84v0
			c0-0.32,0.07-0.6,0.22-0.83c0.14-0.23,0.35-0.4,0.63-0.52s0.6-0.18,0.99-0.18c0.18,0,0.36,0.02,0.55,0.06
			c0.19,0.04,0.37,0.1,0.55,0.18c0.18,0.08,0.35,0.17,0.51,0.28l-0.4,0.79c-0.19-0.13-0.39-0.23-0.6-0.31s-0.41-0.11-0.6-0.11
			c-0.29,0-0.51,0.05-0.67,0.14s-0.24,0.23-0.24,0.4v0c0,0.14,0.04,0.26,0.12,0.34c0.08,0.08,0.18,0.14,0.3,0.18
			c0.12,0.04,0.29,0.08,0.51,0.12c0.01,0,0.02,0,0.03,0s0.02,0,0.03,0c0.01,0,0.03,0.01,0.04,0.01c0.01,0,0.03,0.01,0.04,0.01
			c0.31,0.06,0.58,0.14,0.79,0.22s0.39,0.23,0.53,0.42c0.14,0.2,0.21,0.46,0.21,0.8v0.01c0,0.32-0.07,0.59-0.22,0.82
			c-0.15,0.23-0.36,0.4-0.65,0.52c-0.28,0.12-0.63,0.18-1.03,0.18C40.83,16.07,40.6,16.05,40.37,16z"/>
		<path class="st1" d="M43.14,11.04h3.65v0.9h-3.65V11.04z M44.49,11.45h0.94v4.57h-0.94V11.45z"/>
		<path class="st1" d="M47.96,15.84c-0.27-0.15-0.49-0.37-0.64-0.64c-0.15-0.28-0.23-0.6-0.23-0.96v-1.41
			c0-0.37,0.08-0.69,0.23-0.96c0.15-0.28,0.36-0.49,0.64-0.64c0.28-0.15,0.59-0.23,0.95-0.23c0.36,0,0.68,0.08,0.95,0.23
			c0.28,0.15,0.49,0.37,0.64,0.64c0.15,0.28,0.23,0.6,0.23,0.96v1.41c0,0.37-0.08,0.69-0.23,0.96c-0.15,0.28-0.36,0.49-0.64,0.64
			c-0.27,0.15-0.59,0.23-0.95,0.23C48.55,16.07,48.24,15.99,47.96,15.84z M49.36,15.02c0.13-0.07,0.23-0.17,0.3-0.31
			c0.07-0.13,0.1-0.29,0.1-0.46V12.8c0-0.17-0.04-0.33-0.1-0.46s-0.17-0.23-0.3-0.31c-0.13-0.07-0.28-0.11-0.45-0.11
			s-0.32,0.04-0.45,0.11c-0.13,0.07-0.23,0.17-0.3,0.31c-0.07,0.13-0.1,0.29-0.1,0.46v1.46c0,0.17,0.03,0.33,0.1,0.46
			c0.07,0.13,0.17,0.23,0.3,0.31c0.13,0.07,0.28,0.11,0.45,0.11S49.23,15.09,49.36,15.02z"/>
		<path class="st1" d="M51.66,11.04h0.94v4.98h-0.94V11.04z M52.09,13.18h1.59c0.11,0,0.21-0.03,0.3-0.08
			c0.09-0.05,0.15-0.12,0.2-0.22s0.07-0.2,0.07-0.32c0-0.12-0.02-0.23-0.07-0.33s-0.11-0.17-0.2-0.22c-0.09-0.05-0.19-0.08-0.3-0.08
			h-1.59v-0.9h1.57c0.31,0,0.58,0.06,0.82,0.19s0.42,0.31,0.55,0.54s0.2,0.5,0.2,0.8c0,0.3-0.07,0.57-0.2,0.8s-0.31,0.41-0.55,0.53
			c-0.24,0.13-0.51,0.19-0.82,0.19h-1.57V13.18z"/>
	</g>
</g>
</svg>
