<?xml version="1.0" encoding="utf-8"?>
<!-- Generator: Adobe Illustrator 24.2.0, SVG Export Plug-In . SVG Version: 6.00 Build 0)  -->
<svg version="1.1" id="Layer_1" xmlns="http://www.w3.org/2000/svg" xmlns:xlink="http://www.w3.org/1999/xlink" x="0px" y="0px"
	 viewBox="0 0 77.56 25.5" style="enable-background:new 0 0 77.56 25.5;" xml:space="preserve">
<style type="text/css">
	.st0{fill:#1A2523;}
	.st1{fill:#DEE0DE;}
</style>
<g>
	<g>
		<g>
			<rect x="19.53" y="6.99" class="st0" width="51.82" height="12.61"/>
		</g>
	</g>
	<g>
		<path class="st0" d="M11.11,5.2c-0.33-0.07-0.67-0.1-1-0.09c-0.33,0-0.66,0.03-1,0.09c-2.68,0.53-4.49,3.19-3.87,5.82
			c0.79,3.38,2.24,6.51,4,9.5c0.1,0.16,0.22,0.31,0.34,0.45c0.19,0.2,0.36,0.3,0.53,0.3c0.17,0.01,0.34-0.09,0.53-0.3
			c0.13-0.14,0.25-0.29,0.34-0.45c1.75-2.99,3.2-6.11,4-9.5C15.6,8.39,13.79,5.73,11.11,5.2z M10.13,17.59c-0.01,0-0.01,0-0.02,0
			c-0.01,0-0.01,0-0.02,0c-0.59,0-1.07-0.48-1.06-1.06c0.01-0.56,0.49-1.03,1.05-1.04c0.01,0,0.02,0,0.03,0c0.01,0,0.02,0,0.03,0
			c0.56,0.01,1.04,0.49,1.05,1.04C11.2,17.11,10.72,17.59,10.13,17.59z M12.31,10.64c-0.27,1.32-0.88,2.51-1.71,3.57
			c-0.2,0.25-0.34,0.37-0.49,0.37c-0.15,0.01-0.3-0.11-0.49-0.37c-0.82-1.07-1.43-2.25-1.71-3.57C7.61,9.2,8.69,7.87,10.1,7.88
			c0,0,0,0,0.01,0c0,0,0,0,0.01,0C11.54,7.87,12.61,9.2,12.31,10.64z"/>
	</g>
	<g>
		<path class="st1" d="M24.43,11.04h0.94v4.98h-0.94V11.04z M24.84,15.11h2.92v0.9h-2.92V15.11z"/>
		<path class="st1" d="M29.94,11.04h0.6l1.9,4.98h-1.01l-1.19-3.4l-1.19,3.4h-1.01L29.94,11.04z M28.95,14.32h2.62v0.9h-2.62V14.32z
			"/>
		<path class="st1" d="M33.54,15.85c-0.27-0.14-0.48-0.36-0.62-0.63c-0.14-0.28-0.21-0.61-0.21-1v-3.18h0.94v3.2
			c0,0.29,0.08,0.51,0.23,0.66c0.15,0.16,0.37,0.24,0.65,0.24c0.28,0,0.5-0.08,0.65-0.24c0.15-0.16,0.23-0.38,0.23-0.66v-3.2h0.94
			v3.18c0,0.39-0.07,0.72-0.21,1s-0.35,0.49-0.62,0.63c-0.27,0.14-0.6,0.22-0.98,0.22C34.14,16.07,33.82,16,33.54,15.85z"/>
		<path class="st1" d="M37.31,11.04h1.15l1.85,3.81l-0.08,0.09v-3.9h0.9v4.97h-1.15l-1.85-3.76l0.08-0.09v3.84h-0.9V11.04z"/>
		<path class="st1" d="M42.94,15.85c-0.27-0.14-0.48-0.36-0.62-0.63c-0.14-0.28-0.21-0.61-0.21-1v-1.37c0-0.39,0.07-0.73,0.21-1
			c0.14-0.28,0.35-0.49,0.62-0.64c0.27-0.15,0.59-0.22,0.97-0.22c0.31,0,0.59,0.07,0.84,0.2c0.25,0.13,0.45,0.33,0.61,0.59
			c0.16,0.26,0.27,0.57,0.33,0.93h-0.97c-0.04-0.16-0.09-0.3-0.17-0.42s-0.17-0.21-0.28-0.27c-0.11-0.06-0.23-0.09-0.36-0.09
			c-0.18,0-0.33,0.04-0.45,0.11c-0.12,0.07-0.22,0.18-0.28,0.32c-0.07,0.14-0.1,0.3-0.1,0.5v1.37c0,0.19,0.03,0.36,0.1,0.5
			c0.07,0.14,0.16,0.24,0.28,0.31c0.12,0.07,0.27,0.11,0.45,0.11c0.14,0,0.26-0.03,0.37-0.09s0.2-0.15,0.28-0.27
			s0.13-0.26,0.17-0.42h0.97c-0.06,0.36-0.18,0.67-0.34,0.93s-0.36,0.45-0.61,0.59s-0.52,0.2-0.84,0.2
			C43.54,16.07,43.21,16,42.94,15.85z"/>
		<path class="st1" d="M46.49,11.04h0.94v4.98h-0.94V11.04z M46.92,13.1h2.9V14h-2.9V13.1z M49.21,11.04h0.94v4.98h-0.94V11.04z"/>
		<path class="st1" d="M54,16c-0.23-0.05-0.44-0.12-0.64-0.21c-0.2-0.09-0.38-0.2-0.54-0.33l0.43-0.77
			c0.19,0.16,0.41,0.28,0.66,0.36c0.25,0.09,0.51,0.13,0.77,0.13c0.31,0,0.54-0.05,0.71-0.16c0.17-0.1,0.25-0.25,0.25-0.44v0
			c0-0.13-0.04-0.24-0.11-0.31c-0.08-0.08-0.17-0.13-0.29-0.17c-0.12-0.04-0.28-0.07-0.47-0.1c-0.01,0-0.01,0-0.02,0s-0.01,0-0.02,0
			l-0.08-0.01c-0.33-0.05-0.61-0.12-0.83-0.2c-0.22-0.08-0.41-0.22-0.56-0.41c-0.15-0.2-0.23-0.48-0.23-0.84v0
			c0-0.32,0.07-0.6,0.22-0.83c0.14-0.23,0.35-0.4,0.63-0.52c0.27-0.12,0.61-0.18,0.99-0.18c0.18,0,0.36,0.02,0.55,0.06
			c0.19,0.04,0.37,0.1,0.55,0.18c0.18,0.08,0.35,0.17,0.51,0.28l-0.4,0.79c-0.19-0.13-0.39-0.23-0.6-0.31
			c-0.21-0.07-0.41-0.11-0.6-0.11c-0.29,0-0.51,0.05-0.67,0.14c-0.16,0.09-0.24,0.23-0.24,0.4v0c0,0.14,0.04,0.26,0.12,0.34
			s0.18,0.14,0.3,0.18c0.12,0.04,0.29,0.08,0.51,0.12c0.01,0,0.02,0,0.03,0c0.01,0,0.02,0,0.03,0c0.01,0,0.03,0.01,0.04,0.01
			c0.01,0,0.03,0.01,0.04,0.01c0.32,0.06,0.58,0.14,0.79,0.22s0.39,0.23,0.53,0.42c0.14,0.2,0.21,0.46,0.21,0.8v0.01
			c0,0.32-0.07,0.59-0.22,0.82c-0.15,0.23-0.36,0.4-0.65,0.52c-0.28,0.12-0.63,0.18-1.03,0.18C54.46,16.07,54.23,16.05,54,16z"/>
		<path class="st1" d="M58.29,16.02h-0.97v-4.98h0.97V16.02z"/>
		<path class="st1" d="M58.9,11.04h3.65v0.9H58.9V11.04z M60.26,11.45h0.94v4.57h-0.94V11.45z"/>
		<path class="st1" d="M63.1,11.04h0.94v4.98H63.1V11.04z M63.44,11.04h3v0.9h-3V11.04z M63.44,13.09h2.62V14h-2.62V13.09z
			 M63.44,15.11h3v0.9h-3V15.11z"/>
	</g>
</g>
</svg>
