<?xml version="1.0" encoding="utf-8"?>
<!-- Generator: Adobe Illustrator 24.2.0, SVG Export Plug-In . SVG Version: 6.00 Build 0)  -->
<svg version="1.1" id="Layer_1" xmlns="http://www.w3.org/2000/svg" xmlns:xlink="http://www.w3.org/1999/xlink" x="0px" y="0px"
	 viewBox="0 0 80.29 25.5" style="enable-background:new 0 0 80.29 25.5;" xml:space="preserve">
<style type="text/css">
	.st0{fill:#1A2523;}
	.st1{fill:#DEE0DE;}
</style>
<g>
	<g>
		<g>
			<rect x="19.51" y="6.99" class="st0" width="53.63" height="12.61"/>
		</g>
	</g>
	<g>
		<path class="st0" d="M11.1,5.21c-0.33-0.07-0.67-0.1-1-0.09c-0.33,0-0.66,0.03-1,0.09c-2.68,0.53-4.49,3.19-3.87,5.82
			c0.79,3.38,2.24,6.51,4,9.5c0.1,0.16,0.22,0.31,0.34,0.45c0.19,0.2,0.36,0.3,0.53,0.3c0.17,0.01,0.34-0.09,0.53-0.3
			c0.13-0.14,0.25-0.29,0.34-0.45c1.75-2.99,3.2-6.11,4-9.5C15.59,8.39,13.77,5.74,11.1,5.21z M10.12,17.6c-0.01,0-0.01,0-0.02,0
			c-0.01,0-0.01,0-0.02,0c-0.59,0-1.07-0.48-1.06-1.06c0.01-0.56,0.49-1.03,1.05-1.04c0.01,0,0.02,0,0.03,0c0.01,0,0.02,0,0.03,0
			c0.56,0.01,1.04,0.49,1.05,1.04C11.18,17.12,10.71,17.6,10.12,17.6z M12.3,10.65c-0.27,1.32-0.88,2.51-1.71,3.57
			c-0.2,0.25-0.34,0.37-0.49,0.37c-0.15,0.01-0.3-0.11-0.49-0.37c-0.82-1.07-1.43-2.25-1.71-3.57c-0.3-1.44,0.78-2.77,2.19-2.76
			c0,0,0,0,0.01,0c0,0,0,0,0.01,0C11.52,7.88,12.59,9.21,12.3,10.65z"/>
	</g>
	<g>
		<path class="st1" d="M27.54,11.05h1.24v4.98h-0.85v-3.87l0.03,0.22l-0.95,3.09h-0.83l-0.95-3.02l0.03-0.29v3.87h-0.85v-4.98h1.24
			l0.95,3.36L27.54,11.05z"/>
		<path class="st1" d="M30.64,15.85c-0.27-0.15-0.49-0.37-0.64-0.64c-0.15-0.28-0.23-0.6-0.23-0.96v-1.41
			c0-0.37,0.08-0.69,0.23-0.96c0.15-0.28,0.36-0.49,0.64-0.64c0.28-0.15,0.59-0.23,0.95-0.23c0.36,0,0.68,0.08,0.95,0.23
			c0.28,0.15,0.49,0.37,0.64,0.64c0.15,0.28,0.23,0.6,0.23,0.96v1.41c0,0.37-0.08,0.69-0.23,0.96c-0.15,0.28-0.36,0.49-0.64,0.64
			c-0.27,0.15-0.59,0.23-0.95,0.23C31.23,16.08,30.91,16,30.64,15.85z M32.04,15.03c0.13-0.07,0.23-0.17,0.3-0.31
			c0.07-0.13,0.1-0.29,0.1-0.46v-1.46c0-0.17-0.04-0.33-0.1-0.46s-0.17-0.23-0.3-0.31c-0.13-0.07-0.28-0.11-0.45-0.11
			s-0.32,0.04-0.45,0.11c-0.13,0.07-0.23,0.17-0.3,0.31c-0.07,0.13-0.1,0.29-0.1,0.46v1.46c0,0.17,0.03,0.33,0.1,0.46
			c0.07,0.13,0.17,0.23,0.3,0.31s0.28,0.11,0.45,0.11S31.91,15.1,32.04,15.03z"/>
		<path class="st1" d="M35.03,15.85c-0.27-0.15-0.49-0.37-0.64-0.64c-0.15-0.28-0.23-0.6-0.23-0.96v-1.41
			c0-0.37,0.08-0.69,0.23-0.96c0.15-0.28,0.36-0.49,0.64-0.64c0.28-0.15,0.59-0.23,0.95-0.23c0.36,0,0.68,0.08,0.95,0.23
			c0.28,0.15,0.49,0.37,0.64,0.64c0.15,0.28,0.23,0.6,0.23,0.96v1.41c0,0.37-0.08,0.69-0.23,0.96c-0.15,0.28-0.36,0.49-0.64,0.64
			c-0.27,0.15-0.59,0.23-0.95,0.23C35.62,16.08,35.3,16,35.03,15.85z M36.43,15.03c0.13-0.07,0.23-0.17,0.3-0.31
			c0.07-0.13,0.1-0.29,0.1-0.46v-1.46c0-0.17-0.04-0.33-0.1-0.46s-0.17-0.23-0.3-0.31c-0.13-0.07-0.28-0.11-0.45-0.11
			s-0.32,0.04-0.45,0.11c-0.13,0.07-0.23,0.17-0.3,0.31c-0.07,0.13-0.1,0.29-0.1,0.46v1.46c0,0.17,0.03,0.33,0.1,0.46
			c0.07,0.13,0.17,0.23,0.3,0.31s0.28,0.11,0.45,0.11S36.3,15.1,36.43,15.03z"/>
		<path class="st1" d="M38.73,11.05h1.15l1.85,3.82l-0.08,0.09v-3.9h0.9v4.98h-1.15l-1.85-3.76l0.08-0.09v3.85h-0.9V11.05z"/>
		<path class="st1" d="M45.01,11.05h0.97l1.06,3.32l1.06-3.32h0.97l-1.66,4.98h-0.73L45.01,11.05z"/>
		<path class="st1" d="M50.75,11.05h0.6l1.9,4.98h-1.01l-1.19-3.4l-1.19,3.4h-1.01L50.75,11.05z M49.76,14.32h2.62v0.9h-2.62V14.32z
			"/>
		<path class="st1" d="M53.87,11.05h0.94v4.98h-0.94V11.05z M54.29,15.12h2.92v0.9h-2.92V15.12z"/>
		<path class="st1" d="M57.89,11.05h0.94v4.98h-0.94V11.05z M58.31,15.12h2.92v0.9h-2.92V15.12z"/>
		<path class="st1" d="M61.91,11.05h0.94v4.98h-0.94V11.05z M62.25,11.05h3v0.9h-3V11.05z M62.25,13.1h2.62V14h-2.62V13.1z
			 M62.25,15.12h3v0.9h-3V15.12z"/>
		<path class="st1" d="M67.78,14.1v1.92h-0.94V14.1l-1.46-3.06h0.98l0.95,2.14l0.95-2.14h0.98L67.78,14.1z"/>
	</g>
</g>
</svg>
