<?xml version="1.0" encoding="utf-8"?>
<!-- Generator: Adobe Illustrator 24.2.0, SVG Export Plug-In . SVG Version: 6.00 Build 0)  -->
<svg version="1.1" id="Layer_1" xmlns="http://www.w3.org/2000/svg" xmlns:xlink="http://www.w3.org/1999/xlink" x="0px" y="0px"
	 viewBox="0 0 85.48 44.06" style="enable-background:new 0 0 85.48 44.06;" xml:space="preserve">
<style type="text/css">
	.st0{fill:#1A2523;}
	.st1{fill:#DEE0DE;}
</style>
<g>
	<g>
		<g>
			<rect x="28.86" y="18.34" class="st0" width="46.8" height="12.6"/>
		</g>
	</g>
	<g>
		<path class="st1" d="M35.16,22.34h0.6l1.9,5h-1l-1.2-3.4l-1.2,3.4h-1L35.16,22.34z M34.16,25.64h2.6v0.9h-2.6V25.64z"/>
		<path class="st1" d="M38.76,27.24c-0.3-0.1-0.5-0.4-0.6-0.6c-0.1-0.3-0.2-0.6-0.2-1v-1.4c0-0.4,0.1-0.7,0.2-1s0.4-0.5,0.6-0.6
			s0.6-0.2,1-0.2c0.3,0,0.6,0.1,0.8,0.2c0.3,0.1,0.5,0.3,0.6,0.6s0.3,0.6,0.3,0.9h-1c0-0.2-0.1-0.3-0.2-0.4
			c-0.1-0.1-0.2-0.2-0.3-0.3s-0.2-0.1-0.4-0.1c-0.2,0-0.3,0-0.5,0.1c-0.1,0.1-0.2,0.2-0.3,0.3c-0.1,0.1-0.1,0.3-0.1,0.5v1.4
			c0,0.2,0,0.4,0.1,0.5s0.2,0.2,0.3,0.3c0.1,0.1,0.3,0.1,0.5,0.1c0.1,0,0.3,0,0.4-0.1s0.2-0.1,0.3-0.3c0.1-0.1,0.1-0.3,0.2-0.4h1
			c-0.1,0.4-0.2,0.7-0.3,0.9s-0.4,0.4-0.6,0.6c-0.3,0.1-0.5,0.2-0.8,0.2C39.36,27.44,38.96,27.34,38.76,27.24z"/>
		<path class="st1" d="M42.26,22.34h0.9v5h-0.9V22.34z M42.66,24.44h2.9v0.9h-2.9V24.44z M44.96,22.34h0.9v5h-0.9V22.34z"/>
		<path class="st1" d="M48.36,22.34h0.6l1.9,5h-1l-1.2-3.4l-1.2,3.4h-1L48.36,22.34z M47.36,25.64h2.6v0.9h-2.6V25.64z"/>
		<path class="st1" d="M51.96,27.24c-0.3-0.1-0.5-0.4-0.6-0.6c-0.1-0.3-0.2-0.6-0.2-1v-1.4c0-0.4,0.1-0.7,0.2-1s0.4-0.5,0.6-0.6
			s0.6-0.2,1-0.2c0.3,0,0.6,0.1,0.8,0.2c0.3,0.1,0.5,0.3,0.6,0.6s0.3,0.6,0.3,0.9h-1c0-0.2-0.1-0.3-0.2-0.4
			c-0.1-0.1-0.2-0.2-0.3-0.3s-0.2-0.1-0.4-0.1c-0.2,0-0.3,0-0.5,0.1c-0.1,0.1-0.2,0.2-0.3,0.3c-0.1,0.1-0.1,0.3-0.1,0.5v1.4
			c0,0.2,0,0.4,0.1,0.5s0.2,0.2,0.3,0.3c0.1,0.1,0.3,0.1,0.5,0.1c0.1,0,0.3,0,0.4-0.1s0.2-0.1,0.3-0.3c0.1-0.1,0.1-0.3,0.2-0.4h1
			c-0.1,0.4-0.2,0.7-0.3,0.9s-0.4,0.4-0.6,0.6c-0.3,0.1-0.5,0.2-0.8,0.2C52.56,27.44,52.16,27.34,51.96,27.24z"/>
		<path class="st1" d="M56.76,22.34h0.6l1.9,5h-1l-1.2-3.4l-1.2,3.4h-1L56.76,22.34z M55.76,25.64h2.6v0.9h-2.6V25.64z"/>
		<path class="st1" d="M60.36,27.24c-0.3-0.1-0.5-0.4-0.6-0.6c-0.1-0.3-0.2-0.6-0.2-1v-1.4c0-0.4,0.1-0.7,0.2-1s0.4-0.5,0.6-0.6
			s0.6-0.2,1-0.2c0.3,0,0.6,0.1,0.8,0.2c0.3,0.1,0.5,0.3,0.6,0.6s0.3,0.6,0.3,0.9h-1c0-0.2-0.1-0.3-0.2-0.4
			c-0.1-0.1-0.2-0.2-0.3-0.3s-0.2-0.1-0.4-0.1c-0.2,0-0.3,0-0.5,0.1c-0.1,0.1-0.2,0.2-0.3,0.3c-0.1,0.1-0.1,0.3-0.1,0.5v1.4
			c0,0.2,0,0.4,0.1,0.5s0.2,0.2,0.3,0.3c0.1,0.1,0.3,0.1,0.5,0.1c0.1,0,0.3,0,0.4-0.1s0.2-0.1,0.3-0.3c0.1-0.1,0.1-0.3,0.2-0.4h1
			c-0.1,0.4-0.2,0.7-0.3,0.9s-0.4,0.4-0.6,0.6c-0.3,0.1-0.5,0.2-0.8,0.2C60.96,27.44,60.56,27.34,60.36,27.24z"/>
		<path class="st1" d="M63.86,22.34h0.9v5h-0.9V22.34z M64.36,24.44h2.9v0.9h-2.9V24.44z M66.66,22.34h0.9v5h-0.9V22.34z"/>
		<path class="st1" d="M69.56,27.34h-1v-5h1V27.34z"/>
	</g>
	<g>
		<g>
			<path class="st0" d="M13.06,30.94c-1.3,0-2.6,0-3.9,0c-0.1-0.2-0.2-0.4-0.2-0.6c0-3.6,0-7.2,0-10.8c0-0.2,0.1-0.4,0.2-0.6
				c1.6-2,3.2-4,4.8-6.1c0.1,0,0.2,0,0.3,0c1.6,2.1,3.3,4.2,5,6.3c-0.8,0.7-1.5,1.4-2.3,2c-0.5,0.4-0.7,0.9-0.7,1.5
				c0,2.7,0,5.5,0,8.2c-0.4,0-0.8,0-1.2,0c-0.1-0.2-0.2-0.4-0.2-0.6c0-0.4,0-0.8,0-1.1c0-0.4,0-0.8,0-1.2c-0.5,0-1,0-1.5,0
				c0,0.8,0,1.6,0,2.3C13.36,30.64,13.16,30.74,13.06,30.94z M10.46,23.64c0,0.5,0,1,0,1.4c0.5,0,1,0,1.4,0c0-0.5,0-0.9,0-1.4
				C11.36,23.64,10.96,23.64,10.46,23.64z M10.46,20.74c0.5,0,1,0,1.4,0c0-0.5,0-0.9,0-1.4c-0.5,0-1,0-1.4,0
				C10.46,19.84,10.46,20.24,10.46,20.74z M14.76,25.14c0-0.5,0-1,0-1.4c-0.5,0-0.9,0-1.4,0c0,0.5,0,1,0,1.4
				C13.86,25.14,14.26,25.14,14.76,25.14z M14.76,19.34c-0.5,0-1,0-1.4,0c0,0.5,0,0.9,0,1.4c0.5,0,1,0,1.4,0
				C14.76,20.24,14.76,19.74,14.76,19.34z"/>
		</g>
		<g>
			<path class="st0" d="M17.96,30.94c-0.1-0.2-0.2-0.4-0.2-0.6c0-2.1,0-4.2,0-6.4c0-0.2,0.1-0.5,0.3-0.6c1-0.8,2-1.6,3-2.4
				c0.2-0.2,0.4-0.2,0.6,0c1,0.8,2.1,1.6,3.1,2.5c0.1,0.1,0.3,0.4,0.3,0.6c0,2.1,0,4.3,0,6.4c0,0.2-0.1,0.3-0.2,0.5
				c-0.8,0-1.6,0-2.5,0c-0.1-0.2-0.2-0.4-0.2-0.5c0-0.4,0-0.7,0-1.1c0-0.4,0-0.9,0-1.3c-0.5,0-1,0-1.5,0c0,0.8,0,1.6,0,2.4
				c0,0.2-0.1,0.4-0.2,0.5C19.56,30.94,18.76,30.94,17.96,30.94z M23.56,25.14c-0.5,0-1,0-1.4,0c0,0.5,0,0.9,0,1.4c0.5,0,1,0,1.4,0
				C23.56,26.14,23.56,25.64,23.56,25.14z M19.16,26.54c0.5,0,0.9,0,1.4,0c0-0.5,0-0.9,0-1.4c-0.5,0-0.9,0-1.4,0
				C19.16,25.64,19.16,26.04,19.16,26.54z"/>
		</g>
	</g>
</g>
</svg>
