<?xml version="1.0" encoding="utf-8"?>
<!-- Generator: Adobe Illustrator 24.2.0, SVG Export Plug-In . SVG Version: 6.00 Build 0)  -->
<svg version="1.1" id="Layer_10" xmlns="http://www.w3.org/2000/svg"
	 viewBox="0 0 890 890" >
<style type="text/css">
	.st1{fill:none;stroke:#EFDAAC;stroke-width:0.5;}
</style>
<g>

	<line class="st1" x1="0" y1="868.45" x2="890.16" y2="868.45" style=""/>
	<line class="st1" x1="0" y1="846.74" x2="890.16" y2="846.74"/>
	<line class="st1" x1="0" y1="825.03" x2="890.16" y2="825.03"/>
	<line class="st1" x1="0" y1="803.32" x2="890.16" y2="803.32"/>
	<line class="st1" x1="0" y1="781.61" x2="890.16" y2="781.61"/>
	<line class="st1" x1="0" y1="759.89" x2="890.16" y2="759.89"/>
	<line class="st1" x1="0" y1="738.18" x2="890.16" y2="738.18"/>
	<line class="st1" x1="0" y1="716.47" x2="890.16" y2="716.47"/>
	<line class="st1" x1="0" y1="694.76" x2="890.16" y2="694.76"/>
	<line class="st1" x1="0" y1="673.05" x2="890.16" y2="673.05"/>
	<line class="st1" x1="0" y1="651.34" x2="890.16" y2="651.34"/>
	<line class="st1" x1="0" y1="629.63" x2="890.16" y2="629.63"/>
	<line class="st1" x1="0" y1="607.92" x2="890.16" y2="607.92"/>
	<line class="st1" x1="0" y1="586.21" x2="890.16" y2="586.21"/>
	<line class="st1" x1="0" y1="564.5" x2="890.16" y2="564.5"/>
	<line class="st1" x1="0" y1="542.79" x2="890.16" y2="542.79"/>
	<line class="st1" x1="0" y1="521.08" x2="890.16" y2="521.08"/>
	<line class="st1" x1="0" y1="499.36" x2="890.16" y2="499.36"/>
	<line class="st1" x1="0" y1="477.65" x2="890.16" y2="477.65"/>
	<line class="st1" x1="0" y1="455.94" x2="890.16" y2="455.94"/>
	<line class="st1" x1="0" y1="434.23" x2="890.16" y2="434.23"/>
	<line class="st1" x1="0" y1="412.52" x2="890.16" y2="412.52"/>
	<line class="st1" x1="0" y1="390.81" x2="890.16" y2="390.81"/>
	<line class="st1" x1="0" y1="369.1" x2="890.16" y2="369.1"/>
	<line class="st1" x1="0" y1="347.39" x2="890.16" y2="347.39"/>
	<line class="st1" x1="0" y1="325.68" x2="890.16" y2="325.68"/>
	<line class="st1" x1="0" y1="303.97" x2="890.16" y2="303.97"/>
	<line class="st1" x1="0" y1="282.26" x2="890.16" y2="282.26"/>
	<line class="st1" x1="0" y1="260.55" x2="890.16" y2="260.55"/>
	<line class="st1" x1="0" y1="238.83" x2="890.16" y2="238.83"/>
	<line class="st1" x1="0" y1="217.12" x2="890.16" y2="217.12"/>
	<line class="st1" x1="0" y1="195.41" x2="890.16" y2="195.41"/>
	<line class="st1" x1="0" y1="173.7" x2="890.16" y2="173.7"/>
	<line class="st1" x1="0" y1="151.99" x2="890.16" y2="151.99"/>
	<line class="st1" x1="0" y1="130.28" x2="890.16" y2="130.28"/>
	<line class="st1" x1="0" y1="108.57" x2="890.16" y2="108.57"/>
	<line class="st1" x1="0" y1="86.86" x2="890.16" y2="86.86"/>
	<line class="st1" x1="0" y1="65.15" x2="890.16" y2="65.15"/>
	<line class="st1" x1="0" y1="43.44" x2="890.16" y2="43.44"/>
	<line class="st1" x1="0" y1="21.73" x2="890.16" y2="21.73"/>
	<line class="st1" x1="868.45" y1="0.02" x2="868.45" y2="890.16"/>
	<line class="st1" x1="846.74" y1="0.02" x2="846.74" y2="890.16"/>
	<line class="st1" x1="825.03" y1="0.02" x2="825.03" y2="890.16"/>
	<line class="st1" x1="803.32" y1="0.02" x2="803.32" y2="890.16"/>
	<line class="st1" x1="781.6" y1="0.02" x2="781.6" y2="890.16"/>
	<line class="st1" x1="759.89" y1="0.02" x2="759.89" y2="890.16"/>
	<line class="st1" x1="738.18" y1="0.02" x2="738.18" y2="890.16"/>
	<line class="st1" x1="716.47" y1="0.02" x2="716.47" y2="890.16"/>
	<line class="st1" x1="694.76" y1="0.02" x2="694.76" y2="890.16"/>
	<line class="st1" x1="673.05" y1="0.02" x2="673.05" y2="890.16"/>
	<line class="st1" x1="651.34" y1="0.02" x2="651.34" y2="890.16"/>
	<line class="st1" x1="629.63" y1="0.02" x2="629.63" y2="890.16"/>
	<line class="st1" x1="607.91" y1="0.02" x2="607.91" y2="890.16"/>
	<line class="st1" x1="586.2" y1="0.02" x2="586.2" y2="890.16"/>
	<line class="st1" x1="564.49" y1="0.02" x2="564.49" y2="890.16"/>
	<line class="st1" x1="542.78" y1="0.02" x2="542.78" y2="890.16"/>
	<line class="st1" x1="521.07" y1="0.02" x2="521.07" y2="890.16"/>
	<line class="st1" x1="499.36" y1="0.02" x2="499.36" y2="890.16"/>
	<line class="st1" x1="477.65" y1="0.02" x2="477.65" y2="890.16"/>
	<line class="st1" x1="455.94" y1="0.02" x2="455.94" y2="890.16"/>
	<line class="st1" x1="434.22" y1="0.02" x2="434.22" y2="890.16"/>
	<line class="st1" x1="412.51" y1="0.02" x2="412.51" y2="890.16"/>
	<line class="st1" x1="390.8" y1="0.02" x2="390.8" y2="890.16"/>
	<line class="st1" x1="369.09" y1="0.02" x2="369.09" y2="890.16"/>
	<line class="st1" x1="347.38" y1="0.02" x2="347.38" y2="890.16"/>
	<line class="st1" x1="325.67" y1="0.02" x2="325.67" y2="890.16"/>
	<line class="st1" x1="303.96" y1="0.02" x2="303.96" y2="890.16"/>
	<line class="st1" x1="282.25" y1="0.02" x2="282.25" y2="890.16"/>
	<line class="st1" x1="260.53" y1="0.02" x2="260.53" y2="890.16"/>
	<line class="st1" x1="238.82" y1="0.02" x2="238.82" y2="890.16"/>
	<line class="st1" x1="217.11" y1="0.02" x2="217.11" y2="890.16"/>
	<line class="st1" x1="195.4" y1="0.02" x2="195.4" y2="890.16"/>
	<line class="st1" x1="173.69" y1="0.02" x2="173.69" y2="890.16"/>
	<line class="st1" x1="151.98" y1="0.02" x2="151.98" y2="890.16"/>
	<line class="st1" x1="130.27" y1="0.02" x2="130.27" y2="890.16"/>
	<line class="st1" x1="108.56" y1="0.02" x2="108.56" y2="890.16"/>
	<line class="st1" x1="86.84" y1="0.02" x2="86.84" y2="890.16"/>
	<line class="st1" x1="65.13" y1="0.02" x2="65.13" y2="890.16"/>
	<line class="st1" x1="43.42" y1="0.02" x2="43.42" y2="890.16"/>
	<line class="st1" x1="21.71" y1="0.02" x2="21.71" y2="890.16"/>
</g>
</svg>
