<?xml version="1.0" encoding="utf-8"?>
<!-- Generator: Adobe Illustrator 24.2.0, SVG Export Plug-In . SVG Version: 6.00 Build 0)  -->
<svg version="1.1" id="Layer_11" xmlns="http://www.w3.org/2000/svg" xmlns:xlink="http://www.w3.org/1999/xlink" x="0px" y="0px"
	 viewBox="0 0 13.08 12.93" style="enable-background:new 0 0 13.08 12.93;" xml:space="preserve">
<style type="text/css">
	.st0{fill:#F1F2F2;}
</style>
<g>
	<path class="st0" d="M6.54,2.15c2.38,0,4.32,1.94,4.32,4.32c0,2.38-1.94,4.32-4.32,4.32S2.22,8.84,2.22,6.46
		C2.22,4.08,4.16,2.15,6.54,2.15 M6.54,10.28c2.1,0,3.82-1.71,3.82-3.82c0-2.1-1.71-3.82-3.82-3.82c-2.11,0-3.82,1.71-3.82,3.82
		C2.72,8.57,4.44,10.28,6.54,10.28 M6.54,1.15c-2.93,0-5.32,2.39-5.32,5.32c0,2.93,2.39,5.32,5.32,5.32c2.93,0,5.32-2.39,5.32-5.32
		C11.86,3.53,9.47,1.15,6.54,1.15L6.54,1.15z M6.54,9.28c-1.55,0-2.82-1.26-2.82-2.82c0-1.55,1.26-2.82,2.82-2.82
		c1.55,0,2.82,1.26,2.82,2.82C9.36,8.02,8.09,9.28,6.54,9.28L6.54,9.28z"/>
	<g>
		<g>
			<path d="M6.54,9.24C5.01,9.24,3.76,8,3.76,6.46c0-1.53,1.25-2.78,2.78-2.78s2.78,1.25,2.78,2.78C9.32,8,8.07,9.24,6.54,9.24z"/>
			<path class="st0" d="M6.54,4.18c1.26,0,2.28,1.02,2.28,2.28c0,1.26-1.02,2.28-2.28,2.28c-1.26,0-2.28-1.02-2.28-2.28
				C4.26,5.2,5.28,4.18,6.54,4.18 M6.54,3.18c-1.81,0-3.28,1.47-3.28,3.28c0,1.81,1.47,3.28,3.28,3.28s3.28-1.47,3.28-3.28
				C9.82,4.66,8.35,3.18,6.54,3.18L6.54,3.18z"/>
		</g>
	</g>
	<path d="M6.54,11.28c-2.66,0-4.82-2.16-4.82-4.82s2.16-4.82,4.82-4.82c2.66,0,4.82,2.16,4.82,4.82S9.2,11.28,6.54,11.28z
		 M6.54,3.15c-1.83,0-3.32,1.49-3.32,3.32s1.49,3.32,3.32,3.32c1.83,0,3.32-1.49,3.32-3.32S8.37,3.15,6.54,3.15z"/>
</g>
</svg>
