<?xml version="1.0" encoding="utf-8"?>
<!-- Generator: Adobe Illustrator 24.2.0, SVG Export Plug-In . SVG Version: 6.00 Build 0)  -->
<svg version="1.1" id="Layer_11" xmlns="http://www.w3.org/2000/svg" xmlns:xlink="http://www.w3.org/1999/xlink" x="0px" y="0px"
	 viewBox="0 0 7.92 16.12" style="enable-background:new 0 0 7.92 16.12;" xml:space="preserve">
<style type="text/css">
	.st0{fill:#1A2523;}
</style>
<path class="st0" d="M7.64,14.52c-0.16-0.05-0.12-0.11-0.22-0.21c-0.11-0.1-0.24-0.21-0.38-0.26c-0.26-0.18-0.44-0.47-0.66-0.71
	c-0.04-0.15-0.22-0.23-0.21-0.4c-0.02-0.01-0.02-0.02-0.02-0.04c0.07-0.06,0.29-0.06,0.23-0.18c-0.14-0.29-0.29-0.57-0.35-0.89
	c-0.1-0.41-0.26-0.78-0.52-1.11c-0.19-0.28-0.2-0.63-0.31-0.94c0.12-0.02,0.13-0.16,0.16-0.26c0.01-0.12-0.1-0.22-0.14-0.32
	C5.19,9.14,5.26,9.08,5.21,9.03C5.19,8.99,5.17,8.95,5.17,8.91c0-0.03-0.02-0.07-0.05-0.07C5.08,8.81,5.07,8.76,5.04,8.72
	C4.99,8.63,4.93,8.63,5.02,8.53c0.01-0.11-0.1-0.26-0.2-0.32C4.7,8.2,4.72,8.02,4.84,8.04C5.07,8.16,5.14,8.5,5.3,8.7
	c0.12,0.16,0.18,0.41,0.35,0.52c0.56-0.07,0.23-0.4,0.07-0.7c0,0,0,0.01-0.01,0.01C5.57,8.31,5.47,8.1,5.35,7.89
	c-0.08-0.11-0.1-0.37-0.29-0.27c-0.08,0.02,0-0.06-0.03-0.09C5.01,7.5,5.06,7.49,5.07,7.47c-0.01,0-0.01,0-0.02,0
	c0.07-0.15,0.22-0.13,0.07-0.32c-0.04-0.07-0.2,0.03-0.11-0.13C5,6.87,4.85,7.1,4.8,6.96C4.77,6.93,4.78,6.89,4.81,6.87
	c0.13-0.06,0.1-0.26,0.18-0.36C5.12,6.28,4.9,6.29,4.9,6.16c0.02-0.13,0.13-0.27,0.11-0.39C4.95,5.66,4.78,5.6,4.75,5.49
	c0.11-0.33,0.43-0.52,0.08-0.85C4.82,4.55,4.8,4.48,4.7,4.46C4.65,4.43,4.54,4.38,4.55,4.31c0.06-0.14,0.12-0.29,0.16-0.44
	c-0.22-0.02-0.3-0.11-0.07-0.23c0.06-0.04,0.12-0.1,0.19-0.13C4.86,3.53,4.89,3.51,4.9,3.49c0.07-0.12,0.06-0.14,0.2-0.05
	c-0.02-0.06,0.01-0.07,0.05-0.1C5.16,3.37,5.17,3.4,5.17,3.43c0.01,0,0.01,0,0.02,0c0.01-0.16-0.08-0.32-0.05-0.48
	c0.02,0,0.03,0.03,0.06,0.03C5.14,2.85,5.04,2.66,5.11,2.52c0,0.01,0.01,0.02,0.01,0.03c0.02-0.02,0.01-0.05,0.02-0.06
	c0.03,0.02,0.03,0.05,0.05,0.08c0.01-0.04-0.05-0.14,0.02-0.14c0-0.03,0.01-0.05,0.03-0.07C5.27,2.38,5.28,2.41,5.3,2.44
	c0.02-0.08-0.04-0.12-0.05-0.18c0.05-0.09-0.02-0.19,0-0.29c0.06-0.1-0.07-0.1-0.08-0.17c0-0.02-0.02-0.03-0.03-0.04
	c0,0,0.01-0.01,0.01-0.01c-0.04-0.01,0.05-0.04,0-0.04c0-0.01,0.01-0.01,0.01-0.02c-0.01,0-0.01,0-0.01,0
	c0.02-0.17,0.04-0.33,0.1-0.48c-0.03-0.1-0.27,0.08-0.34,0.1C4.78,1.35,4.68,1.5,4.55,1.4C4.29,1.28,4.01,1.32,3.74,1.28
	C3.64,1.2,3.38,0.94,3.3,0.93l0,0C2.88,0.67,3.18,1.58,3.06,1.61C2.9,1.6,2.68,1.62,2.74,1.84C2.7,1.88,2.73,1.94,2.69,1.98
	C2.67,2.03,2.7,2.08,2.71,2.12C2.65,2.3,2.45,2.42,2.39,2.6c0.04-0.04,0.05-0.01,0.07,0.02c0,0.01-0.02,0.02-0.01,0.04
	C2.65,2.62,2.5,2.8,2.5,2.9c0.02-0.01,0.03-0.03,0.05-0.04C2.6,2.92,2.55,2.97,2.54,3.03C2.63,3.07,2.5,3.1,2.69,3.13
	c0,0,0-0.01,0.01-0.02C2.78,3.19,2.93,3.2,2.86,3.36c0,0,0,0,0.01,0c0.02-0.02,0.02-0.04,0.05-0.05c-0.01,0.05-0.01,0.11,0,0.16
	c0.02-0.03,0.03-0.06,0.05-0.07c0,0.04,0.01,0.07,0.03,0.1c0.04-0.03,0.08-0.04,0.13-0.03c-0.02,0.07,0.03,0.1,0.09,0.11
	C3.19,3.63,3.2,3.66,3.2,3.69c-0.08,0-0.21-0.04-0.25,0.05c-0.12,0.05-0.29,0.06-0.43,0.1c-0.1,0.01-0.21-0.01-0.28,0.08
	C2.09,4,1.97,4.12,1.86,4.25c-0.31-0.26-0.07-0.3,0.09-0.54C1.94,3.47,1.53,3.81,1.45,3.88c-0.03,0.04,0,0.12,0.05,0.1
	C1.53,3.97,1.54,4,1.54,4.02C1.46,4.16,1.71,4.27,1.7,4.38C1.59,4.5,1.52,4.65,1.44,4.79C1.41,4.84,1.47,4.88,1.41,4.93
	C1.39,4.97,1.32,4.96,1.3,5C1.28,5.06,1.09,5.22,1.2,5.24C1.12,5.37,1.04,5.5,0.95,5.62c-0.08,0.1-0.31,0.21-0.19,0.35
	c0.07,0.12,0.05,0.46,0.17,0.5c0.09-0.02,0.04,0.16,0.11,0.15c0.11,0,0.03,0.1,0.1,0.11c0.47,0.09,0.24-0.16,0.65-0.1
	C1.76,6.71,1.71,6.77,1.67,6.85C1.64,6.89,1.56,6.83,1.51,6.87c-0.16,0.08-0.62,0.44-0.61,0.6C0.83,7.62,0.86,7.78,0.89,7.93
	C0.86,8.09,0.73,8.28,0.76,8.43c0.59,0.82,0.92-0.15,0.93,0.09C1.65,8.63,1.7,8.75,1.67,8.86C1.66,8.91,1.6,8.92,1.59,8.96
	C1.56,9.06,1.5,9.21,1.6,9.29C1.62,9.34,1.7,9.31,1.7,9.35C1.68,9.48,1.66,9.6,1.67,9.73c-0.07,0.4,0.14,0.8-0.02,1.19
	c-0.18,0.68-0.39,1.34-0.45,2.04c0.03,0.46,0.08,0.98,0.27,1.38C1.41,14.66,1.41,15,1.5,15.32c0.01,0.06,0.07-0.01,0.08,0.06
	c-0.01,0.12,0.09,0.22,0.21,0.2c0.01-0.05,0.04-0.01,0.06,0.01c0.09,0.06,0.2,0.04,0.3,0.06c0.04,0.02,0.11-0.12,0.12-0.02
	c0,0.02,0.01,0.04,0.03,0.04c0.28-0.23,0.21-0.65,0.13-0.97c-0.04-0.25,0.02-0.5-0.05-0.75c0.06-0.09,0.3,0,0.35-0.1
	c-0.02-0.13-0.04-0.27-0.05-0.41c0.03-0.55,0.09-1.33,0.09-1.41c0.07-0.4,0.23-0.8,0.31-1.2c0.02-0.06,0.04-0.12,0.04-0.18
	c-0.01-0.27,0.09-0.54,0.18-0.8c0.19,0.08,0.41,0.32,0.42,0.32c0.29,0.43,0.42,0.97,0.64,1.44c0.21,0.56,0.43,1.12,0.7,1.65
	c0.06,0.11,0.07,0.26,0.23,0.15c0.17,0.37,0.07,0.77,0.15,1.15c0.02,0.07,0.08,0.01,0.12,0c0.07-0.01,0.03,0.14,0.22,0.1
	c0.06-0.01,0.12-0.05,0.18-0.09c0.03,0.04,0.06,0.08,0.09,0.11c-0.01,0.05-0.01,0.1,0.07,0.13c0.16,0.13,0.15,0.02,0.27,0.09
	c0.09,0.09,0.23,0.08,0.35,0.11C6.76,15,6.77,14.96,6.8,14.97c0.06,0.02,0.13-0.01,0.18,0.03c0.14,0.07,0.45-0.13,0.58-0.17
	C7.63,14.77,7.68,14.59,7.64,14.52z M2.99,1.82C2.95,1.86,2.87,2.01,2.81,1.94C2.79,1.88,2.79,1.83,2.84,1.78
	C2.88,1.74,3.01,1.74,2.99,1.82z"/>
</svg>
