<?xml version="1.0" encoding="utf-8"?>
<!-- Generator: Adobe Illustrator 24.2.0, SVG Export Plug-In . SVG Version: 6.00 Build 0)  -->
<svg version="1.1" id="Layer_1" xmlns="http://www.w3.org/2000/svg" xmlns:xlink="http://www.w3.org/1999/xlink" x="0px" y="0px"
	 viewBox="0 0 18.03 17.76" style="enable-background:new 0 0 18.03 17.76;" xml:space="preserve">
<style type="text/css">
	.st0{fill:#F1F2F2;}
	.st1{fill:#FFA300;}
	.st2{fill:#231F20;}
</style>
<g>
	<path class="st0" d="M9.02,2.12c3.73,0,6.76,3.03,6.76,6.76c0,3.73-3.03,6.76-6.76,6.76s-6.76-3.03-6.76-6.76
		C2.26,5.15,5.29,2.12,9.02,2.12 M9.02,14.86c3.3,0,5.98-2.68,5.98-5.98c0-3.3-2.68-5.98-5.98-5.98c-3.3,0-5.98,2.68-5.98,5.98
		C3.04,12.18,5.72,14.86,9.02,14.86 M9.02,0.55c-4.59,0-8.33,3.74-8.33,8.33c0,4.59,3.74,8.33,8.33,8.33c4.59,0,8.33-3.74,8.33-8.33
		C17.34,4.29,13.61,0.55,9.02,0.55L9.02,0.55z M9.02,13.3c-2.43,0-4.41-1.98-4.41-4.41c0-2.43,1.98-4.41,4.41-4.41
		c2.43,0,4.41,1.98,4.41,4.41C13.43,11.32,11.45,13.3,9.02,13.3L9.02,13.3z"/>
	<g>
		<g>
			<path class="st1" d="M9.02,12.95c-2.24,0-4.07-1.83-4.07-4.07c0-2.24,1.83-4.07,4.07-4.07s4.07,1.83,4.07,4.07
				C13.09,11.13,11.26,12.95,9.02,12.95z"/>
			<path class="st0" d="M9.02,5.31c1.97,0,3.57,1.6,3.57,3.57s-1.6,3.57-3.57,3.57c-1.97,0-3.57-1.6-3.57-3.57S7.05,5.31,9.02,5.31
				 M9.02,4.31c-2.52,0-4.57,2.05-4.57,4.57s2.05,4.57,4.57,4.57s4.57-2.05,4.57-4.57S11.54,4.31,9.02,4.31L9.02,4.31z"/>
		</g>
	</g>
	<path class="st2" d="M9.02,16.43c-4.16,0-7.54-3.38-7.54-7.54s3.38-7.54,7.54-7.54c4.16,0,7.54,3.38,7.54,7.54
		S13.18,16.43,9.02,16.43z M9.02,3.69c-2.87,0-5.2,2.33-5.2,5.2s2.33,5.2,5.2,5.2c2.86,0,5.19-2.33,5.19-5.2S11.88,3.69,9.02,3.69z"
		/>
</g>
</svg>
