<?xml version="1.0" encoding="utf-8"?>
<!-- Generator: Adobe Illustrator 24.2.0, SVG Export Plug-In . SVG Version: 6.00 Build 0)  -->
<svg version="1.1" id="Layer_7" xmlns="http://www.w3.org/2000/svg" xmlns:xlink="http://www.w3.org/1999/xlink" x="0px" y="0px"
	 viewBox="0 0 890 890" style="enable-background:new 0 0 890 890;" xml:space="preserve">
<style type="text/css">
	.st0{fill:#F77B00;}
	.st1{fill:#1A2523;}
</style>
<g>
	<path class="st0" d="M871.65,871.47H21.71V21.53h849.94V871.47z M23.71,869.47h845.94V23.53H23.71V869.47z"/>
</g>
<g>
	<rect x="22.71" y="22.53" class="st0" width="88.94" height="12.35"/>
</g>
<g>
	<path class="st1" d="M29.73,26.28c-0.24-0.13-0.51-0.19-0.82-0.19h-1.06h-0.51H26.9v5.01h0.94v-1.94h1.06
		c0.31,0,0.59-0.06,0.82-0.19c0.24-0.13,0.42-0.3,0.55-0.54c0.13-0.23,0.2-0.5,0.2-0.8c0-0.31-0.07-0.57-0.2-0.81
		C30.16,26.59,29.97,26.41,29.73,26.28z M29.43,27.95c-0.05,0.09-0.12,0.17-0.2,0.22c-0.09,0.05-0.18,0.08-0.3,0.08h-1.09V27h1.09
		c0.12,0,0.22,0.03,0.3,0.08s0.15,0.13,0.2,0.22c0.05,0.09,0.07,0.21,0.07,0.33C29.51,27.75,29.48,27.85,29.43,27.95z"/>
	<path class="st1" d="M33.91,26.27c-0.28-0.15-0.6-0.23-0.96-0.23c-0.36,0-0.68,0.08-0.96,0.23c-0.28,0.15-0.49,0.37-0.64,0.65
		c-0.15,0.28-0.23,0.6-0.23,0.97v1.42c0,0.37,0.08,0.69,0.23,0.97c0.15,0.28,0.37,0.5,0.64,0.65c0.28,0.15,0.6,0.23,0.96,0.23
		c0.36,0,0.68-0.08,0.96-0.23c0.28-0.15,0.49-0.37,0.64-0.65c0.15-0.28,0.23-0.6,0.23-0.97v-1.42c0-0.37-0.08-0.69-0.23-0.97
		C34.4,26.63,34.19,26.42,33.91,26.27z M33.8,29.33c0,0.17-0.04,0.33-0.11,0.46c-0.07,0.13-0.17,0.24-0.3,0.31s-0.28,0.11-0.45,0.11
		s-0.32-0.04-0.45-0.11s-0.23-0.17-0.3-0.31c-0.07-0.13-0.11-0.29-0.11-0.46v-1.47c0-0.17,0.04-0.33,0.11-0.46s0.17-0.24,0.3-0.31
		s0.28-0.11,0.45-0.11s0.32,0.04,0.45,0.11s0.23,0.18,0.3,0.31s0.11,0.29,0.11,0.46V29.33z"/>
	<polygon class="st1" points="36.65,26.09 35.71,26.09 35.71,31.1 36.13,31.1 36.65,31.1 39.06,31.1 39.06,30.19 36.65,30.19 	"/>
	<rect x="39.68" y="26.09" class="st1" width="0.98" height="5.01"/>
	<polygon class="st1" points="43.35,29.43 42.29,26.09 41.32,26.09 42.98,31.1 43.72,31.1 45.39,26.09 44.42,26.09 	"/>
	<rect x="45.94" y="26.09" class="st1" width="0.98" height="5.01"/>
	<path class="st1" d="M49.32,26.09L47.4,31.1h1.02l0.28-0.8h1.83l0.28,0.8h1.02l-1.92-5.01H49.32z M49.02,29.38l0.6-1.71l0.6,1.71
		H49.02z"/>
	<polygon class="st1" points="55.38,29.75 53.6,26.09 52.45,26.09 52.45,31.09 53.35,31.09 53.35,27.48 55.13,31.09 56.29,31.09 
		56.29,26.09 55.38,26.09 	"/>
	<polygon class="st1" points="60.51,28.24 59.55,26.09 58.56,26.09 60.03,29.16 60.03,31.1 60.98,31.1 60.98,29.16 62.45,26.09 
		61.46,26.09 	"/>
	<polygon class="st1" points="63.21,26.09 62.86,26.09 62.86,31.1 63.21,31.1 63.81,31.1 66.22,31.1 66.22,30.19 63.81,30.19 
		63.81,29.06 65.84,29.06 65.84,28.15 63.81,28.15 63.81,27 66.22,27 66.22,26.09 63.81,26.09 	"/>
	<polygon class="st1" points="68.03,26.09 67.08,26.09 67.08,31.1 67.5,31.1 68.03,31.1 70.44,31.1 70.44,30.19 68.03,30.19 	"/>
	<polygon class="st1" points="72.07,26.09 71.12,26.09 71.12,31.1 71.55,31.1 72.07,31.1 74.48,31.1 74.48,30.19 72.07,30.19 	"/>
	<path class="st1" d="M77.72,26.27c-0.28-0.15-0.6-0.23-0.96-0.23c-0.36,0-0.68,0.08-0.96,0.23c-0.28,0.15-0.49,0.37-0.64,0.65
		c-0.15,0.28-0.23,0.6-0.23,0.97v1.42c0,0.37,0.08,0.69,0.23,0.97c0.15,0.28,0.37,0.5,0.64,0.65c0.28,0.15,0.6,0.23,0.96,0.23
		c0.36,0,0.68-0.08,0.96-0.23c0.28-0.15,0.49-0.37,0.64-0.65c0.15-0.28,0.23-0.6,0.23-0.97v-1.42c0-0.37-0.08-0.69-0.23-0.97
		C78.21,26.63,77.99,26.42,77.72,26.27z M77.61,29.33c0,0.17-0.04,0.33-0.11,0.46c-0.07,0.13-0.17,0.24-0.3,0.31
		s-0.28,0.11-0.45,0.11s-0.32-0.04-0.45-0.11s-0.23-0.17-0.3-0.31c-0.07-0.13-0.11-0.29-0.11-0.46v-1.47c0-0.17,0.04-0.33,0.11-0.46
		s0.17-0.24,0.3-0.31s0.28-0.11,0.45-0.11s0.32,0.04,0.45,0.11s0.23,0.18,0.3,0.31s0.11,0.29,0.11,0.46V29.33z"/>
	<polygon class="st1" points="83.36,29.43 82.4,26.09 81.64,26.09 80.68,29.43 80.04,26.09 79.07,26.09 80.22,31.1 81.11,31.1 
		82.04,27.6 82.93,31.1 83.82,31.1 84.97,26.09 84,26.09 	"/>
	<path class="st1" d="M90.18,26.3c-0.29-0.14-0.65-0.21-1.07-0.21H88.4h-0.47h-0.48v5.01h0.48h0.47h0.71c0.43,0,0.79-0.07,1.09-0.22
		s0.52-0.36,0.67-0.63c0.15-0.27,0.22-0.58,0.22-0.94v-1.42c0-0.38-0.08-0.7-0.23-0.97C90.7,26.64,90.47,26.44,90.18,26.3z
		 M90.1,29.33c0,0.27-0.08,0.48-0.25,0.63c-0.17,0.15-0.41,0.22-0.72,0.22H88.4V27h0.73c0.31,0,0.55,0.07,0.72,0.22
		s0.25,0.36,0.25,0.63V29.33z"/>
	<polygon class="st1" points="92.35,26.09 92.01,26.09 92.01,31.1 92.35,31.1 92.96,31.1 95.37,31.1 95.37,30.19 92.96,30.19 
		92.96,29.06 94.99,29.06 94.99,28.15 92.96,28.15 92.96,27 95.37,27 95.37,26.09 92.96,26.09 	"/>
	<polygon class="st1" points="97.17,26.09 96.23,26.09 96.23,31.1 96.65,31.1 97.17,31.1 99.58,31.1 99.58,30.19 97.17,30.19 	"/>
	<polygon class="st1" points="103.05,27 103.05,26.09 99.38,26.09 99.38,27 100.74,27 100.74,31.1 101.68,31.1 101.68,27 	"/>
	<path class="st1" d="M106.22,31.1h1.02l-1.92-5.01h-0.6l-1.92,5.01h1.02l0.28-0.8h1.83L106.22,31.1z M104.42,29.38l0.6-1.71
		l0.6,1.71H104.42z"/>
</g>
</svg>
