<?xml version="1.0" encoding="utf-8"?>
<!-- Generator: Adobe Illustrator 24.2.0, SVG Export Plug-In . SVG Version: 6.00 Build 0)  -->
<svg version="1.1" id="Layer_1" xmlns="http://www.w3.org/2000/svg" xmlns:xlink="http://www.w3.org/1999/xlink" x="0px" y="0px"
	 viewBox="0 0 499.2 509.56" style="enable-background:new 0 0 499.2 509.56;" xml:space="preserve">
<g>
	<g>
		<path d="M268.1,277.8c-74.4,0-134.9-60.5-134.9-134.9S193.7,8.1,268.1,8.1S403,68.6,403,142.9S342.5,277.8,268.1,277.8z
			 M268.1,9.1c-73.8,0-133.9,60.1-133.9,133.9s60,133.9,133.9,133.9S402,216.7,402,142.9S341.9,9.1,268.1,9.1z"/>
	</g>
	<g>
		<path d="M144.8,307.5C70.5,307.5,10,247,10,172.6S70.5,37.8,144.8,37.8s134.9,60.5,134.9,134.9S219.2,307.5,144.8,307.5z
			 M144.8,38.8C71,38.8,11,98.8,11,172.6s60.1,133.9,133.9,133.9s133.9-60.1,133.9-133.9C278.7,98.8,218.7,38.8,144.8,38.8z"/>
	</g>
	<g>
		<path d="M233.1,407.4c-74.4,0-134.9-60.5-134.9-134.9s60.5-134.9,134.9-134.9S368,198.1,368,272.5S307.5,407.4,233.1,407.4z
			 M233.1,138.6c-73.8,0-133.9,60.1-133.9,133.9s60.1,133.9,133.9,133.9S367,346.3,367,272.5S307,138.6,233.1,138.6z"/>
	</g>
</g>
<g>
	<path d="M141.1,28c12.1,0,24.2,1.5,35.8,4.6h0.1h0.1c18.1-16.3,40-27.4,63.4-32.6h-1.2c-23,5.3-44.5,16.3-62.5,32.3
		c-11.6-3-23.7-4.6-35.8-4.6c-19.2,0-37.8,3.8-55.3,11.2c-16.9,7.2-32.1,17.4-45.2,30.5S17.2,97.7,10,114.6
		c-5,12.1-8.4,24.7-10,37.6v2.3C7.7,83.5,68,28,141.1,28z"/>
	<path d="M56.6,284.3c11.8,8.7,24.8,15.5,38.6,20.3c6.5,31.5,23.9,60.2,48.9,80.8c12.5,10.3,26.4,18.3,41.5,23.8
		c15.6,5.7,32,8.6,48.8,8.6c19.2,0,37.8-3.8,55.3-11.2c16.9-7.2,32.1-17.4,45.2-30.5s23.3-28.3,30.5-45.2
		c7.4-17.5,11.2-36.1,11.2-55.3c0-12.3-1.6-24.6-4.7-36.4c13-13.1,23.3-28.2,30.5-45.2c7.4-17.5,11.2-36.2,11.2-55.4
		s-3.8-37.8-11.2-55.3C395.2,66.2,385,51,371.9,38s-28.3-23.3-45.2-30.5c-7.5-3.2-15.3-5.7-23.2-7.5h-1.3
		c63.5,14.1,111,70.9,111,138.5c0,37.9-14.8,73.6-41.6,100.4v0.1v0.1c3.1,11.9,4.7,24.1,4.7,36.4c0,78.3-63.7,141.9-141.9,141.9
		c-67,0-125.4-47.5-139-113v-0.1h-0.1C42.7,286.4,5.8,239.6,0,185.1v2.4c2.9,23.8,11.8,46.4,26.1,66
		C34.6,265.3,44.9,275.6,56.6,284.3z"/>
	<path d="M138.9,22c12.5,0,25,1.6,37,4.7h0.1h0.1C188.9,15.3,203.6,6.3,219.3,0h-0.7c-15.5,6.3-30,15.2-42.7,26.5
		c-12-3.1-24.5-4.7-37-4.7c-19.8,0-39.1,3.9-57.2,11.5c-17.5,7.4-33.2,18-46.7,31.5S11,94,3.6,111.5c-1.3,3.1-2.5,6.2-3.6,9.4v0.8
		C19.6,63.8,74.5,22,138.9,22z"/>
	<path d="M51.6,286.8c12.2,9,25.6,16.1,39.9,20.9c6.8,32.5,24.7,62.2,50.5,83.4c12.9,10.6,27.3,18.9,42.9,24.6
		c16.1,5.9,33.1,8.9,50.4,8.9c19.8,0,39.1-3.9,57.2-11.5c17.5-7.4,33.2-18,46.7-31.5s24.1-29.2,31.5-46.7
		c7.7-18.1,11.5-37.3,11.5-57.2c0-12.7-1.6-25.4-4.9-37.6c13.5-13.5,24.1-29.2,31.5-46.7c7.7-18.1,11.6-37.4,11.6-57.2
		s-3.9-39.1-11.5-57.2c-7.4-17.5-18-33.2-31.5-46.7S348.2,8.2,330.7,0.8c-0.7-0.3-1.5-0.6-2.2-0.9h-0.8
		c54.1,21.6,92.4,74.5,92.4,136.3c0,39.2-15.3,76.1-43,103.8v0.1v0.1c3.2,12.2,4.9,24.9,4.9,37.6c0,80.9-65.8,146.6-146.6,146.6
		c-69.2,0-129.6-49.1-143.6-116.8v-0.1h-0.1c-44-15-77.4-49.5-91.7-91.9v0.9c4.7,13.6,11.4,26.6,20.1,38.5
		C29,267.2,39.6,277.9,51.6,286.8z"/>
	<path d="M46.7,289.4c12.6,9.3,26.4,16.6,41.2,21.6c7,33.6,25.5,64.2,52.1,86.1c13.3,10.9,28.2,19.5,44.3,25.3
		c16.6,6.1,34.2,9.2,52.1,9.2c20.5,0,40.3-4,59-11.9c18-7.6,34.3-18.6,48.2-32.5c13.9-13.9,24.9-30.1,32.5-48.2
		c7.9-18.7,11.9-38.5,11.9-59c0-13.1-1.7-26.2-5-38.8c13.9-13.9,24.9-30.1,32.5-48.2c7.9-18.7,11.9-38.6,11.9-59.1s-4-40.3-11.9-59
		c-7.6-18-18.6-34.3-32.5-48.2C372.2,16,360,7,346.7,0H346c48.1,25.4,81,75.9,81,134c0,40.5-15.8,78.5-44.4,107.1v0.1v0.1
		c3.4,12.6,5,25.7,5,38.8c0,83.4-67.9,151.4-151.3,151.4c-71.4,0-133.8-50.7-148.2-120.5v-0.1H88c-39.6-13.5-70.9-42.3-88-78.4v0.6
		c3.9,8.2,8.7,16.1,14.1,23.6C23.3,269.1,34.2,280.2,46.7,289.4z"/>
	<path d="M136.8,16.1c12.9,0,25.8,1.6,38.2,4.9h0.1h0.1c9.3-8.3,19.4-15.3,30.2-21h-0.5c-10.6,5.6-20.7,12.6-29.8,20.7
		c-12.4-3.2-25.3-4.9-38.2-4.9c-20.5,0-40.3,4-59,11.9c-18.1,7.6-34.3,18.6-48.2,32.5C17.3,72.5,7.4,86.5,0,102v0.7
		C24.3,51.5,76.5,16.1,136.8,16.1z"/>
	<path d="M134.6,10.2c13.3,0,26.6,1.7,39.4,5h0.1h0.1c6.3-5.6,13-10.7,20.1-15.1h-0.5c-6.9,4.4-13.5,9.4-19.7,14.9
		c-12.8-3.3-26.1-5-39.4-5C113.5,9.9,93,14,73.8,22.2c-18.6,7.9-35.3,19.1-49.7,33.5C14.7,65.1,6.7,75.4,0,86.7v0.6
		C27.1,41.2,77.3,10.2,134.6,10.2z"/>
	<path d="M41.7,291.9c13,9.6,27.3,17.1,42.5,22.3c7.2,34.6,26.3,66.2,53.8,88.8c13.7,11.3,29.1,20.1,45.6,26.1
		c17.2,6.3,35.2,9.5,53.7,9.5c21.1,0,41.6-4.1,60.8-12.3c18.6-7.9,35.3-19.1,49.7-33.5s25.6-31.1,33.5-49.7
		c8.1-19.3,12.3-39.7,12.3-60.8c0-13.6-1.8-27-5.2-40.1c14.4-14.4,25.6-31.1,33.5-49.7c8.2-19.3,12.3-39.8,12.3-60.9
		s-4.1-41.6-12.3-60.8c-7.9-18.6-19.1-35.3-33.5-49.7c-8-8-16.8-15.1-26.3-21.2h-0.6c43.5,27.7,72.4,76.4,72.4,131.7
		c0,41.7-16.3,80.9-45.8,110.4v0.1v0.1c3.5,13,5.2,26.5,5.2,40.1c0,86-70,156.1-156.1,156.1c-73.6,0-137.9-52.3-152.8-124.3V314
		h-0.1C48,301.7,18.5,276.8,0,245.2v0.5c2.5,4.2,5.2,8.4,8.2,12.4C17.6,271.1,28.9,282.4,41.7,291.9z"/>
	<path d="M132.4,4.2c13.7,0,27.4,1.7,40.6,5.2h0.1h0.1c3.7-3.3,7.6-6.4,11.5-9.4h-0.4c-3.9,2.9-7.6,5.9-11.2,9.1
		C159.8,5.7,146.2,4,132.4,4c-21.7,0-42.8,4.3-62.7,12.6c-19.2,8.1-36.4,19.7-51.2,34.5C11.7,58,5.5,65.5,0,73.4V74
		C29,31.9,77.6,4.2,132.4,4.2z"/>
	<path d="M36.7,294.5c13.4,9.9,28.1,17.6,43.8,23c3.7,18,10.5,35.1,20.1,50.9c9.4,15.5,21.3,29.1,35.3,40.6
		c14.1,11.6,29.9,20.7,47,26.9c17.7,6.5,36.3,9.7,55.3,9.7c21.7,0,42.8-4.3,62.7-12.6c19.2-8.1,36.4-19.7,51.2-34.5
		c14.8-14.8,26.4-32,34.5-51.2c8.4-19.9,12.6-40.9,12.6-62.7c0-14-1.8-27.9-5.4-41.3c14.8-14.8,26.4-32,34.5-51.2
		c8.4-19.9,12.7-41,12.7-62.7s-4.3-42.8-12.6-62.7c-8.1-19.2-19.7-36.4-34.5-51.2c-5.7-5.7-11.7-10.9-18-15.6h-0.6
		c39.7,29.3,65.5,76.4,65.5,129.4c0,43-16.8,83.4-47.2,113.8v0.1v0.1c3.5,13.4,5.4,27.3,5.4,41.3c0,88.6-72.1,160.8-160.8,160.8
		c-75.9,0-142.1-53.8-157.4-128v-0.1h-0.1c-33.6-11.4-61.5-33.2-80.7-61v0.4c0.7,1,1.4,2.1,2.2,3.1C11.9,273,23.5,284.7,36.7,294.5z
		"/>
	<path d="M106.4,0h-1.8C91.3,2.1,78.3,5.7,65.8,11C46,19.4,28.3,31.3,13.1,46.6C8.4,51.2,4,56.1,0,61.3v0.5
		C25.7,29.1,63.4,6.2,106.4,0z"/>
	<path d="M172.1,3.6L172.1,3.6c1.4-1.3,2.8-2.4,4.2-3.6h-0.4c-1.3,1.1-2.6,2.2-3.9,3.3C166.7,2,161.3,0.8,155.8,0H154
		C160.1,0.9,166.1,2.1,172.1,3.6L172.1,3.6z"/>
	<path d="M31.8,297.1c13.8,10.2,28.9,18.1,45.1,23.6c3.8,18.5,10.8,36.1,20.7,52.3c9.7,15.9,21.9,30,36.3,41.8
		c14.5,12,30.8,21.3,48.4,27.7c18.2,6.6,37.3,10,56.9,10c22.4,0,44.1-4.4,64.5-13c19.7-8.4,37.5-20.3,52.7-35.5s27.2-33,35.5-52.7
		c8.6-20.4,13-42.1,13-64.5c0-14.4-1.9-28.7-5.5-42.5c15.2-15.2,27.2-32.9,35.5-52.7c8.7-20.4,13-42.2,13-64.6s-4.4-44.1-13-64.5
		c-8.4-19.7-20.3-37.5-35.5-52.7c-3.5-3.5-7.1-6.8-10.9-10H388c36.5,30.4,59.7,76.1,59.7,127.2c0,44.3-17.2,85.8-48.6,117.1v0.1v0.1
		c3.7,13.8,5.5,28.1,5.5,42.5c0,91.3-74.2,165.5-165.5,165.5C161,452.3,92.8,396.9,77,320.5v-0.1h-0.1c-31.2-10.6-57.6-29.9-77-54.6
		v0.4C9.2,277.9,19.8,288.2,31.8,297.1z"/>
	<path d="M77.5,0h-0.9c-5,1.6-10,3.4-14.8,5.5C41.5,14,23.2,26.3,7.6,42C5,44.6,2.4,47.3,0,50.1v0.5C20.5,27.2,47.2,9.5,77.5,0z"/>
	<path d="M26.8,299.6c14.1,10.5,29.8,18.6,46.3,24.3c3.9,19.1,11.1,37.2,21.3,53.8c10,16.4,22.5,30.8,37.3,43
		c14.9,12.3,31.7,21.9,49.8,28.5c18.7,6.8,38.4,10.3,58.5,10.3c23,0,45.3-4.5,66.3-13.4c20.3-8.6,38.5-20.9,54.2-36.5
		s28-33.9,36.5-54.2c8.9-21,13.4-43.3,13.4-66.4c0-14.8-1.9-29.5-5.7-43.7c15.7-15.6,28-33.9,36.5-54.2c8.9-21,13.4-43.4,13.4-66.4
		s-4.5-45.3-13.4-66.3c-8.6-20.3-20.9-38.5-36.5-54.2c-1.5-1.5-3-2.9-4.5-4.3h-0.5c33.6,31.1,54.7,75.6,54.7,124.9
		c0,45.5-17.7,88.3-49.9,120.4v0.1v0.1c3.8,14.2,5.7,28.9,5.7,43.7c0,93.9-76.4,170.2-170.2,170.2c-80.3,0-150.4-57-166.7-135.5
		v-0.1h-0.1c-29-9.9-54.1-27-73.3-49.1v0.3C8,284.1,17,292.4,26.8,299.6z"/>
	<path d="M58.3,0h-0.8C36.8,8.8,18.1,21.4,2.1,37.4c-0.7,0.7-1.4,1.4-2.1,2.1V40C16.4,23,36.2,9.3,58.3,0z"/>
	<path d="M21.9,302.2c14.5,10.8,30.6,19.2,47.6,25c4.1,19.6,11.4,38.2,21.9,55.3c10.3,16.8,23.2,31.7,38.4,44.2
		c15.4,12.6,32.6,22.5,51.1,29.3c19.2,7,39.5,10.6,60.1,10.6c23.6,0,46.6-4.6,68.2-13.8c20.9-8.8,39.6-21.5,55.7-37.5
		s28.7-34.8,37.5-55.7c9.1-21.6,13.8-44.5,13.8-68.2c0-15.2-2-30.3-5.8-44.9c16.1-16.1,28.7-34.8,37.6-55.7
		c9.1-21.6,13.8-44.6,13.8-68.2c0-23.7-4.6-46.6-13.8-68.2c-8.6-20.3-20.8-38.6-36.3-54.4h-0.5c31.1,31.6,50.3,74.9,50.3,122.6
		c0,46.8-18.2,90.7-51.3,123.8v0.1v0.1c3.9,14.6,5.8,29.7,5.8,44.9c0,96.4-78.5,174.9-174.9,174.9c-82.5,0-154.6-58.6-171.3-139.3
		V327h-0.1c-27-9.2-50.7-24.6-69.6-44.2v0.3C6.7,290,14,296.4,21.9,302.2z"/>
	<path d="M65.8,330.4c4.2,20.1,11.7,39.2,22.4,56.8c10.5,17.3,23.8,32.5,39.4,45.4c15.8,13,33.4,23.1,52.5,30.1
		c19.8,7.2,40.5,10.9,61.8,10.9c24.3,0,47.8-4.8,70-14.1c21.4-9.1,40.7-22,57.2-38.5s29.5-35.8,38.5-57.2
		c9.4-22.2,14.1-45.7,14.1-70c0-15.6-2-31.1-6-46.1c16.5-16.5,29.5-35.7,38.6-57.2c9.4-22.2,14.2-45.8,14.2-70.1s-4.8-47.8-14.1-70
		c-7.8-18.5-18.6-35.4-32-50.3h-0.5c28.8,31.9,46.4,74.1,46.4,120.3c0,48-18.7,93.2-52.7,127.1v0.1v0.1c4,15,6,30.5,6,46.1
		c0,99-80.6,179.6-179.6,179.6c-84.8,0-158.8-60.2-175.9-143v-0.1H66c-25.2-8.6-47.5-22.3-65.9-39.9v0.3c5.3,5.1,10.9,9.8,16.9,14.2
		C31.8,315.8,48.3,324.4,65.8,330.4z"/>
	<path d="M41.6,0C26.4,7.8,12.5,17.7,0,29.5V30C12.5,18.1,26.8,7.9,42.3,0H41.6z"/>
	<path d="M27.5,0C17.8,5.8,8.6,12.4,0,20v0.5C8.7,12.8,18.1,5.9,28.2,0H27.5L27.5,0z"/>
	<path d="M62.1,333.6c4.3,20.6,12,40.3,23,58.3c10.8,17.7,24.4,33.4,40.4,46.6c16.2,13.3,34.3,23.7,53.9,30.9
		c20.3,7.4,41.6,11.2,63.4,11.2c24.9,0,49.1-4.9,71.9-14.5c22-9.3,41.7-22.6,58.7-39.6s30.3-36.7,39.6-58.7
		c9.6-22.8,14.5-46.9,14.5-71.9c0-16-2.1-31.9-6.1-47.3c17-16.9,30.3-36.7,39.6-58.7c9.6-22.8,14.5-47,14.5-71.9
		s-4.9-49.1-14.5-71.8c-7.1-16.8-16.6-32.3-28.2-46.2h-0.5c26.8,32,42.9,73.2,42.9,118.1c0,49.3-19.2,95.6-54.1,130.5v0.1v0.1
		c4.1,15.4,6.1,31.3,6.1,47.3c0,101.6-82.7,184.4-184.3,184.4c-87,0-162.9-61.7-180.5-146.8v-0.1h-0.1c-23.4-8-44.5-20.3-62.3-36
		v0.2c3.8,3.4,7.8,6.6,11.9,9.6C27.3,318.7,44.1,327.5,62.1,333.6z"/>
	<path d="M14.6,0C9.6,3.3,4.7,6.9,0,10.7v0.4C4.9,7.2,9.9,3.5,15.2,0H14.6z"/>
	<path d="M58.4,336.9c4.4,21.2,12.3,41.3,23.6,59.8c11.1,18.2,25,34.2,41.5,47.8c16.6,13.7,35.2,24.3,55.3,31.6
		c20.8,7.6,42.7,11.5,65,11.5c25.6,0,50.3-5,73.7-14.9c22.5-9.5,42.8-23.2,60.2-40.6c17.4-17.4,31-37.6,40.6-60.2
		c9.9-23.3,14.9-48.1,14.9-73.7c0-16.4-2.1-32.8-6.3-48.5c17.4-17.4,31-37.6,40.6-60.2c9.9-23.4,14.9-48.2,14.9-73.8
		s-5-50.3-14.9-73.7c-6.5-15-14.7-29.1-24.7-42h-0.4c24.9,32,39.7,72.2,39.7,115.8c0,50.6-19.7,98.1-55.5,133.8v0.1v0.1
		c4.2,15.8,6.3,32.1,6.3,48.5c0,104.3-84.8,189.1-189.1,189.1c-89.2,0-167.1-63.3-185.1-150.5v-0.1h-0.1
		c-21.8-7.4-41.5-18.5-58.6-32.4v0.2c2.3,1.9,4.6,3.7,7,5.4C22.7,321.5,40,330.6,58.4,336.9z"/>
	<path d="M489.2,113.5c0-26.2-5.1-51.6-15.3-75.5c-5.7-13.5-12.9-26.2-21.4-38h-0.4C475.3,31.9,489,71.1,489,113.5
		c0,51.8-20.2,100.5-56.9,137.1v0.1v0.1c4.3,16.2,6.5,32.9,6.5,49.8c0,106.9-86.9,193.8-193.8,193.8C153.3,494.3,73.5,429.4,55,340
		v-0.1h-0.1C34.8,333,16.3,323.1,0,310.7v0.2c0.7,0.5,1.3,1,2,1.5c16.1,11.9,33.9,21.2,52.8,27.7c4.5,21.7,12.6,42.3,24.2,61.3
		c11.3,18.6,25.7,35.1,42.5,49c17,14,36.1,24.9,56.6,32.4c21.3,7.8,43.7,11.7,66.6,11.7c26.2,0,51.6-5.1,75.5-15.3
		c23.1-9.8,43.9-23.8,61.7-41.6s31.8-38.6,41.6-61.7c10.1-23.9,15.3-49.3,15.3-75.5c0-16.8-2.2-33.6-6.5-49.7
		c17.8-17.8,31.8-38.6,41.6-61.7C484.1,165.2,489.2,139.7,489.2,113.5z"/>
	<path d="M2.4,0C1.6,0.6,0.8,1.2,0,1.8v0.4C1,1.5,2,0.7,3,0H2.4z"/>
</g>
</svg>
