<?xml version="1.0" encoding="utf-8"?>
<!-- Generator: Adobe Illustrator 24.2.0, SVG Export Plug-In . SVG Version: 6.00 Build 0)  -->
<svg version="1.1" id="Layer_1" xmlns="http://www.w3.org/2000/svg" xmlns:xlink="http://www.w3.org/1999/xlink" x="0px" y="0px"
	 viewBox="0 0 126.35 27.62" style="enable-background:new 0 0 126.35 27.62;" xml:space="preserve">
<g>
	<g>
		<path d="M19.49,19.63h-2.42v-4.4c0-0.8,0.01-1.65,0.02-2.46c-0.35,1.99-0.77,4.34-1.23,6.66l-0.04,0.2h-2.22l-0.32-1.96
			c-0.25-1.53-0.5-3.11-0.73-4.52c0.01,0.77,0.02,1.55,0.02,2.27v4.21h-2.33V7.97h3.44l0.04,0.2c0.45,2.38,0.84,4.69,1.1,6.35
			c0.21-1.13,0.5-2.57,0.8-4.07c0.15-0.76,0.31-1.54,0.46-2.28l0.04-0.2h3.37V19.63z M17.57,19.13h1.42V8.47h-2.46
			c-0.14,0.68-0.28,1.39-0.42,2.08c-0.45,2.27-0.88,4.41-1.05,5.53l-0.03,0.21h-0.43l-0.05-0.22c-0.2-1.48-0.69-4.47-1.28-7.61
			h-2.53v10.66h1.33v-3.71c0-1.9-0.05-4.24-0.11-5.56L11.94,9.6h0.48l0.1,0.21c0.3,1.79,0.79,4.86,1.26,7.78l0.25,1.54h1.39
			c0.51-2.53,0.95-5.09,1.31-7.15c0.14-0.82,0.27-1.54,0.38-2.14l0.04-0.21h0.47l0.04,0.26c-0.03,1.22-0.07,3.41-0.07,5.34V19.13z"
			/>
	</g>
	<g>
		<path d="M24.36,19.82c-2.61,0-3.82-1.95-3.82-6.13c0-3.91,1.32-5.9,3.92-5.9c2.58,0,3.84,1.94,3.84,5.92
			C28.29,17.94,27.08,19.82,24.36,19.82z M24.45,8.29c-2.3,0-3.42,1.77-3.42,5.4c0,3.89,1.03,5.63,3.32,5.63
			c2.41,0,3.43-1.68,3.43-5.61C27.79,10.02,26.73,8.29,24.45,8.29z M24.41,18.15c-1.62,0-1.82-2.39-1.82-4.47
			c0-2.07,0.22-4.19,1.82-4.19c1.61,0,1.84,2.02,1.84,4.19C26.24,16.36,25.93,18.15,24.41,18.15z M24.41,9.98
			c-0.91,0-1.32,1.14-1.32,3.69c0,2.71,0.42,3.97,1.32,3.97c0.95,0,1.34-1.15,1.34-3.97C25.74,11.05,25.36,9.98,24.41,9.98z"/>
	</g>
	<g>
		<path d="M32.95,19.82c-2.47,0-3.68-1.27-3.68-3.88V7.97h2.5v7.93c0,1.57,0.69,1.75,1.21,1.75c0.85,0,1.19-0.5,1.19-1.74V7.97h2.5
			v7.97C36.68,18.52,35.42,19.82,32.95,19.82z M29.77,8.47v7.47c0,2.34,0.98,3.38,3.18,3.38c2.17,0,3.23-1.11,3.23-3.38V8.47h-1.5
			v7.44c0,0.55,0,2.24-1.69,2.24c-0.78,0-1.71-0.39-1.71-2.25V8.47H29.77z"/>
	</g>
	<g>
		<path d="M45.29,19.63h-2.6l-0.06-0.17c-1.3-3.58-2.01-5.56-2.42-6.7c0.02,1.04,0.02,2.18,0.02,3.36v3.5h-2.3V7.97h2.69l0.33,0.89
			c1.07,2.86,1.7,4.54,2.07,5.56C43,13.49,43,12.46,43,11.3V7.97h2.29V19.63z M43.04,19.13h1.75V8.47H43.5v2.83
			c0,1.93,0.01,3.5,0.1,4.79l0.02,0.27h-0.46l-0.06-0.19c-0.13-0.51-0.55-1.65-2.6-7.13l-0.21-0.57h-1.85v10.66h1.3v-3
			c0-1.85,0-3.6-0.08-5l-0.02-0.27h0.46l0.07,0.18C40.29,11.54,40.7,12.68,43.04,19.13z"/>
	</g>
	<g>
		<path d="M50.74,19.63h-2.5v-9.41h-2.38V7.97h7.27v2.25h-2.38V19.63z M48.74,19.13h1.5V9.72h2.38V8.47h-6.27v1.25h2.38V19.13z"/>
	</g>
	<g>
		<path d="M60.29,19.63h-2.62l-0.56-2.81h-2.17l-0.55,2.81h-2.52l0.07-0.31c0.03-0.12,2.56-11.05,2.58-11.16l0.04-0.19h2.99
			L60.29,19.63z M58.08,19.13h1.58l-2.5-10.66h-2.2l-1.25,5.39c-0.75,3.22-1.08,4.64-1.26,5.27h1.52l0.55-2.81h2.99L58.08,19.13z
			 M57.27,15.09h-2.48l0.28-1.38c0.32-1.58,0.57-2.83,0.68-3.67l0.03-0.22h0.43l0.08,0.21c0.11,0.69,0.29,1.6,0.52,2.74
			c0.12,0.6,0.26,1.27,0.4,2.01L57.27,15.09z M55.4,14.59h1.26c-0.12-0.62-0.24-1.19-0.34-1.71c-0.11-0.55-0.21-1.04-0.29-1.48
			c-0.13,0.68-0.29,1.49-0.47,2.41L55.4,14.59z"/>
	</g>
	<g>
		<path d="M63.17,19.63h-2.5V7.97h2.5V19.63z M61.17,19.13h1.5V8.47h-1.5V19.13z"/>
	</g>
	<g>
		<path d="M72,19.63h-2.6l-0.06-0.17c-1.3-3.58-2.01-5.56-2.42-6.71c0.02,1.04,0.02,2.18,0.02,3.37v3.5h-2.3V7.97h2.69l0.33,0.89
			c1.07,2.86,1.7,4.53,2.07,5.56c-0.02-0.93-0.02-1.96-0.02-3.12V7.97H72V19.63z M69.75,19.13h1.75V8.47h-1.29v2.83
			c0,1.92,0.01,3.5,0.1,4.79l0.02,0.27h-0.46l-0.06-0.19c-0.12-0.51-0.55-1.65-2.6-7.13l-0.21-0.57h-1.85v10.66h1.3v-3
			c0-1.85,0-3.6-0.08-5l-0.02-0.26h0.46l0.07,0.18C67.01,11.54,67.41,12.68,69.75,19.13z"/>
	</g>
	<g>
		<path d="M83.86,19.63h-2.6l-0.06-0.17c-1.3-3.57-2.01-5.56-2.42-6.7c0.02,1.04,0.02,2.18,0.02,3.36v3.5h-2.3V7.97h2.69l0.33,0.89
			c1.07,2.86,1.7,4.53,2.07,5.56c-0.02-0.91-0.02-1.93-0.02-3.12V7.97h2.29V19.63z M81.61,19.13h1.75V8.47h-1.29v2.83
			c0,2,0.01,3.51,0.1,4.79l0.02,0.27h-0.46l-0.06-0.19c-0.12-0.51-0.55-1.65-2.6-7.13l-0.21-0.57H77v10.66h1.3v-3
			c0-1.85,0-3.6-0.08-5l-0.02-0.27h0.46l0.07,0.18C78.86,11.54,79.27,12.68,81.61,19.13z"/>
	</g>
	<g>
		<path d="M88.72,19.82c-2.61,0-3.82-1.95-3.82-6.13c0-3.91,1.32-5.9,3.92-5.9c2.58,0,3.84,1.94,3.84,5.92
			C92.66,17.94,91.44,19.82,88.72,19.82z M88.82,8.29c-2.3,0-3.42,1.77-3.42,5.4c0,3.89,1.03,5.63,3.32,5.63
			c2.41,0,3.43-1.68,3.43-5.61C92.16,10.02,91.1,8.29,88.82,8.29z M88.77,18.15c-1.62,0-1.82-2.39-1.82-4.47
			c0-2.07,0.22-4.19,1.82-4.19c1.61,0,1.84,2.02,1.84,4.19C90.61,16.36,90.29,18.15,88.77,18.15z M88.77,9.98
			c-0.91,0-1.32,1.14-1.32,3.69c0,2.71,0.42,3.97,1.32,3.97c0.95,0,1.33-1.15,1.33-3.97C90.11,11.05,89.72,9.98,88.77,9.98z"/>
	</g>
	<g>
		<path d="M100.83,19.63h-2.41l-0.06-0.17c-0.18-0.56-0.2-1.5-0.2-2.43v-0.41c0-1.49-0.34-1.75-1.35-1.75h-0.61v4.76h-2.49V7.97
			h3.67c2.18,0,3.43,1.2,3.43,3.3c0,1.48-0.68,2.21-1.19,2.55c0.71,0.51,1.01,1.35,1.01,2.78v0.45c0,1.23,0.06,1.69,0.15,2.3
			L100.83,19.63z M98.8,19.13h1.45c-0.07-0.5-0.11-1.02-0.11-2.09V16.6c0-1.69-0.45-2.24-1.13-2.56l-0.53-0.25l0.54-0.21
			c0.3-0.12,1.29-0.64,1.29-2.31c0-1.83-1.01-2.8-2.93-2.8h-3.17v10.66h1.49v-4.76h1.11c1.55,0,1.85,0.82,1.85,2.25v0.41
			C98.67,17.78,98.68,18.61,98.8,19.13z M96.89,13.25h-1.19V9.59h1.38c1.12,0,1.73,0.63,1.73,1.77
			C98.82,12.65,98.21,13.25,96.89,13.25z M96.21,12.75h0.69c1.04,0,1.43-0.38,1.43-1.4c0-0.86-0.39-1.27-1.23-1.27h-0.88V12.75z"/>
	</g>
	<g>
		<path d="M105.95,19.63h-2.5v-9.41h-2.38V7.97h7.27v2.25h-2.38V19.63z M103.95,19.13h1.5V9.72h2.38V8.47h-6.27v1.25h2.38V19.13z"/>
	</g>
	<g>
		<path d="M116.12,19.63h-2.5v-5.01h-2.19v5.01h-2.5V7.97h2.5v4.41h2.19V7.97h2.5V19.63z M114.11,19.13h1.5V8.47h-1.5v4.41h-3.19
			V8.47h-1.5v10.66h1.5v-5.01h3.19V19.13z"/>
	</g>
</g>
</svg>
