<?xml version="1.0" encoding="utf-8"?>
<!-- Generator: Adobe Illustrator 24.2.0, SVG Export Plug-In . SVG Version: 6.00 Build 0)  -->
<svg version="1.1" id="Layer_1" xmlns="http://www.w3.org/2000/svg" xmlns:xlink="http://www.w3.org/1999/xlink" x="0px" y="0px"
	 viewBox="0 0 109.35 27.62" style="enable-background:new 0 0 109.35 27.62;" xml:space="preserve">
<g>
	<g>
		<path d="M12.77,19.22h-2.5V7.56h3.61c2.14,0,3.48,1.37,3.48,3.57c0,2.26-1.32,3.55-3.63,3.55h-0.95V19.22z M10.76,18.72h1.5v-4.54
			h1.45c2.02,0,3.13-1.08,3.13-3.05c0-1.92-1.11-3.07-2.98-3.07h-3.11V18.72z M13.49,13.08h-1.23v-3.9h1.33
			c1.09,0,1.74,0.72,1.74,1.92C15.34,12.43,14.74,13.08,13.49,13.08z M12.77,12.58h0.73c0.96,0,1.35-0.43,1.35-1.48
			c0-0.65-0.22-1.42-1.24-1.42h-0.83V12.58z"/>
	</g>
	<g>
		<path d="M24.21,19.22h-6.1V7.56h2.5v9.46h3.85L24.21,19.22z M18.61,18.72h5.15l0.14-1.21h-3.79V8.06h-1.5V18.72z"/>
	</g>
	<g>
		<path d="M32.95,19.22h-2.62l-0.56-2.81h-2.17l-0.55,2.81h-2.52l0.07-0.31c0.02-0.09,2.58-11.16,2.58-11.16l0.04-0.19h2.99
			L32.95,19.22z M30.75,18.72h1.58l-2.5-10.66h-2.2l-1.25,5.39c-0.75,3.22-1.08,4.64-1.26,5.27h1.52l0.55-2.81h2.99L30.75,18.72z
			 M29.93,14.68h-2.48l0.28-1.38c0.32-1.58,0.57-2.83,0.68-3.67l0.03-0.22h0.43l0.08,0.21c0.11,0.69,0.29,1.58,0.52,2.72
			c0.12,0.61,0.26,1.29,0.4,2.04L29.93,14.68z M28.06,14.18h1.26c-0.12-0.63-0.24-1.21-0.35-1.74c-0.11-0.54-0.2-1.02-0.29-1.45
			c-0.13,0.68-0.29,1.49-0.47,2.41L28.06,14.18z"/>
	</g>
	<g>
		<path d="M36.55,19.22h-2.5V9.81h-2.38V7.56h7.27v2.25h-2.38V19.22z M34.55,18.72h1.5V9.31h2.38V8.06h-6.27v1.25h2.38V18.72z"/>
	</g>
	<g>
		<path d="M45.73,19.22h-6.21V7.56h6.22v2.25h-3.75v2.22h3.58v2.23h-3.58V17h4.06L45.73,19.22z M40.02,18.72h5.28l0.17-1.22h-3.98
			v-3.74h3.58v-1.23h-3.58V9.31h3.75V8.06h-5.22V18.72z"/>
	</g>
	<g>
		<path d="M54.62,19.22H52l-0.56-2.81h-2.17l-0.55,2.81H46.2l2.7-11.66h2.99L54.62,19.22z M52.42,18.72h1.58L51.5,8.06h-2.2
			l-2.47,10.66h1.48l0.55-2.81h2.99L52.42,18.72z M51.6,14.68h-2.48l0.28-1.38c0.32-1.58,0.57-2.83,0.68-3.67l0.03-0.22h0.43
			l0.08,0.21c0.11,0.69,0.29,1.6,0.52,2.74c0.12,0.6,0.26,1.27,0.4,2.01L51.6,14.68z M49.73,14.18H51
			c-0.12-0.62-0.24-1.19-0.34-1.71c-0.11-0.55-0.21-1.04-0.29-1.48c-0.13,0.68-0.29,1.49-0.47,2.41L49.73,14.18z"/>
	</g>
	<g>
		<path d="M58.58,19.41c-2.47,0-3.68-1.27-3.68-3.88V7.56h2.5v7.93c0,1.57,0.69,1.75,1.21,1.75c0.85,0,1.19-0.5,1.19-1.74V7.56h2.5
			v7.97C62.31,18.11,61.05,19.41,58.58,19.41z M55.41,8.06v7.47c0,2.34,0.98,3.38,3.18,3.38c2.17,0,3.23-1.11,3.23-3.38V8.06h-1.5
			v7.44c0,0.55,0,2.24-1.69,2.24c-0.78,0-1.71-0.39-1.71-2.25V8.06H55.41z"/>
	</g>
	<g>
		<path d="M75.45,19.22h-2.39l-0.04-0.2c-0.14-0.74-0.3-1.59-0.47-2.47c-0.27-1.36-0.54-2.75-0.75-3.97
			c-0.28,1.56-0.66,3.41-0.98,4.97l-0.34,1.67H68.1l-0.04-0.2L65.87,7.56h2.65l0.03,0.21c0.43,2.76,0.74,4.97,0.93,6.61
			c0.2-1.1,0.45-2.35,0.68-3.57c0.22-1.1,0.43-2.17,0.59-3.06l0.04-0.2h2.19l0.04,0.2c0.09,0.48,0.2,1.06,0.33,1.67
			c0.31,1.57,0.67,3.43,0.93,4.96c0.16-1.16,0.36-2.46,0.55-3.65c0.17-1.12,0.34-2.16,0.45-2.97l0.03-0.22h2.51L75.45,19.22z
			 M73.48,18.72h1.56l2.17-10.66h-1.46c-0.11,0.77-0.26,1.74-0.42,2.76c-0.28,1.8-0.6,3.84-0.75,5.28l-0.02,0.22h-0.44l-0.06-0.22
			c-0.22-1.65-0.76-4.38-1.19-6.58c-0.1-0.53-0.2-1.03-0.29-1.47h-1.36c-0.16,0.84-0.35,1.83-0.55,2.86
			c-0.38,1.94-0.77,3.94-0.98,5.3l-0.03,0.21H69.2l-0.03-0.23c-0.12-1.59-0.48-4.33-1.07-8.14h-1.62l2.04,10.66h1.56l0.26-1.27
			c0.43-2.07,0.96-4.66,1.21-6.39l0.03-0.21h0.43l0.06,0.22c0.2,1.46,0.61,3.55,0.97,5.39C73.2,17.26,73.35,18.03,73.48,18.72z"/>
	</g>
	<g>
		<path d="M85.28,19.22h-2.62l-0.56-2.81h-2.17l-0.55,2.81h-2.52l2.7-11.66h2.99L85.28,19.22z M83.07,18.72h1.58l-2.5-10.66h-2.2
			l-2.47,10.66h1.48l0.55-2.81h2.99L83.07,18.72z M82.26,14.68h-2.48l0.28-1.38c0.32-1.58,0.57-2.83,0.68-3.67l0.03-0.22h0.43
			l0.08,0.21c0.11,0.68,0.29,1.57,0.51,2.69c0.12,0.62,0.26,1.3,0.41,2.06L82.26,14.68z M80.39,14.18h1.26
			c-0.13-0.64-0.24-1.23-0.35-1.76c-0.1-0.53-0.2-1-0.28-1.43c-0.13,0.68-0.29,1.49-0.47,2.41L80.39,14.18z"/>
	</g>
	<g>
		<path d="M91.76,19.22h-6.1V7.56h2.5v9.46h3.85L91.76,19.22z M86.16,18.72h5.15l0.14-1.21h-3.79V8.06h-1.5V18.72z"/>
	</g>
	<g>
		<path d="M98.57,19.22h-6.1V7.56h2.5v9.46h3.85L98.57,19.22z M92.97,18.72h5.15l0.14-1.21h-3.79V8.06h-1.5V18.72z"/>
	</g>
</g>
</svg>
