<?xml version="1.0" encoding="utf-8"?>
<!-- Generator: Adobe Illustrator 24.2.0, SVG Export Plug-In . SVG Version: 6.00 Build 0)  -->
<svg version="1.1" id="Layer_1" xmlns="http://www.w3.org/2000/svg" xmlns:xlink="http://www.w3.org/1999/xlink" x="0px" y="0px"
	 viewBox="0 0 127.47 27.62" style="enable-background:new 0 0 127.47 27.62;" xml:space="preserve">
<g>
	<g>
		<path d="M12.77,19.22h-2.5V7.56h3.61c2.14,0,3.48,1.37,3.48,3.57c0,2.26-1.32,3.55-3.63,3.55h-0.95V19.22z M10.76,18.72h1.5v-4.54
			h1.45c2.02,0,3.13-1.08,3.13-3.05c0-1.92-1.11-3.07-2.98-3.07h-3.11V18.72z M13.49,13.08h-1.23v-3.9h1.33
			c1.09,0,1.74,0.72,1.74,1.92C15.34,12.44,14.74,13.08,13.49,13.08z M12.77,12.58h0.73c0.96,0,1.35-0.43,1.35-1.48
			c0-0.65-0.22-1.42-1.24-1.42h-0.83V12.58z"/>
	</g>
	<g>
		<path d="M21.73,19.42c-2.61,0-3.82-1.95-3.82-6.13c0-3.91,1.32-5.9,3.92-5.9c2.58,0,3.84,1.94,3.84,5.92
			C25.66,17.53,24.45,19.42,21.73,19.42z M21.82,7.89c-2.3,0-3.42,1.77-3.42,5.4c0,3.89,1.03,5.63,3.32,5.63
			c2.41,0,3.43-1.68,3.43-5.61C25.16,9.61,24.1,7.89,21.82,7.89z M21.77,17.74c-1.62,0-1.82-2.39-1.82-4.47
			c0-2.07,0.22-4.19,1.82-4.19c1.62,0,1.84,2.02,1.84,4.19C23.61,15.95,23.3,17.74,21.77,17.74z M21.77,9.58
			c-0.91,0-1.32,1.14-1.32,3.69c0,2.71,0.42,3.97,1.32,3.97c0.95,0,1.34-1.15,1.34-3.97C23.11,10.65,22.72,9.58,21.77,9.58z"/>
	</g>
	<g>
		<path d="M32.82,19.22h-6.1V7.56h2.5v9.46h3.85L32.82,19.22z M27.22,18.72h5.15l0.14-1.21h-3.79V8.06h-1.5V18.72z"/>
	</g>
	<g>
		<path d="M36.03,19.22h-2.5V7.56h2.5V19.22z M34.03,18.72h1.5V8.06h-1.5V18.72z"/>
	</g>
	<g>
		<path d="M42.11,19.22h-2.72l-2.9-11.66h2.67l1.06,4.93c0.22,1.02,0.41,2,0.56,2.85c0.11-0.55,0.24-1.14,0.37-1.72
			c0.08-0.37,0.16-0.74,0.24-1.09l1.03-4.97h2.61L42.11,19.22z M39.77,18.72h1.94L44.4,8.06h-1.57l-0.95,4.58
			c-0.08,0.36-0.16,0.73-0.24,1.1c-0.25,1.13-0.51,2.3-0.61,3.15l-0.03,0.22h-0.45l-0.06-0.22c-0.12-1.05-0.4-2.61-0.76-4.28
			l-0.98-4.54h-1.63L39.77,18.72z"/>
	</g>
	<g>
		<path d="M47.97,19.22h-2.5V7.56h2.5V19.22z M45.97,18.72h1.5V8.06h-1.5V18.72z"/>
	</g>
	<g>
		<path d="M56.91,19.22H54.3l-0.56-2.81h-2.17l-0.55,2.81h-2.52l2.7-11.66h2.99L56.91,19.22z M54.71,18.72h1.58l-2.5-10.66h-2.2
			l-2.47,10.66h1.48l0.55-2.81h2.99L54.71,18.72z M53.89,14.68h-2.48l0.28-1.38c0.32-1.58,0.57-2.83,0.68-3.67l0.03-0.22h0.43
			l0.08,0.21c0.11,0.68,0.29,1.57,0.51,2.69c0.12,0.62,0.26,1.3,0.41,2.06L53.89,14.68z M52.02,14.18h1.26
			c-0.13-0.64-0.24-1.23-0.35-1.76c-0.1-0.53-0.2-1-0.28-1.43c-0.13,0.68-0.29,1.49-0.47,2.41L52.02,14.18z"/>
	</g>
	<g>
		<path d="M64.65,19.22h-2.6l-0.06-0.17c-1.3-3.58-2.01-5.56-2.42-6.7c0.02,1.04,0.02,2.18,0.02,3.36v3.5h-2.3V7.56h2.69l0.33,0.89
			c1.07,2.86,1.7,4.53,2.07,5.56c-0.02-0.91-0.02-1.93-0.02-3.12V7.56h2.29V19.22z M62.4,18.72h1.75V8.06h-1.29v2.83
			c0,2,0.01,3.51,0.1,4.79l0.02,0.27h-0.46l-0.06-0.19c-0.12-0.51-0.55-1.65-2.6-7.13l-0.21-0.57H57.8v10.66h1.3v-3
			c0-1.85,0-3.6-0.08-5l-0.02-0.27h0.46l0.07,0.18C59.66,11.13,60.06,12.28,62.4,18.72z"/>
	</g>
	<g>
		<path d="M72.16,19.22h-3V7.56h3.16c2.89,0,4.24,1.78,4.24,5.6C76.55,17.35,75.19,19.22,72.16,19.22z M69.65,18.72h2.5
			c2.73,0,3.89-1.66,3.89-5.56c0-3.53-1.15-5.1-3.74-5.1h-2.66V18.72z M72.13,17.59h-0.96V9.23h0.98c1.94,0,2.33,1.58,2.33,3.95
			C74.48,15.82,74.08,17.59,72.13,17.59z M71.67,17.09h0.46c1.17,0,1.85-0.64,1.85-3.92c0-2.58-0.46-3.45-1.83-3.45h-0.48V17.09z"/>
	</g>
	<g>
		<path d="M83.81,19.22H77.6V7.56h6.22v2.25h-3.75v2.22h3.58v2.23h-3.58V17h4.06L83.81,19.22z M78.1,18.72h5.28l0.17-1.22h-3.98
			v-3.74h3.58v-1.23h-3.58V9.31h3.75V8.06H78.1V18.72z"/>
	</g>
	<g>
		<path d="M88.09,19.41c-2.27,0-3.57-1.26-3.67-3.55l-0.01-0.26h2.47l0.02,0.22c0.16,1.52,0.97,1.52,1.24,1.52
			c0.74,0,1.1-0.39,1.1-1.2c0-0.71-0.27-1.2-1.72-1.9c-1.82-0.86-2.8-1.69-2.8-3.59c0-1.98,1.34-3.26,3.42-3.26
			c2.9,0,3.38,2.13,3.41,3.4l0.01,0.26h-2.44l-0.02-0.23c-0.1-0.96-0.38-1.35-0.99-1.35c-0.59,0-0.89,0.34-0.89,1.02
			c0,0.64,0.22,0.96,1.52,1.56c1.93,0.89,3.05,1.82,3.05,3.92C91.78,17.63,90.81,19.41,88.09,19.41z M84.94,16.1
			c0.12,1.34,0.79,2.82,3.15,2.82c2,0,3.19-1.1,3.19-2.95c0-1.64-0.7-2.51-2.76-3.47c-1.25-0.58-1.81-1.01-1.81-2.01
			c0-0.95,0.52-1.52,1.39-1.52c1.14,0,1.38,1,1.46,1.58h1.47c-0.09-1.27-0.7-2.65-2.9-2.65c-1.8,0-2.92,1.06-2.92,2.76
			c0,1.49,0.59,2.23,2.52,3.14c1.48,0.71,2,1.32,2,2.35c0,1.08-0.58,1.7-1.6,1.7c-0.67,0-1.48-0.31-1.71-1.74H84.94z"/>
	</g>
	<g>
		<path d="M98.88,19.22h-6.21V7.56h6.22v2.25h-3.75v2.22h3.58v2.23h-3.58V17h4.06L98.88,19.22z M93.17,18.72h5.28l0.17-1.22h-3.98
			v-3.74h3.58v-1.23h-3.58V9.31h3.75V8.06h-5.22V18.72z"/>
	</g>
	<g>
		<path d="M106.99,19.22h-2.41l-0.06-0.17c-0.18-0.56-0.2-1.5-0.2-2.43v-0.41c0-1.49-0.34-1.75-1.35-1.75h-0.61v4.76h-2.49V7.56
			h3.67c2.18,0,3.43,1.2,3.43,3.3c0,1.48-0.68,2.21-1.19,2.55c0.71,0.51,1.01,1.35,1.01,2.78v0.45c0,1.23,0.06,1.69,0.15,2.3
			L106.99,19.22z M104.96,18.72h1.45c-0.07-0.5-0.11-1.02-0.11-2.09v-0.45c0-1.69-0.45-2.24-1.13-2.56l-0.53-0.25l0.54-0.21
			c0.3-0.12,1.29-0.64,1.29-2.31c0-1.83-1.01-2.8-2.93-2.8h-3.17v10.66h1.49v-4.76h1.11c1.55,0,1.85,0.82,1.85,2.25v0.41
			C104.82,17.38,104.84,18.2,104.96,18.72z M103.05,12.85h-1.19V9.18h1.38c1.12,0,1.73,0.63,1.73,1.77
			C104.98,12.24,104.36,12.85,103.05,12.85z M102.36,12.35h0.69c1.04,0,1.43-0.38,1.43-1.4c0-0.86-0.39-1.27-1.23-1.27h-0.88V12.35z
			"/>
	</g>
	<g>
		<path d="M112.11,19.22h-2.5V9.81h-2.38V7.56h7.27v2.25h-2.38V19.22z M110.11,18.72h1.5V9.31h2.38V8.06h-6.27v1.25h2.38V18.72z"/>
	</g>
</g>
</svg>
