<?xml version="1.0" encoding="utf-8"?>
<!-- Generator: Adobe Illustrator 24.2.0, SVG Export Plug-In . SVG Version: 6.00 Build 0)  -->
<svg version="1.1" id="Layer_1" xmlns="http://www.w3.org/2000/svg" xmlns:xlink="http://www.w3.org/1999/xlink" x="0px" y="0px"
	 viewBox="0 0 119.24 27.62" style="enable-background:new 0 0 119.24 27.62;" xml:space="preserve">
<g>
	<g>
		<path d="M15.12,19.08h-2.5V9.67h-2.39V7.42h7.27v2.25h-2.38V19.08z M13.12,18.58h1.5V9.17H17V7.92h-6.27v1.25h2.39V18.58z"/>
	</g>
	<g>
		<path d="M25.19,19.09h-2.4l-0.05-0.17c-0.18-0.57-0.2-1.5-0.2-2.43v-0.41c0-1.5-0.34-1.75-1.35-1.75h-0.61v4.76h-2.49V7.42h3.67
			c2.18,0,3.43,1.2,3.43,3.3c0,1.48-0.68,2.21-1.19,2.55C24.7,13.78,25,14.62,25,16.05v0.45c0,1.23,0.06,1.69,0.15,2.3L25.19,19.09z
			 M23.16,18.59h1.45c-0.07-0.51-0.11-1.02-0.11-2.09v-0.45c0-1.69-0.45-2.25-1.13-2.56l-0.53-0.25l0.54-0.21
			c0.3-0.12,1.29-0.63,1.29-2.31c0-1.83-1.01-2.8-2.93-2.8h-3.17v10.66h1.49v-4.76h1.11c1.55,0,1.85,0.83,1.85,2.25v0.41
			C23.03,17.24,23.05,18.06,23.16,18.59z M21.26,12.7h-0.94v-0.25h-0.24V9.03h1.38c1.12,0,1.73,0.63,1.73,1.77
			C23.19,12.1,22.58,12.7,21.26,12.7z M20.58,12.2h0.68c1.04,0,1.43-0.38,1.43-1.4c0-0.87-0.39-1.27-1.23-1.27h-0.88V12.2z"/>
	</g>
	<g>
		<path d="M28.7,19.08h-2.5V7.42h2.5V19.08z M26.7,18.58h1.5V7.92h-1.5V18.58z"/>
	</g>
	<g>
		<path d="M39.47,19.08h-2.42l-0.02-4.4c0-0.79,0.01-1.64,0.01-2.46c-0.34,1.97-0.76,4.35-1.23,6.66l-0.04,0.2h-2.22l-0.12-0.76
			c-0.3-1.88-0.63-3.92-0.91-5.69c0.01,0.75,0.02,1.52,0.02,2.24v4.21h-2.33V7.42h3.45l0.04,0.2c0.42,2.24,0.83,4.6,1.1,6.36
			c0.2-1.1,0.48-2.48,0.77-3.91c0.16-0.82,0.33-1.65,0.49-2.45l0.04-0.2h3.38V19.08z M37.55,18.58h1.42V7.92h-2.46
			c-0.15,0.74-0.3,1.5-0.45,2.25c-0.44,2.2-0.85,4.27-1.02,5.37L35,15.75h-0.43l-0.05-0.22c-0.23-1.69-0.74-4.73-1.28-7.61h-2.53
			v10.66h1.33v-3.71c0-1.94-0.05-4.27-0.12-5.56l-0.01-0.26h0.48l0.09,0.21c0.34,2.04,0.93,5.73,1.45,8.98l0.05,0.34h1.38
			c0.49-2.42,0.92-4.9,1.26-6.89c0.16-0.92,0.3-1.74,0.42-2.4l0.04-0.2h0.47l0.04,0.26c-0.04,1.25-0.07,3.31-0.07,5.09h0.02V18.58z"
			/>
	</g>
	<g>
		<path d="M43.37,19.08h-2.5V7.42h2.5V19.08z M41.37,18.58h1.5V7.92h-1.5V18.58z"/>
	</g>
	<g>
		<path d="M47.87,19.26c-2.27,0-3.57-1.26-3.67-3.56l-0.01-0.26h2.49v0.25c0.17,1.5,0.97,1.5,1.24,1.5c0.74,0,1.1-0.39,1.1-1.2
			c0-0.71-0.27-1.2-1.72-1.89c-1.82-0.87-2.8-1.7-2.8-3.6c0-1.98,1.34-3.26,3.42-3.26c2.91,0,3.38,2.13,3.41,3.39l0.01,0.26h-2.44
			l-0.02-0.23c-0.09-0.96-0.38-1.35-0.99-1.35c-0.22,0-0.89,0-0.89,1.02c0,0.64,0.22,0.96,1.53,1.56c1.93,0.9,3.04,1.82,3.04,3.92
			C51.56,17.48,50.59,19.26,47.87,19.26z M44.72,15.94c0.16,1.87,1.22,2.82,3.15,2.82c2,0,3.19-1.1,3.19-2.95
			c0-1.65-0.67-2.49-2.76-3.46c-1.25-0.58-1.81-1.01-1.81-2.02c0-0.97,0.51-1.52,1.39-1.52c1.14,0,1.39,1.02,1.46,1.58h1.47
			c-0.09-1.26-0.69-2.65-2.9-2.65C46.09,7.74,45,8.77,45,10.5c0,1.49,0.59,2.23,2.52,3.14c1.48,0.7,2,1.32,2,2.35
			c0,1.08-0.58,1.7-1.6,1.7c-0.67,0-1.49-0.31-1.71-1.75H44.72z"/>
	</g>
	<g>
		<path d="M56.5,19.08H54V9.67h-2.39V7.42h7.27v2.25H56.5V19.08z M54.5,18.58H56V9.17h2.38V7.92h-6.27v1.25h2.39V18.58z"/>
	</g>
	<g>
		<path d="M65.67,19.08h-6.22V7.42h6.22v2.25h-3.75v2.22h3.58v1.98h-0.24l-0.01,0.25h-3.32v2.74h4.06L65.67,19.08z M59.95,18.58
			h5.28l0.18-1.22h-3.98v-3.74H65v-1.23h-3.58V9.17h3.75V7.92h-5.22V18.58z"/>
	</g>
	<g>
		<path d="M69.79,19.27c-3.07,0-3.42-3.4-3.42-5.95c0-4.03,1.35-6.08,4.02-6.08c2.13,0,3.37,1.24,3.47,3.49l0.01,0.26h-2.47
			l-0.01-0.23C71.33,9.84,71,9.43,70.33,9.43c-0.96,0-1.4,1.23-1.4,3.88c0,2.76,0.36,3.78,1.33,3.78c0.72,0,1.13-0.36,1.13-2.21
			V14.5h-1.5v-2.21h3.99v6.79h-1.99l-0.03-0.21c-0.02-0.11-0.03-0.21-0.04-0.32C71.19,19.18,70.39,19.27,69.79,19.27z M70.39,7.74
			c-2.37,0-3.52,1.83-3.52,5.58c0,3.77,0.9,5.45,2.92,5.45c1,0,1.6-0.3,2-1.01l0.42-0.74l0.05,0.85c0.02,0.28,0.04,0.49,0.07,0.71
			h1.05v-5.79h-2.99V14h1.5v0.88c0,1.41-0.2,2.71-1.63,2.71c-1.69,0-1.83-2.21-1.83-4.28c0-2.04,0.22-4.38,1.9-4.38
			c0.89,0,1.41,0.52,1.54,1.56h1.48C73.22,9.18,72.58,7.74,70.39,7.74z"/>
	</g>
	<g>
		<path d="M78.77,19.27c-2.48,0-3.68-1.27-3.68-3.88V7.42h2.51v7.93c0,1.75,0.91,1.75,1.21,1.75c0.85,0,1.19-0.5,1.19-1.74V7.42h2.5
			v7.97C82.5,17.96,81.25,19.27,78.77,19.27z M75.59,7.92v7.47c0,2.34,0.98,3.38,3.18,3.38c2.17,0,3.23-1.11,3.23-3.38V7.92h-1.5
			v7.44c0,0.55,0,2.24-1.69,2.24c-0.78,0-1.71-0.39-1.71-2.25V7.92H75.59z"/>
	</g>
	<g>
		<path d="M90.86,19.09h-2.4l-0.05-0.18c-0.18-0.56-0.2-1.5-0.2-2.43v-0.41c0-1.5-0.34-1.75-1.35-1.75h-0.61v4.76h-2.49V7.42h3.67
			c2.18,0,3.43,1.2,3.43,3.3c0,1.48-0.68,2.21-1.19,2.55c0.71,0.51,1.01,1.35,1.01,2.78v0.45c0,1.23,0.06,1.69,0.15,2.3L90.86,19.09
			z M88.83,18.59h1.45c-0.07-0.52-0.11-1.02-0.11-2.09v-0.45c0-1.69-0.45-2.25-1.13-2.56l-0.53-0.25l0.54-0.21
			c0.3-0.12,1.29-0.63,1.29-2.31c0-1.83-1.01-2.8-2.93-2.8h-3.17v10.66h1.49v-4.76h1.11c1.55,0,1.85,0.83,1.85,2.25v0.41
			C88.7,17.24,88.72,18.06,88.83,18.59z M86.93,12.7h-0.94v-0.25h-0.24V9.03h1.38c1.12,0,1.73,0.63,1.73,1.77
			C88.86,12.1,88.25,12.7,86.93,12.7z M86.25,12.2h0.68c1.04,0,1.43-0.38,1.43-1.4c0-0.87-0.39-1.27-1.23-1.27h-0.88V12.2z"/>
	</g>
	<g>
		<path d="M95.4,19.27c-2.61,0-3.82-1.95-3.82-6.13c0-3.92,1.32-5.9,3.92-5.9c2.58,0,3.83,1.94,3.83,5.92
			C99.33,17.39,98.12,19.27,95.4,19.27z M95.5,7.74c-2.3,0-3.42,1.77-3.42,5.4c0,3.89,1.02,5.63,3.32,5.63
			c2.4,0,3.43-1.68,3.43-5.61C98.83,9.46,97.77,7.74,95.5,7.74z M95.44,17.59c-1.61,0-1.82-2.39-1.82-4.47
			c0-2.07,0.22-4.19,1.82-4.19c1.62,0,1.84,2.01,1.84,4.19C97.28,15.8,96.97,17.59,95.44,17.59z M95.44,9.43
			c-0.91,0-1.32,1.14-1.32,3.69c0,2.71,0.42,3.97,1.32,3.97c0.95,0,1.34-1.15,1.34-3.97C96.78,10.5,96.39,9.43,95.44,9.43z"/>
	</g>
	<g>
		<path d="M103.46,19.26c-2.27,0-3.57-1.26-3.67-3.56l-0.01-0.26h2.49v0.25c0.17,1.5,0.97,1.5,1.24,1.5c0.74,0,1.1-0.39,1.1-1.2
			c0-0.71-0.27-1.2-1.72-1.89c-1.82-0.87-2.8-1.7-2.8-3.6c0-1.98,1.34-3.26,3.42-3.26c2.91,0,3.38,2.13,3.41,3.39l0,0.26h-2.44
			l-0.02-0.23c-0.09-0.96-0.38-1.35-0.99-1.35c-0.22,0-0.89,0-0.89,1.02c0,0.64,0.22,0.96,1.53,1.56c1.93,0.9,3.04,1.82,3.04,3.92
			C107.15,17.48,106.18,19.26,103.46,19.26z M100.31,15.94c0.16,1.87,1.22,2.82,3.15,2.82c2,0,3.19-1.1,3.19-2.95
			c0-1.65-0.67-2.49-2.76-3.46c-1.25-0.58-1.81-1.01-1.81-2.02c0-0.97,0.51-1.52,1.39-1.52c1.14,0,1.39,1.02,1.46,1.58h1.47
			c-0.09-1.26-0.69-2.65-2.9-2.65c-1.83,0-2.92,1.03-2.92,2.76c0,1.49,0.59,2.23,2.52,3.14c1.48,0.7,2,1.32,2,2.35
			c0,1.08-0.58,1.7-1.6,1.7c-0.67,0-1.48-0.31-1.71-1.75H100.31z"/>
	</g>
</g>
</svg>
