<?xml version="1.0" encoding="utf-8"?>
<!-- Generator: Adobe Illustrator 24.2.0, SVG Export Plug-In . SVG Version: 6.00 Build 0)  -->
<svg version="1.1" id="Layer_1" xmlns="http://www.w3.org/2000/svg" xmlns:xlink="http://www.w3.org/1999/xlink" x="0px" y="0px"
	 viewBox="0 0 124.06 27.62" style="enable-background:new 0 0 124.06 27.62;" xml:space="preserve">
<g>
	<g>
		<path d="M15.11,19.07h-2.5V9.65h-2.38V7.41h7.27v2.25h-2.38V19.07z M13.11,18.57h1.5V9.15h2.38V7.91h-6.27v1.25h2.38V18.57z"/>
	</g>
	<g>
		<path d="M25.19,19.07h-2.41l-0.06-0.17c-0.18-0.56-0.2-1.5-0.2-2.43v-0.41c0-1.49-0.34-1.75-1.35-1.75h-0.61v4.76h-2.49V7.41h3.67
			c2.18,0,3.43,1.2,3.43,3.3c0,1.48-0.68,2.21-1.19,2.55C24.7,13.76,25,14.61,25,16.03v0.45c0,1.24,0.06,1.69,0.15,2.3L25.19,19.07z
			 M23.16,18.57h1.45c-0.07-0.5-0.11-1.02-0.11-2.09v-0.45c0-1.69-0.45-2.24-1.13-2.56l-0.52-0.25l0.54-0.21
			c0.3-0.12,1.29-0.64,1.29-2.31c0-1.83-1.01-2.8-2.93-2.8h-3.17v10.66h1.49v-4.76h1.11c1.55,0,1.85,0.82,1.85,2.25v0.41
			C23.03,17.22,23.05,18.04,23.16,18.57z M21.25,12.69h-1.19V9.02h1.38c1.12,0,1.73,0.63,1.73,1.77
			C23.18,12.09,22.57,12.69,21.25,12.69z M20.57,12.19h0.69c1.04,0,1.43-0.38,1.43-1.4c0-0.86-0.39-1.27-1.23-1.27h-0.88V12.19z"/>
	</g>
	<g>
		<path d="M29.73,19.26c-2.61,0-3.82-1.95-3.82-6.13c0-3.91,1.32-5.9,3.92-5.9c2.58,0,3.84,1.94,3.84,5.92
			C33.66,17.37,32.44,19.26,29.73,19.26z M29.82,7.73c-2.3,0-3.42,1.77-3.42,5.4c0,3.89,1.03,5.63,3.32,5.63
			c2.41,0,3.43-1.68,3.43-5.61C33.16,9.45,32.1,7.73,29.82,7.73z M29.77,17.58c-1.62,0-1.82-2.39-1.82-4.47
			c0-2.07,0.22-4.19,1.82-4.19c1.61,0,1.84,2.02,1.84,4.19C31.61,15.8,31.3,17.58,29.77,17.58z M29.77,9.42
			c-0.91,0-1.32,1.14-1.32,3.69c0,2.71,0.42,3.97,1.32,3.97c0.95,0,1.34-1.15,1.34-3.97C31.11,10.49,30.72,9.42,29.77,9.42z"/>
	</g>
	<g>
		<path d="M37.22,19.07h-2.5V7.41h3.61c2.14,0,3.47,1.37,3.47,3.57c0,2.26-1.32,3.55-3.63,3.55h-0.95V19.07z M35.22,18.57h1.5v-4.54
			h1.45c2.02,0,3.13-1.08,3.13-3.05c0-1.92-1.11-3.07-2.97-3.07h-3.11V18.57z M37.95,12.92h-1.23v-3.9h1.33
			c1.09,0,1.74,0.72,1.74,1.92C39.8,12.28,39.19,12.92,37.95,12.92z M37.22,12.42h0.73c0.96,0,1.35-0.43,1.35-1.48
			c0-0.65-0.22-1.42-1.24-1.42h-0.83V12.42z"/>
	</g>
	<g>
		<path d="M45.07,19.07h-2.5V7.41h2.5V19.07z M43.07,18.57h1.5V7.91h-1.5V18.57z"/>
	</g>
	<g>
		<path d="M49.94,19.26c-3.79,0-3.79-3.93-3.79-6.04c0-3.98,1.31-5.99,3.91-5.99c1.5,0,3.33,0.64,3.48,3.67l0.01,0.26h-2.47
			l-0.02-0.3c-0.05-0.71-0.21-1.44-1.04-1.44c-0.93,0-1.31,1.11-1.31,3.84c0,2.65,0.39,3.83,1.25,3.83c0.81,0,1-0.75,1.08-1.49
			l0.02-0.22l0.23-0.06h2.26l-0.02,0.27l-0.25-0.02l0.25,0.04C53.34,17.96,52.06,19.26,49.94,19.26z M50.06,7.73
			c-2.29,0-3.41,1.8-3.41,5.49c0,3.42,0.55,5.54,3.29,5.54c1.78,0,2.84-1.02,3.08-2.94h-1.49c-0.09,0.64-0.35,1.78-1.56,1.78
			c-1.55,0-1.75-2.19-1.75-4.33c0-2.1,0.14-4.34,1.81-4.34c0.89,0,1.4,0.58,1.52,1.74h1.48C52.85,8.71,51.85,7.73,50.06,7.73z"/>
	</g>
	<g>
		<path d="M62.03,19.07h-2.62l-0.56-2.81h-2.17l-0.55,2.81H53.6l0.07-0.31c0.03-0.12,2.56-11.05,2.58-11.16l0.04-0.19h2.99
			L62.03,19.07z M59.82,18.57h1.58L58.9,7.91h-2.2l-1.25,5.39c-0.75,3.22-1.08,4.64-1.26,5.27h1.52l0.55-2.81h2.99L59.82,18.57z
			 M59.01,14.52h-2.48l0.28-1.38c0.32-1.58,0.57-2.83,0.68-3.67l0.03-0.22h0.43l0.08,0.21c0.11,0.69,0.29,1.6,0.52,2.74
			c0.12,0.6,0.26,1.27,0.4,2.01L59.01,14.52z M57.14,14.02h1.26c-0.12-0.62-0.24-1.19-0.34-1.71c-0.11-0.55-0.21-1.04-0.29-1.48
			c-0.13,0.68-0.29,1.49-0.47,2.41L57.14,14.02z"/>
	</g>
	<g>
		<path d="M68.51,19.07h-6.1V7.41h2.5v9.46h3.85L68.51,19.07z M62.91,18.57h5.15l0.14-1.21h-3.79V7.91h-1.5V18.57z"/>
	</g>
	<g>
		<path d="M75.34,19.26c-2.27,0-3.57-1.26-3.67-3.55l-0.01-0.26h2.48l0.02,0.22c0.16,1.52,0.97,1.52,1.24,1.52
			c0.74,0,1.1-0.39,1.1-1.2c0-0.71-0.27-1.2-1.72-1.9c-1.82-0.86-2.8-1.69-2.8-3.59c0-1.98,1.34-3.26,3.42-3.26
			c2.9,0,3.38,2.13,3.41,3.4l0.01,0.26h-2.44l-0.02-0.23c-0.1-0.96-0.38-1.35-0.99-1.35c-0.59,0-0.89,0.34-0.89,1.02
			c0,0.64,0.22,0.96,1.52,1.56c1.93,0.89,3.05,1.82,3.05,3.92C79.04,17.47,78.07,19.26,75.34,19.26z M72.19,15.94
			c0.12,1.34,0.79,2.82,3.15,2.82c2,0,3.19-1.1,3.19-2.95c0-1.64-0.7-2.51-2.76-3.47c-1.25-0.58-1.81-1.01-1.81-2.01
			c0-0.95,0.52-1.52,1.39-1.52c1.14,0,1.39,1,1.46,1.58h1.47c-0.09-1.27-0.7-2.65-2.9-2.65c-1.8,0-2.92,1.06-2.92,2.76
			c0,1.49,0.59,2.23,2.52,3.14c1.48,0.71,2,1.32,2,2.35c0,1.08-0.58,1.7-1.6,1.7c-0.67,0-1.49-0.31-1.71-1.74H72.19z"/>
	</g>
	<g>
		<path d="M83.4,19.26c-2.61,0-3.82-1.95-3.82-6.13c0-3.91,1.32-5.9,3.92-5.9c2.58,0,3.84,1.94,3.84,5.92
			C87.34,17.37,86.12,19.26,83.4,19.26z M83.5,7.73c-2.3,0-3.42,1.77-3.42,5.4c0,3.89,1.03,5.63,3.32,5.63
			c2.41,0,3.43-1.68,3.43-5.61C86.84,9.45,85.77,7.73,83.5,7.73z M83.45,17.58c-1.62,0-1.82-2.39-1.82-4.47
			c0-2.07,0.22-4.19,1.82-4.19c1.62,0,1.84,2.02,1.84,4.19C85.29,15.8,84.97,17.58,83.45,17.58z M83.45,9.42
			c-0.91,0-1.32,1.14-1.32,3.69c0,2.71,0.42,3.97,1.32,3.97c0.95,0,1.34-1.15,1.34-3.97C84.79,10.49,84.4,9.42,83.45,9.42z"/>
	</g>
	<g>
		<path d="M91.99,19.26c-2.47,0-3.68-1.27-3.68-3.88V7.41h2.5v7.93c0,1.57,0.69,1.75,1.21,1.75c0.85,0,1.19-0.5,1.19-1.74V7.41h2.5
			v7.97C95.72,17.95,94.47,19.26,91.99,19.26z M88.82,7.91v7.47c0,2.34,0.98,3.38,3.18,3.38c2.17,0,3.23-1.11,3.23-3.38V7.91h-1.5
			v7.44c0,0.55,0,2.24-1.69,2.24c-0.78,0-1.71-0.39-1.71-2.25V7.91H88.82z"/>
	</g>
	<g>
		<path d="M101.08,19.07h-2.5V9.65h-2.38V7.41h7.27v2.25h-2.38V19.07z M99.07,18.57h1.5V9.15h2.38V7.91h-6.27v1.25h2.38V18.57z"/>
	</g>
	<g>
		<path d="M111.24,19.07h-2.5v-5.01h-2.19v5.01h-2.5V7.41h2.5v4.41h2.19V7.41h2.5V19.07z M109.24,18.57h1.5V7.91h-1.5v4.41h-3.19
			V7.91h-1.5v10.66h1.5v-5.01h3.19V18.57z"/>
	</g>
</g>
</svg>
