<?xml version="1.0" encoding="utf-8"?>
<!-- Generator: Adobe Illustrator 24.2.0, SVG Export Plug-In . SVG Version: 6.00 Build 0)  -->
<svg version="1.1" id="Layer_1" xmlns="http://www.w3.org/2000/svg" xmlns:xlink="http://www.w3.org/1999/xlink" x="0px" y="0px"
	 viewBox="0 0 157.76 41.06" style="enable-background:new 0 0 157.76 41.06;" xml:space="preserve">
<style type="text/css">
	.st0{fill:#1A2523;}
	.st1{fill:#DEE0DE;}
</style>
<g>
	<g>
		<g>
			<rect x="39.53" y="14.89" class="st0" width="110.26" height="12.61"/>
		</g>
	</g>
	<g>
		<g>
			<path class="st0" d="M16.9,14.45c0.04-0.04,0.08-0.07,0.11-0.1c0.09-0.09,0.19-0.18,0.27-0.28c0.33-0.38,0.77-0.53,1.25-0.55
				c0.39-0.02,0.78,0,1.17-0.01c0.3,0,0.61-0.03,0.91-0.02c0.31,0.02,0.62,0.07,0.93,0.12c0.17,0.03,0.32,0.1,0.45,0.22
				c0.18,0.16,0.35,0.33,0.52,0.5c0.04,0.04,0.06,0.08,0.1,0.13c0.06-0.03,0.1-0.05,0.14-0.07c0.62-0.48,1.3-0.87,1.97-1.26
				c0.59-0.35,1.17-0.71,1.79-1c0.57-0.27,1.17-0.48,1.79-0.57c0.03,0,0.06-0.01,0.1-0.01c0.23-0.03,0.37,0.07,0.38,0.31
				c0.01,0.21-0.01,0.41-0.03,0.62c-0.02,0.21-0.02,0.4,0.16,0.56c0.04-0.02,0.08-0.03,0.12-0.06c0.08-0.05,0.15-0.1,0.22-0.16
				c0.53-0.38,1.12-0.42,1.73-0.3c0.25,0.05,0.32,0.2,0.22,0.43c-0.02,0.06-0.06,0.12-0.09,0.17c-0.04,0.07-0.09,0.14-0.12,0.22
				c-0.2,0.43-0.39,0.86-0.59,1.31c0.01,0.01,0.03,0.05,0.05,0.08c0.23,0.27,0.47,0.54,0.7,0.81c0.43,0.5,0.75,1.05,0.97,1.67
				c0.2,0.53,0.52,0.98,0.91,1.4c0.36,0.39,0.71,0.79,1.07,1.19c0.07,0.07,0.13,0.14,0.2,0.21c0.13,0.13,0.21,0.3,0.22,0.47
				c0.01,0.21,0.01,0.43-0.12,0.62c-0.12,0.18-0.25,0.36-0.38,0.54c-0.09,0.12-0.2,0.22-0.29,0.34c-0.29,0.35-0.68,0.56-1.11,0.69
				c-0.1,0.03-0.19,0.02-0.27-0.06c-0.04-0.04-0.08-0.07-0.12-0.1c-0.14-0.11-0.27-0.17-0.46-0.11c-0.21,0.07-0.44,0.06-0.66,0.01
				c-0.23-0.05-0.27-0.09-0.26-0.34c-0.05-0.01-0.11-0.02-0.16-0.02c-0.54-0.01-1.04,0.11-1.53,0.33c-0.64,0.3-1.01,0.81-1.1,1.5
				c-0.06,0.47-0.1,0.95-0.02,1.42c0.03,0.18,0.07,0.36,0.14,0.53c0.14,0.35,0.3,0.69,0.55,0.99c0.08,0.1,0.07,0.19,0.05,0.29
				c-0.08,0.37-0.16,0.74-0.23,1.11c-0.23,1.17-0.52,2.32-0.87,3.46c-0.03,0.1-0.07,0.16-0.19,0.14c-0.01,0-0.03,0-0.04,0
				c-0.31-0.01-0.34,0.07-0.55-0.23c-0.02-0.02-0.04-0.04-0.06-0.05c-0.37-0.24-0.74-0.48-1.13-0.74c-0.04,0.06-0.08,0.12-0.12,0.18
				c-0.16,0.28-0.32,0.57-0.49,0.84c-0.09,0.15-0.19,0.3-0.29,0.44c-0.2,0.27-0.36,0.57-0.45,0.9c-0.03,0.11-0.07,0.21-0.09,0.32
				c-0.05,0.17-0.16,0.27-0.33,0.33c-0.32,0.11-0.66,0.15-1,0.16c-0.31,0-0.61-0.01-0.92-0.01c-0.08,0-0.16,0-0.23,0.03
				c-0.34,0.14-0.71,0.18-1.07,0.2c-0.3,0.02-0.6-0.01-0.89-0.01c-0.2,0-0.4,0.02-0.6,0.02c-0.51,0-1.01-0.03-1.5-0.21
				c-0.06-0.02-0.14-0.02-0.21-0.02c-0.31,0-0.61,0.02-0.92,0c-0.29-0.02-0.58-0.07-0.87-0.11c-0.27-0.04-0.44-0.2-0.5-0.48
				c-0.06-0.28-0.15-0.55-0.3-0.8c-0.04-0.06-0.07-0.13-0.11-0.18c-0.33-0.42-0.58-0.89-0.84-1.36c-0.04-0.07-0.09-0.14-0.14-0.23
				c-0.06,0.03-0.11,0.05-0.16,0.08c-0.22,0.14-0.44,0.28-0.65,0.42c-0.19,0.12-0.38,0.25-0.53,0.43c-0.04,0.05-0.12,0.08-0.18,0.08
				c-0.39,0.03-0.38,0.03-0.5-0.35c-0.47-1.42-0.73-2.9-1.05-4.36c-0.03-0.13,0-0.23,0.07-0.34c0.33-0.48,0.61-0.99,0.66-1.58
				c0.04-0.49,0.03-0.99-0.07-1.47c-0.12-0.57-0.45-1-0.97-1.27c-0.51-0.26-1.04-0.39-1.61-0.38c-0.04,0-0.08,0-0.12,0.01
				c-0.01,0-0.02,0.01-0.04,0.02c0,0.02-0.01,0.04-0.01,0.05c0.01,0.17-0.01,0.22-0.18,0.26c-0.26,0.07-0.53,0.07-0.79-0.01
				C7.6,22.35,7.5,22.37,7.4,22.44c-0.05,0.04-0.11,0.07-0.16,0.12c-0.12,0.13-0.24,0.13-0.4,0.08c-0.41-0.14-0.77-0.36-1.04-0.69
				c-0.21-0.26-0.42-0.53-0.62-0.8c-0.14-0.19-0.16-0.43-0.16-0.65c0-0.17,0.09-0.35,0.22-0.49c0.47-0.51,0.94-1.02,1.4-1.54
				c0.32-0.36,0.58-0.77,0.77-1.21c0.04-0.1,0.09-0.19,0.12-0.29c0.13-0.44,0.39-0.82,0.67-1.18c0.29-0.37,0.55-0.76,0.9-1.07
				c0.06-0.05,0.06-0.1,0.03-0.17c-0.25-0.5-0.49-1-0.73-1.51c-0.01-0.01-0.01-0.02-0.02-0.03c-0.15-0.29-0.08-0.44,0.24-0.5
				c0.63-0.11,1.23-0.04,1.76,0.36c0.04,0.03,0.07,0.05,0.11,0.08c0.14,0.09,0.21,0.08,0.26-0.08c0.04-0.12,0.04-0.25,0.04-0.38
				c0-0.2-0.04-0.4-0.02-0.6c0.01-0.11,0.07-0.22,0.13-0.32c0.02-0.03,0.09-0.04,0.14-0.04c0.27,0.04,0.54,0.08,0.8,0.15
				c0.81,0.2,1.54,0.59,2.26,1c0.51,0.29,1.01,0.59,1.51,0.9c0.39,0.24,0.76,0.5,1.13,0.76C16.79,14.37,16.84,14.41,16.9,14.45z
				 M19.81,27.49c0.9-0.02,1.81-0.04,2.73-0.05c0.5-0.01,1-0.04,1.5-0.03c0.72,0.01,1.44,0.06,2.16-0.01
				c0.18-0.02,0.36-0.04,0.54-0.09c0.16-0.04,0.24-0.21,0.18-0.35c-0.08-0.22-0.16-0.44-0.27-0.64c-0.25-0.44-0.42-0.9-0.57-1.39
				c-0.2-0.65-0.47-1.26-0.83-1.84c-0.44-0.71-0.87-1.42-1.28-2.14c-0.28-0.48-0.52-0.98-0.8-1.45c-0.53-0.9-0.98-1.83-1.38-2.79
				c-0.16-0.39-0.36-0.76-0.55-1.14c-0.09-0.18-0.23-0.3-0.43-0.39c-0.31-0.14-0.61-0.16-0.93-0.14c-0.07,0.01-0.14,0-0.21,0
				c-0.21,0.01-0.42-0.02-0.62,0.03c-0.32,0.08-0.6,0.2-0.77,0.53c-0.22,0.43-0.43,0.88-0.61,1.33c-0.32,0.79-0.7,1.55-1.12,2.29
				c-0.16,0.28-0.33,0.56-0.48,0.85c-0.5,0.94-1.01,1.87-1.6,2.76c-0.46,0.69-0.8,1.44-1.04,2.24c-0.07,0.25-0.16,0.5-0.26,0.73
				c-0.16,0.37-0.34,0.73-0.51,1.09c-0.1,0.2-0.02,0.37,0.2,0.44c0.07,0.02,0.14,0.04,0.21,0.04c0.46,0.03,0.92,0.07,1.38,0.07
				c0.73,0,1.47-0.04,2.2,0C17.69,27.47,18.74,27.47,19.81,27.49z M19.78,31.73c0.58,0.01,1.17,0.03,1.76,0.03
				c0.19,0,0.38-0.02,0.56-0.03c0.19-0.01,0.39-0.04,0.58-0.05c0.26-0.02,0.52-0.05,0.75-0.18c0.11-0.06,0.23-0.12,0.35-0.15
				c0.48-0.12,0.83-0.57,0.82-1.08c0-0.19-0.03-0.39-0.06-0.58c-0.09-0.61-0.45-0.93-1.06-0.96c-0.34-0.02-0.69-0.03-1.03-0.03
				c-0.21,0-0.43,0-0.64,0.01c-0.66,0.03-1.32,0.09-1.98,0.09c-0.69,0-1.39-0.07-2.08-0.09c-0.6-0.01-1.21,0-1.81,0.04
				c-0.46,0.03-0.77,0.31-0.88,0.76c-0.07,0.25-0.09,0.51-0.1,0.77c-0.01,0.53,0.32,0.94,0.84,1.08c0.08,0.02,0.17,0.04,0.24,0.09
				c0.28,0.19,0.59,0.24,0.91,0.24c0.12,0,0.25,0.01,0.37,0.02c0.25,0.02,0.5,0.05,0.76,0.05C18.62,31.76,19.19,31.75,19.78,31.73z
				 M10.88,16.88c0.15-0.06,0.62-0.58,0.7-0.8c-0.03,0-0.05,0-0.08,0c-0.31,0.05-0.63,0.11-0.94,0.16
				c-0.28,0.04-0.57,0.06-0.85,0.09c-0.09,0.01-0.17,0.03-0.22,0.1c-0.14,0.19-0.09,0.52,0.11,0.64c0.14,0.08,0.29,0.14,0.44,0.2
				c0.14,0.05,0.28,0.09,0.45,0.14C10.62,17.25,10.8,17.12,10.88,16.88z M27.94,16.07c0.05,0.07,0.07,0.11,0.11,0.15
				c0.13,0.16,0.26,0.32,0.4,0.48c0.06,0.07,0.14,0.11,0.2,0.17c0.02,0.01,0.03,0.03,0.04,0.05c0.08,0.21,0.25,0.33,0.38,0.48
				c0.12-0.04,0.22-0.08,0.31-0.11c0.15-0.05,0.3-0.09,0.44-0.16c0.29-0.14,0.34-0.25,0.29-0.56c-0.03-0.17-0.11-0.24-0.29-0.25
				c-0.13,0-0.26,0-0.39-0.02c-0.42-0.06-0.83-0.13-1.25-0.2C28.11,16.09,28.04,16.08,27.94,16.07z"/>
		</g>
		<g>
			<path class="st0" d="M23.91,6.96c0.13,0.54,0.13,1.07-0.11,1.6c0.08,0.03,0.14,0.05,0.2,0.07c0.38,0.16,0.77,0.3,1.15,0.47
				c0.15,0.07,0.29,0.18,0.41,0.29c0.33,0.3,0.41,0.69,0.36,1.12c-0.03,0.29-0.25,0.51-0.56,0.58c-0.25,0.05-0.51,0.1-0.77,0.12
				c-0.67,0.06-1.35,0.08-2.02,0.04c-0.66-0.05-1.32-0.13-1.98-0.2c-0.24-0.03-0.48-0.07-0.71-0.1c-0.07-0.01-0.14-0.01-0.21,0
				c-0.73,0.09-1.46,0.19-2.19,0.26c-0.69,0.07-1.39,0.09-2.08,0.02c-0.32-0.03-0.65-0.06-0.97-0.09c-0.06-0.01-0.12-0.02-0.17-0.03
				c-0.44-0.09-0.66-0.38-0.64-0.84c0.02-0.51,0.25-0.89,0.7-1.12c0.38-0.19,0.79-0.34,1.18-0.51c0.08-0.03,0.16-0.06,0.26-0.09
				c-0.23-0.52-0.25-1.05-0.11-1.6c-0.08-0.03-0.13-0.06-0.19-0.08c-0.57-0.21-1.12-0.44-1.63-0.79c-0.17-0.12-0.36-0.21-0.54-0.32
				c-0.32-0.19-0.61-0.41-0.83-0.73c-0.08-0.12-0.19-0.22-0.27-0.33C11.99,4.46,12,4.28,12.2,4.03c0.27-0.33,0.62-0.58,1.03-0.72
				c0.72-0.24,1.47-0.39,2.23-0.41c0.67-0.02,1.34,0.01,1.98,0.21c0.16,0.05,0.32,0.11,0.48,0.17c0.09,0.04,0.16,0.04,0.25-0.02
				c0.17-0.12,0.37-0.17,0.57-0.16c0.27,0,0.54,0.03,0.82,0.03c0.28,0,0.56-0.02,0.84-0.02c0.14,0,0.29-0.01,0.43,0
				c0.2,0.01,0.4,0.05,0.57,0.17c0.07,0.05,0.14,0.05,0.22,0.02c0.43-0.19,0.88-0.32,1.35-0.36c0.34-0.03,0.67-0.04,1.01-0.04
				c0.44,0,0.87,0.04,1.3,0.13c0.45,0.1,0.9,0.19,1.32,0.4c0.31,0.15,0.57,0.36,0.78,0.63c0.17,0.22,0.18,0.4,0.01,0.62
				c-0.34,0.46-0.71,0.9-1.24,1.16c-0.25,0.13-0.49,0.3-0.73,0.44C25,6.54,24.55,6.71,24.1,6.88C24.04,6.9,23.98,6.93,23.91,6.96z
				 M17.4,3.97c-0.04-0.03-0.06-0.05-0.09-0.07c-0.35-0.23-0.72-0.41-1.12-0.53c-0.2-0.06-0.41-0.09-0.62-0.05
				c-0.31,0.05-0.61,0.12-0.91,0.2c-0.36,0.09-0.64,0.3-0.89,0.58c-0.19,0.22-0.2,0.35-0.02,0.58c0.09,0.11,0.18,0.22,0.28,0.33
				c0.11,0.12,0.21,0.27,0.35,0.36c0.45,0.3,0.91,0.57,1.37,0.85c0.04,0.02,0.09,0.04,0.12,0.03c0.07-0.03,0.11,0,0.16,0.03
				c0.22,0.13,0.43,0.26,0.65,0.39c0.24,0.14,0.47,0.29,0.71,0.41c0.6,0.3,1.2,0.58,1.81,0.87c0.03,0.01,0.06,0.04,0.1,0.07
				c-0.33,0.12-0.63,0.24-0.93,0.35c-0.55,0.2-1.11,0.41-1.66,0.61c-0.15,0.05-0.3,0.08-0.45,0.12c-0.1,0.03-0.2,0.05-0.3,0.08
				c-0.13,0.03-0.26,0.07-0.38,0.1C15.6,9.4,15.6,9.41,15.51,9.5c-0.29,0.28-0.34,0.63-0.3,1.01c0.02,0.2,0.12,0.3,0.29,0.31
				c0.34,0.02,0.68,0.05,1.01,0.03c0.52-0.03,1.05-0.09,1.57-0.15c0.19-0.02,0.39-0.06,0.58-0.09c0-0.01,0-0.03,0-0.04
				c-0.25-0.1-0.49-0.22-0.76-0.28c-0.58-0.14-1.08-0.42-1.49-0.84c-0.03-0.03-0.05-0.07-0.08-0.11c0.19-0.06,0.36-0.11,0.53-0.16
				c0.24-0.07,0.49-0.13,0.73-0.21c0.26-0.09,0.5-0.21,0.76-0.3c0.42-0.16,0.84-0.31,1.26-0.47c0.12-0.05,0.23-0.05,0.36,0
				c0.22,0.09,0.45,0.17,0.67,0.25c0.33,0.12,0.66,0.25,0.98,0.38c0.37,0.15,0.74,0.28,1.12,0.37c0.16,0.04,0.31,0.11,0.47,0.16
				C23.2,9.38,23.2,9.39,23.19,9.4c-0.02,0.03-0.05,0.06-0.08,0.09c-0.41,0.39-0.89,0.65-1.43,0.8c-0.24,0.07-0.47,0.16-0.7,0.25
				c-0.03,0.01-0.06,0.04-0.09,0.06c0.02,0.02,0.02,0.02,0.03,0.02c1.02,0.15,2.04,0.3,3.08,0.2c0.2-0.02,0.28-0.08,0.32-0.27
				c0.07-0.37,0.02-0.71-0.24-1c-0.08-0.08-0.18-0.15-0.13-0.3c-0.14-0.03-0.25-0.06-0.37-0.09c-0.22-0.05-0.44-0.09-0.66-0.15
				c-0.23-0.07-0.45-0.16-0.68-0.24C21.62,8.53,21,8.3,20.37,8.06c-0.04-0.01-0.07-0.04-0.12-0.08c0.37-0.18,0.72-0.34,1.06-0.51
				c0.41-0.2,0.83-0.4,1.24-0.62c0.32-0.17,0.62-0.38,0.93-0.56c0.05-0.03,0.12-0.07,0.16-0.05c0.1,0.03,0.17-0.02,0.23-0.06
				c0.36-0.21,0.71-0.43,1.07-0.64c0.08-0.05,0.16-0.11,0.23-0.17c0.27-0.22,0.46-0.51,0.68-0.78c0.12-0.15,0.11-0.27-0.01-0.43
				c-0.22-0.29-0.49-0.5-0.84-0.61c-0.23-0.08-0.47-0.14-0.72-0.19c-0.27-0.05-0.54-0.09-0.81-0.02c-0.43,0.11-0.82,0.29-1.19,0.53
				c-0.05,0.03-0.08,0.07-0.13,0.11c0.04,0.04,0.07,0.06,0.09,0.08c0.32,0.19,0.54,0.48,0.72,0.8c0.14,0.25,0.29,0.5,0.43,0.74
				c0.04,0.07,0.07,0.15,0.11,0.23c-0.05,0.04-0.09,0.08-0.13,0.11c-0.53,0.32-1.05,0.67-1.6,0.96c-0.6,0.32-1.23,0.6-1.84,0.9
				c-0.11,0.05-0.2,0.05-0.31,0c-0.3-0.15-0.6-0.28-0.89-0.43c-0.44-0.22-0.88-0.44-1.31-0.68c-0.41-0.23-0.8-0.48-1.2-0.73
				c-0.17-0.11-0.18-0.13-0.07-0.31c0.13-0.23,0.26-0.45,0.39-0.68c0.21-0.38,0.45-0.72,0.83-0.94C17.36,4.01,17.37,4,17.4,3.97z"/>
		</g>
		<g>
			<path class="st0" d="M21.56,36.04c-0.12-0.01-0.24-0.01-0.39-0.02c-0.01,0.1-0.03,0.2-0.03,0.29c-0.01,0.45,0,0.91-0.01,1.36
				c0,0.25-0.02,0.51-0.04,0.76c-0.01,0.16-0.05,0.2-0.21,0.24c-0.31,0.08-0.62,0.05-0.93,0.03c-0.12-0.01-0.23-0.01-0.35,0
				c-0.31,0.02-0.62,0.05-0.93-0.03c-0.16-0.04-0.19-0.06-0.21-0.23c-0.01-0.05-0.01-0.1-0.01-0.16c-0.01-0.66-0.03-1.31-0.04-1.97
				c0-0.09-0.01-0.18-0.02-0.25c-0.04-0.02-0.05-0.03-0.06-0.03c-0.35-0.03-0.36-0.02-0.35,0.33c0.01,0.6,0.02,1.19,0.03,1.79
				c0,0.12,0.05,0.25,0.01,0.34c-0.04,0.09-0.17,0.14-0.26,0.21c-0.04,0.03-0.08,0.05-0.12,0.06c-0.12,0.02-0.25,0.02-0.31,0.16
				c-0.01,0.01-0.03,0.02-0.05,0.03c-0.24,0.06-0.49,0.06-0.73-0.01c-0.04-0.01-0.08-0.08-0.1-0.12c-0.02-0.04-0.02-0.09-0.02-0.13
				c-0.02-0.31-0.03-0.62-0.05-0.93c-0.03-0.62-0.06-1.25-0.08-1.87c0-0.1-0.03-0.18-0.12-0.22c-0.03-0.02-0.07-0.05-0.08-0.08
				c-0.03-0.11-0.08-0.19-0.18-0.25c-0.06-0.03-0.05-0.11,0.01-0.15c0.06-0.04,0.14-0.08,0.21-0.1c0.38-0.11,0.77-0.13,1.16-0.1
				c0.52,0.05,1.03,0.1,1.55,0.13c0.42,0.03,0.84,0.05,1.26,0.04c0.39-0.01,0.78-0.05,1.17-0.08c0.34-0.03,0.68-0.06,1.03-0.09
				c0.38-0.03,0.75,0,1.12,0.09c0.03,0.01,0.07,0.01,0.09,0.03c0.06,0.04,0.15,0.08,0.17,0.13c0.03,0.08-0.08,0.1-0.12,0.15
				c-0.05,0.06-0.07,0.15-0.11,0.21c-0.05,0.07-0.13,0.11-0.17,0.18c-0.03,0.06-0.03,0.14-0.03,0.21c-0.02,0.29-0.03,0.58-0.04,0.88
				c-0.03,0.62-0.05,1.25-0.08,1.87c-0.01,0.17-0.05,0.22-0.22,0.24c-0.17,0.01-0.35,0.01-0.52,0c-0.06,0-0.15-0.03-0.17-0.07
				c-0.06-0.1-0.15-0.11-0.24-0.13c-0.08-0.01-0.16-0.04-0.21-0.12c-0.01-0.02-0.05-0.04-0.08-0.05c-0.16-0.08-0.15-0.08-0.15-0.24
				c0.02-0.38,0.03-0.75,0.03-1.13C21.56,36.85,21.56,36.47,21.56,36.04z"/>
		</g>
		<g>
			<path class="st0" d="M28.71,24.25c0.48-0.23,0.91-0.04,1.36,0.06c0.03-0.08,0.05-0.15,0.07-0.21c0.05-0.17,0.1-0.35,0.16-0.52
				c0.02-0.05,0.06-0.1,0.1-0.14c0.09-0.09,0.18-0.17,0.27-0.25c0.14-0.14,0.29-0.13,0.4,0.04c0.08,0.12,0.15,0.26,0.23,0.38
				c0.18,0.29,0.36,0.58,0.54,0.88c0.06,0.11,0.15,0.15,0.27,0.15c0.17-0.01,0.34,0,0.51,0.01c0.12,0.01,0.25,0.02,0.36,0.06
				c0.17,0.06,0.19,0.19,0.04,0.28c-0.14,0.09-0.31,0.13-0.46,0.19c-0.07,0.03-0.15,0.04-0.25,0.06c0.03,0.08,0.06,0.13,0.09,0.19
				c0.12,0.21,0.25,0.43,0.37,0.64c0.06,0.1,0.02,0.22-0.09,0.25c-0.25,0.07-0.5,0.07-0.75-0.01c-0.06-0.02-0.1-0.09-0.15-0.14
				c-0.04-0.04-0.07-0.1-0.11-0.12c-0.16-0.09-0.32-0.17-0.48-0.26c-0.08-0.04-0.13-0.02-0.2,0.02c-0.16,0.1-0.33,0.19-0.49,0.28
				c-0.28,0.16-0.57,0.14-0.87,0.07c-0.12-0.03-0.14-0.08-0.11-0.21c0.02-0.08,0.06-0.16,0.09-0.24c0.07-0.21,0.15-0.43,0.22-0.65
				c0.05-0.15,0.04-0.16-0.1-0.23c-0.22-0.12-0.44-0.23-0.66-0.34C28.96,24.44,28.83,24.39,28.71,24.25z"/>
		</g>
		<g>
			<path class="st0" d="M7.25,25.24c-0.1-0.03-0.17-0.04-0.24-0.06c-0.12-0.04-0.25-0.07-0.37-0.12c-0.05-0.02-0.1-0.06-0.14-0.1
				c-0.1-0.1-0.09-0.19,0.04-0.24c0.11-0.04,0.24-0.07,0.36-0.08c0.17-0.01,0.34-0.02,0.51-0.01c0.16,0.01,0.25-0.06,0.33-0.19
				c0.23-0.38,0.46-0.75,0.69-1.13c0.05-0.08,0.1-0.17,0.2-0.2c0.08-0.03,0.14-0.03,0.21,0.04c0.11,0.11,0.23,0.21,0.34,0.32
				c0.04,0.04,0.07,0.09,0.09,0.14c0.06,0.17,0.1,0.33,0.15,0.5c0.02,0.06,0.04,0.12,0.07,0.2c0.1-0.03,0.19-0.04,0.27-0.07
				c0.29-0.09,0.58-0.14,0.88-0.07c0.06,0.02,0.12,0.05,0.2,0.08c-0.11,0.14-0.24,0.19-0.36,0.26c-0.21,0.11-0.43,0.22-0.64,0.33
				c-0.15,0.08-0.15,0.09-0.11,0.25c0.07,0.22,0.15,0.44,0.23,0.66c0.02,0.06,0.05,0.12,0.07,0.18c0.05,0.16,0.03,0.22-0.14,0.25
				c-0.29,0.05-0.58,0.07-0.85-0.1c-0.15-0.09-0.31-0.17-0.45-0.27c-0.09-0.06-0.16-0.05-0.25,0c-0.11,0.07-0.23,0.13-0.34,0.18
				c-0.1,0.05-0.19,0.09-0.23,0.22c-0.02,0.05-0.1,0.1-0.17,0.11c-0.22,0.06-0.44,0.05-0.66,0.01c-0.17-0.04-0.2-0.15-0.12-0.3
				C6.96,25.78,7.09,25.53,7.25,25.24z"/>
		</g>
		<g>
			<path class="st0" d="M29.2,7.67c-0.05,0.07-0.09,0.12-0.12,0.17c-0.04,0.06-0.03,0.12,0.01,0.18c0.04,0.06,0.09,0.05,0.15,0.05
				c0.19-0.01,0.38-0.02,0.56-0.01c0.1,0,0.19,0.02,0.28,0.05c0.04,0.01,0.09,0.06,0.1,0.1c0.01,0.02-0.04,0.07-0.07,0.1
				c-0.15,0.1-0.3,0.2-0.46,0.3c-0.06,0.04-0.12,0.08-0.19,0.13c0.1,0.18,0.2,0.34,0.3,0.51c-0.04,0.03-0.07,0.06-0.09,0.07
				c-0.28,0.08-0.56,0.1-0.83-0.04c-0.09-0.05-0.16-0.05-0.25,0c-0.16,0.08-0.3,0.17-0.42,0.31c-0.04,0.05-0.11,0.1-0.17,0.11
				c-0.24,0.06-0.48,0.06-0.71,0c-0.16-0.04-0.17-0.09-0.09-0.23c0.09-0.16,0.19-0.33,0.28-0.49c0.03-0.06,0.06-0.13,0.09-0.19
				c-0.22-0.17-0.5-0.11-0.72-0.25c0.03-0.1,0.09-0.11,0.15-0.12c0.19-0.03,0.38-0.06,0.58-0.08c0.25-0.02,0.42-0.15,0.47-0.4
				c0.03-0.18,0.17-0.27,0.3-0.32c0.26-0.1,0.53-0.09,0.8,0C29.15,7.62,29.17,7.65,29.2,7.67z"/>
		</g>
		<g>
			<path class="st0" d="M9.79,9.26c0.1-0.17,0.2-0.33,0.3-0.51c-0.25-0.18-0.52-0.3-0.73-0.5c0.03-0.12,0.12-0.14,0.2-0.15
				c0.25-0.01,0.49-0.02,0.74-0.02c0.07,0,0.14,0.02,0.19-0.06c0.05-0.09,0.01-0.15-0.03-0.21c-0.03-0.04-0.06-0.08-0.1-0.14
				c0.2-0.14,0.42-0.1,0.63-0.11c0.23-0.01,0.38,0.14,0.54,0.29c-0.02,0.17,0.1,0.29,0.2,0.41c0.04,0.05,0.12,0.06,0.19,0.07
				c0.2,0.03,0.41,0.05,0.62,0.08c0.07,0.01,0.14,0.05,0.21,0.07c-0.03,0.12-0.12,0.12-0.19,0.14c-0.11,0.03-0.22,0.04-0.32,0.07
				c-0.07,0.02-0.13,0.05-0.22,0.09c0.08,0.15,0.15,0.29,0.22,0.43c0.05,0.1,0.11,0.19,0.17,0.29c0.07,0.12,0.05,0.17-0.09,0.21
				c-0.05,0.02-0.1,0.03-0.15,0.03c-0.14,0-0.29,0.01-0.43,0c-0.15-0.01-0.27-0.06-0.37-0.18c-0.11-0.15-0.28-0.23-0.45-0.3
				c-0.05-0.02-0.12,0.01-0.18,0.04c-0.28,0.12-0.55,0.11-0.84,0.03C9.86,9.32,9.83,9.29,9.79,9.26z"/>
		</g>
		<g>
			<path class="st0" d="M14.73,26.92c0.04-0.26-0.16-0.26-0.33-0.33c0.08-0.22,0.16-0.43,0.27-0.62c0.56-1.03,1.13-2.06,1.7-3.09
				c0.51-0.94,0.99-1.9,1.42-2.89c0.19-0.43,0.41-0.86,0.62-1.28c0.39-0.76,0.74-1.53,1.06-2.32c0.07-0.17,0.16-0.33,0.24-0.49
				c0.02-0.03,0.04-0.06,0.08-0.11c0.04,0.06,0.08,0.11,0.1,0.16c0.11,0.24,0.24,0.48,0.33,0.73c0.27,0.71,0.62,1.39,0.95,2.07
				c0.34,0.7,0.65,1.42,1,2.11c0.41,0.83,0.85,1.65,1.28,2.47c0.19,0.36,0.4,0.71,0.6,1.07c0.29,0.54,0.58,1.08,0.86,1.62
				c0.09,0.18,0.16,0.37,0.25,0.57c-0.09,0.04-0.18,0.05-0.24,0.1c-0.06,0.05-0.08,0.14-0.14,0.24c-0.04,0-0.12,0.01-0.19,0.01
				c-0.47-0.01-0.93-0.02-1.4-0.03c-0.12,0-0.23,0.02-0.35,0.03c-0.19,0.02-0.37,0.06-0.56,0.07c-0.87,0.03-1.74,0.06-2.61,0.06
				c-0.9,0-1.79-0.05-2.69-0.08c-0.05,0-0.1-0.01-0.15-0.02c-0.29-0.08-0.58-0.05-0.87-0.04C15.56,26.93,15.15,26.92,14.73,26.92z"
				/>
		</g>
		<g>
			<path class="st0" d="M18.15,29.24c0.31,0.02,0.67,0.1,1.02,0.19c0.17,0.05,0.21,0.11,0.2,0.28c-0.01,0.26,0.05,0.51,0.11,0.77
				c0.06,0.25,0.09,0.51,0.12,0.77c0.02,0.13-0.01,0.17-0.13,0.2c-0.26,0.07-0.52,0.06-0.77-0.02c-0.07-0.02-0.13-0.06-0.18-0.11
				c-0.1-0.09-0.1-0.16,0.02-0.22c0.11-0.06,0.1-0.14,0.09-0.23c-0.01-0.09-0.02-0.18-0.14-0.23c-0.26-0.11-0.51-0.05-0.76-0.01
				c-0.08,0.01-0.09,0.08-0.1,0.15c-0.02,0.19-0.05,0.37-0.07,0.56c-0.01,0.1-0.05,0.16-0.15,0.18c-0.22,0.05-0.44,0.05-0.66,0
				c-0.1-0.02-0.14-0.08-0.16-0.17c-0.05-0.23-0.02-0.47,0.02-0.7c0.05-0.34,0.11-0.68,0.16-1.02c0.04-0.22,0.08-0.27,0.3-0.29
				C17.41,29.29,17.75,29.27,18.15,29.24z M18.46,30.28c-0.01-0.21-0.02-0.41-0.03-0.6c0-0.07-0.05-0.11-0.11-0.11
				c-0.15-0.01-0.3-0.02-0.44-0.01c-0.11,0-0.16,0.07-0.17,0.18c-0.01,0.15-0.03,0.3-0.04,0.44c0,0.04,0.02,0.08,0.03,0.15
				C17.96,30.32,18.2,30.3,18.46,30.28z"/>
		</g>
		<g>
			<path class="st0" d="M20.09,29.98c0.13-0.19,0.28-0.27,0.4-0.39c0.04-0.04,0.09-0.06,0.12-0.1c0.22-0.25,0.5-0.28,0.8-0.25
				c0.17,0.02,0.35,0.05,0.52,0.09c0.13,0.03,0.21,0.11,0.21,0.26c0,0.23,0.02,0.45,0.03,0.68c0.01,0.2,0.04,0.4,0.05,0.6
				c0.01,0.09,0.06,0.12,0.13,0.14c0.07,0.02,0.14,0.05,0.23,0.08c-0.04,0.05-0.06,0.08-0.08,0.09c-0.29,0.12-0.58,0.22-0.91,0.17
				c-0.11-0.01-0.22,0.01-0.33,0.01c-0.12,0-0.23-0.01-0.35-0.03c-0.06-0.01-0.11-0.05-0.19-0.08c0.16-0.17,0.36-0.15,0.56-0.23
				c-0.03-0.35-0.06-0.7-0.09-1.08C20.84,30.08,20.49,30.12,20.09,29.98z"/>
		</g>
	</g>
	<g>
		<path class="st1" d="M45.86,18.94h0.6l1.9,4.98h-1.01l-1.19-3.4l-1.19,3.4h-1.01L45.86,18.94z M44.87,22.22h2.62v0.9h-2.62V22.22z
			"/>
		<path class="st1" d="M48.97,18.93h0.94v4.98h-0.94V18.93z M49.35,21.01h1.73c0.1,0,0.18-0.02,0.25-0.07
			c0.07-0.05,0.13-0.12,0.17-0.21c0.04-0.09,0.06-0.19,0.06-0.31c0-0.12-0.02-0.22-0.06-0.31s-0.1-0.16-0.17-0.21
			c-0.07-0.05-0.16-0.07-0.26-0.07h-1.73v-0.9h1.81c0.27,0,0.51,0.06,0.72,0.19c0.21,0.12,0.37,0.3,0.48,0.52
			c0.11,0.23,0.17,0.49,0.17,0.78s-0.06,0.56-0.17,0.78s-0.28,0.4-0.48,0.52c-0.21,0.12-0.45,0.18-0.72,0.18h-1.81V21.01z
			 M50.39,21.76l1-0.16l1.34,2.31H51.6L50.39,21.76z"/>
		<path class="st1" d="M56.68,18.94h1.24v4.98h-0.85v-3.87l0.03,0.22l-0.95,3.09h-0.83l-0.95-3.02l0.03-0.29v3.87h-0.85v-4.98h1.24
			l0.95,3.36L56.68,18.94z"/>
		<path class="st1" d="M59.77,23.74c-0.27-0.15-0.49-0.37-0.64-0.64c-0.15-0.28-0.23-0.6-0.23-0.96v-1.41
			c0-0.37,0.08-0.69,0.23-0.96c0.15-0.28,0.36-0.49,0.64-0.64c0.28-0.15,0.59-0.23,0.95-0.23c0.36,0,0.68,0.08,0.95,0.23
			c0.28,0.15,0.49,0.37,0.64,0.64c0.15,0.28,0.23,0.6,0.23,0.96v1.41c0,0.37-0.08,0.69-0.23,0.96c-0.15,0.28-0.36,0.49-0.64,0.64
			c-0.27,0.15-0.59,0.23-0.95,0.23C60.36,23.97,60.05,23.89,59.77,23.74z M61.17,22.92c0.13-0.07,0.23-0.17,0.3-0.31
			c0.07-0.13,0.1-0.29,0.1-0.46V20.7c0-0.17-0.04-0.33-0.1-0.46c-0.07-0.13-0.17-0.23-0.3-0.31c-0.13-0.07-0.28-0.11-0.45-0.11
			s-0.32,0.04-0.45,0.11c-0.13,0.07-0.23,0.17-0.3,0.31c-0.07,0.13-0.1,0.29-0.1,0.46v1.46c0,0.17,0.03,0.33,0.1,0.46
			c0.07,0.13,0.17,0.23,0.3,0.31c0.13,0.07,0.28,0.11,0.45,0.11S61.04,22.99,61.17,22.92z"/>
		<path class="st1" d="M63.47,18.93h0.94v4.98h-0.94V18.93z M63.84,21.01h1.73c0.1,0,0.18-0.02,0.25-0.07
			c0.07-0.05,0.13-0.12,0.17-0.21c0.04-0.09,0.06-0.19,0.06-0.31c0-0.12-0.02-0.22-0.06-0.31s-0.1-0.16-0.17-0.21
			c-0.07-0.05-0.16-0.07-0.26-0.07h-1.73v-0.9h1.81c0.27,0,0.51,0.06,0.72,0.19c0.21,0.12,0.37,0.3,0.48,0.52
			c0.11,0.23,0.17,0.49,0.17,0.78s-0.06,0.56-0.17,0.78s-0.28,0.4-0.48,0.52c-0.21,0.12-0.45,0.18-0.72,0.18h-1.81V21.01z
			 M64.89,21.76l1-0.16l1.34,2.31H66.1L64.89,21.76z"/>
		<path class="st1" d="M68.04,18.94h0.94v4.98h-0.94V18.94z M68.38,18.94h3v0.9h-3V18.94z M68.38,20.99H71v0.9h-2.62V20.99z
			 M68.38,23.01h3v0.9h-3V23.01z"/>
		<path class="st1" d="M72.23,18.94h0.94v4.98h-0.94V18.94z M72.7,23.01h1.2c0.31,0,0.55-0.07,0.72-0.22s0.25-0.36,0.25-0.63v-1.46
			c0-0.27-0.08-0.48-0.25-0.63s-0.41-0.22-0.72-0.22h-1.2v-0.9h1.17c0.42,0,0.77,0.07,1.06,0.21c0.29,0.14,0.52,0.34,0.67,0.61
			c0.15,0.27,0.23,0.59,0.23,0.97v1.41c0,0.36-0.07,0.67-0.22,0.94c-0.15,0.27-0.37,0.47-0.66,0.62c-0.29,0.15-0.66,0.22-1.08,0.22
			H72.7V23.01z"/>
		<path class="st1" d="M79.48,23.74c-0.27-0.15-0.49-0.37-0.64-0.64c-0.15-0.28-0.23-0.6-0.23-0.96v-1.41
			c0-0.37,0.08-0.69,0.23-0.96c0.15-0.28,0.36-0.49,0.64-0.64c0.28-0.15,0.59-0.23,0.95-0.23c0.36,0,0.68,0.08,0.95,0.23
			c0.28,0.15,0.49,0.37,0.64,0.64c0.15,0.28,0.23,0.6,0.23,0.96v1.41c0,0.37-0.08,0.69-0.23,0.96c-0.15,0.28-0.36,0.49-0.64,0.64
			c-0.27,0.15-0.59,0.23-0.95,0.23C80.07,23.97,79.75,23.89,79.48,23.74z M80.88,22.92c0.13-0.07,0.23-0.17,0.3-0.31
			c0.07-0.13,0.1-0.29,0.1-0.46V20.7c0-0.17-0.04-0.33-0.1-0.46C81.1,20.11,81,20,80.88,19.93c-0.13-0.07-0.28-0.11-0.45-0.11
			s-0.32,0.04-0.45,0.11c-0.13,0.07-0.23,0.17-0.3,0.31c-0.07,0.13-0.1,0.29-0.1,0.46v1.46c0,0.17,0.03,0.33,0.1,0.46
			c0.07,0.13,0.17,0.23,0.3,0.31c0.13,0.07,0.28,0.11,0.45,0.11S80.75,22.99,80.88,22.92z"/>
		<path class="st1" d="M83.17,18.94h0.94v4.98h-0.94V18.94z M83.6,21.08h1.59c0.11,0,0.21-0.03,0.3-0.08
			c0.09-0.05,0.15-0.12,0.2-0.22s0.07-0.2,0.07-0.32c0-0.12-0.02-0.23-0.07-0.33s-0.11-0.17-0.2-0.22c-0.09-0.05-0.19-0.08-0.3-0.08
			H83.6v-0.9h1.57c0.31,0,0.58,0.06,0.82,0.19c0.24,0.13,0.42,0.31,0.55,0.54s0.2,0.5,0.2,0.8s-0.07,0.57-0.2,0.8
			c-0.13,0.23-0.31,0.41-0.55,0.53c-0.24,0.13-0.51,0.19-0.82,0.19H83.6V21.08z"/>
		<path class="st1" d="M88.34,23.9c-0.23-0.05-0.44-0.12-0.64-0.21c-0.2-0.09-0.38-0.2-0.54-0.33l0.44-0.77
			c0.19,0.16,0.41,0.28,0.66,0.37c0.25,0.08,0.51,0.13,0.77,0.13c0.31,0,0.54-0.05,0.71-0.16c0.17-0.1,0.25-0.25,0.25-0.44v0
			c0-0.13-0.04-0.24-0.11-0.32c-0.08-0.08-0.17-0.13-0.29-0.17c-0.12-0.04-0.28-0.07-0.47-0.1c-0.01,0-0.01,0-0.02,0s-0.01,0-0.02,0
			l-0.08-0.01c-0.33-0.05-0.61-0.12-0.83-0.2c-0.22-0.08-0.41-0.22-0.56-0.42c-0.15-0.2-0.23-0.48-0.23-0.84v0
			c0-0.32,0.07-0.6,0.22-0.83c0.14-0.23,0.35-0.4,0.63-0.52c0.27-0.12,0.6-0.18,0.99-0.18c0.18,0,0.36,0.02,0.55,0.06
			c0.19,0.04,0.37,0.1,0.55,0.18c0.18,0.08,0.35,0.17,0.51,0.28l-0.4,0.79c-0.19-0.13-0.39-0.24-0.6-0.31s-0.41-0.11-0.6-0.11
			c-0.29,0-0.51,0.05-0.67,0.14s-0.24,0.23-0.24,0.4v0c0,0.14,0.04,0.26,0.12,0.34c0.08,0.08,0.18,0.14,0.3,0.18
			c0.12,0.04,0.29,0.08,0.51,0.12c0.01,0,0.02,0,0.03,0c0.01,0,0.02,0,0.03,0.01c0.01,0,0.03,0,0.04,0.01C89.38,21,89.39,21,89.4,21
			c0.31,0.06,0.58,0.14,0.79,0.22s0.39,0.23,0.53,0.42s0.21,0.46,0.21,0.8v0.01c0,0.32-0.07,0.59-0.22,0.82s-0.36,0.4-0.65,0.52
			c-0.28,0.12-0.63,0.18-1.03,0.18C88.8,23.97,88.57,23.94,88.34,23.9z"/>
		<path class="st1" d="M93.67,18.94h0.94v4.98h-0.94V18.94z M94.02,18.94h2.93v0.9h-2.93V18.94z M94.02,21.04h2.55v0.9h-2.55V21.04z
			"/>
		<path class="st1" d="M98.36,23.74c-0.27-0.15-0.49-0.37-0.64-0.64c-0.15-0.28-0.23-0.6-0.23-0.96v-1.41
			c0-0.37,0.08-0.69,0.23-0.96c0.15-0.28,0.36-0.49,0.64-0.64c0.28-0.15,0.59-0.23,0.95-0.23c0.36,0,0.68,0.08,0.95,0.23
			c0.28,0.15,0.49,0.37,0.64,0.64c0.15,0.28,0.23,0.6,0.23,0.96v1.41c0,0.37-0.08,0.69-0.23,0.96c-0.15,0.28-0.36,0.49-0.64,0.64
			c-0.27,0.15-0.59,0.23-0.95,0.23C98.95,23.97,98.63,23.89,98.36,23.74z M99.75,22.92c0.13-0.07,0.23-0.17,0.3-0.31
			c0.07-0.13,0.1-0.29,0.1-0.46V20.7c0-0.17-0.04-0.33-0.1-0.46c-0.07-0.13-0.17-0.23-0.3-0.31c-0.13-0.07-0.28-0.11-0.45-0.11
			s-0.32,0.04-0.45,0.11c-0.13,0.07-0.23,0.17-0.3,0.31c-0.07,0.13-0.1,0.29-0.1,0.46v1.46c0,0.17,0.03,0.33,0.1,0.46
			c0.07,0.13,0.17,0.23,0.3,0.31c0.13,0.07,0.28,0.11,0.45,0.11S99.63,22.99,99.75,22.92z"/>
		<path class="st1" d="M102.05,18.93h0.94v4.98h-0.94V18.93z M102.43,21.01h1.73c0.1,0,0.18-0.02,0.25-0.07
			c0.07-0.05,0.13-0.12,0.17-0.21c0.04-0.09,0.06-0.19,0.06-0.31c0-0.12-0.02-0.22-0.06-0.31s-0.1-0.16-0.17-0.21
			c-0.07-0.05-0.16-0.07-0.26-0.07h-1.73v-0.9h1.81c0.27,0,0.51,0.06,0.72,0.19c0.21,0.12,0.37,0.3,0.48,0.52
			c0.11,0.23,0.17,0.49,0.17,0.78s-0.06,0.56-0.17,0.78s-0.28,0.4-0.48,0.52c-0.21,0.12-0.45,0.18-0.72,0.18h-1.81V21.01z
			 M103.47,21.76l1-0.16l1.34,2.31h-1.14L103.47,21.76z"/>
		<path class="st1" d="M108.63,18.94h0.75l0.95,3.32l0.64-3.32h0.97l-1.15,4.98h-0.88l-0.88-3.48l-0.92,3.48h-0.88l-1.15-4.98h0.97
			l0.64,3.32L108.63,18.94z"/>
		<path class="st1" d="M113.64,18.94h0.6l1.9,4.98h-1.01l-1.19-3.4l-1.19,3.4h-1.01L113.64,18.94z M112.65,22.22h2.62v0.9h-2.62
			V22.22z"/>
		<path class="st1" d="M116.76,18.93h0.94v4.98h-0.94V18.93z M117.13,21.01h1.73c0.1,0,0.18-0.02,0.25-0.07
			c0.07-0.05,0.13-0.12,0.17-0.21c0.04-0.09,0.06-0.19,0.06-0.31c0-0.12-0.02-0.22-0.06-0.31s-0.1-0.16-0.17-0.21
			c-0.07-0.05-0.16-0.07-0.26-0.07h-1.73v-0.9h1.81c0.27,0,0.51,0.06,0.72,0.19c0.21,0.12,0.37,0.3,0.48,0.52
			c0.11,0.23,0.17,0.49,0.17,0.78s-0.06,0.56-0.17,0.78s-0.28,0.4-0.48,0.52c-0.21,0.12-0.45,0.18-0.72,0.18h-1.81V21.01z
			 M118.18,21.76l1-0.16l1.34,2.31h-1.14L118.18,21.76z"/>
		<path class="st1" d="M121.33,18.94h0.94v4.98h-0.94V18.94z M121.8,23.01h1.2c0.31,0,0.55-0.07,0.72-0.22s0.25-0.36,0.25-0.63
			v-1.46c0-0.27-0.08-0.48-0.25-0.63s-0.41-0.22-0.72-0.22h-1.2v-0.9h1.17c0.42,0,0.77,0.07,1.06,0.21
			c0.29,0.14,0.52,0.34,0.67,0.61c0.15,0.27,0.23,0.59,0.23,0.97v1.41c0,0.36-0.07,0.67-0.22,0.94c-0.15,0.27-0.37,0.47-0.66,0.62
			c-0.29,0.15-0.66,0.22-1.08,0.22h-1.17V23.01z"/>
		<path class="st1" d="M127.82,18.94h0.94v4.98h-0.94V18.94z M128.23,23.01h1.59c0.21,0,0.38-0.05,0.5-0.16s0.18-0.25,0.18-0.44
			v-0.01c0-0.13-0.03-0.23-0.08-0.32s-0.13-0.16-0.23-0.2s-0.22-0.07-0.36-0.07h-1.59v-0.9h1.59c0.19,0,0.34-0.05,0.45-0.15
			c0.11-0.1,0.16-0.24,0.16-0.42c0-0.16-0.05-0.28-0.16-0.37s-0.26-0.13-0.45-0.13h-1.59v-0.9h1.62c0.32,0,0.6,0.05,0.83,0.16
			c0.23,0.11,0.4,0.26,0.52,0.46c0.12,0.2,0.18,0.45,0.18,0.73c0,0.19-0.04,0.37-0.12,0.52c-0.08,0.15-0.19,0.27-0.33,0.37
			c-0.15,0.1-0.32,0.16-0.53,0.2c0.22,0.03,0.41,0.1,0.56,0.2s0.28,0.24,0.36,0.41c0.08,0.17,0.12,0.36,0.12,0.58v0.01
			c0,0.29-0.06,0.53-0.18,0.73c-0.12,0.2-0.29,0.36-0.52,0.46s-0.5,0.16-0.83,0.16h-1.68V23.01z"/>
		<path class="st1" d="M133.67,18.94h0.6l1.9,4.98h-1.01l-1.19-3.4l-1.19,3.4h-1.01L133.67,18.94z M132.68,22.22h2.62v0.9h-2.62
			V22.22z"/>
		<path class="st1" d="M137.38,23.9c-0.23-0.05-0.44-0.12-0.64-0.21c-0.2-0.09-0.38-0.2-0.54-0.33l0.44-0.77
			c0.19,0.16,0.41,0.28,0.66,0.37c0.25,0.08,0.51,0.13,0.77,0.13c0.31,0,0.54-0.05,0.71-0.16c0.17-0.1,0.25-0.25,0.25-0.44v0
			c0-0.13-0.04-0.24-0.11-0.32c-0.08-0.08-0.17-0.13-0.29-0.17c-0.12-0.04-0.28-0.07-0.47-0.1c-0.01,0-0.01,0-0.02,0s-0.01,0-0.02,0
			l-0.08-0.01c-0.33-0.05-0.61-0.12-0.83-0.2c-0.22-0.08-0.41-0.22-0.56-0.42c-0.15-0.2-0.23-0.48-0.23-0.84v0
			c0-0.32,0.07-0.6,0.22-0.83c0.14-0.23,0.35-0.4,0.63-0.52c0.27-0.12,0.6-0.18,0.99-0.18c0.18,0,0.36,0.02,0.55,0.06
			c0.19,0.04,0.37,0.1,0.55,0.18c0.18,0.08,0.35,0.17,0.51,0.28l-0.4,0.79c-0.19-0.13-0.39-0.24-0.6-0.31s-0.41-0.11-0.6-0.11
			c-0.29,0-0.51,0.05-0.67,0.14s-0.24,0.23-0.24,0.4v0c0,0.14,0.04,0.26,0.12,0.34c0.08,0.08,0.18,0.14,0.3,0.18
			c0.12,0.04,0.29,0.08,0.51,0.12c0.01,0,0.02,0,0.03,0c0.01,0,0.02,0,0.03,0.01c0.01,0,0.03,0,0.04,0.01
			c0.01,0,0.03,0.01,0.04,0.01c0.31,0.06,0.58,0.14,0.79,0.22s0.39,0.23,0.53,0.42s0.21,0.46,0.21,0.8v0.01
			c0,0.32-0.07,0.59-0.22,0.82s-0.36,0.4-0.65,0.52c-0.28,0.12-0.63,0.18-1.03,0.18C137.83,23.97,137.6,23.94,137.38,23.9z"/>
		<path class="st1" d="M140.76,18.94h0.94v4.98h-0.94V18.94z M141.1,18.94h3v0.9h-3V18.94z M141.1,20.99h2.62v0.9h-2.62V20.99z
			 M141.1,23.01h3v0.9h-3V23.01z"/>
	</g>
</g>
</svg>
