<?xml version="1.0" encoding="utf-8"?>
<!-- Generator: Adobe Illustrator 24.2.0, SVG Export Plug-In . SVG Version: 6.00 Build 0)  -->
<svg version="1.1" id="Layer_1" xmlns="http://www.w3.org/2000/svg" xmlns:xlink="http://www.w3.org/1999/xlink" x="0px" y="0px"
	 viewBox="0 0 148.24 35.91" style="enable-background:new 0 0 148.24 35.91;" xml:space="preserve">
<style type="text/css">
	.st0{fill:#1A2523;}
	.st1{fill:#DEE0DE;}
</style>
<g>
	<g>
		<rect x="39.53" y="12.33" class="st0" width="101.85" height="12.61"/>
	</g>
</g>
<g>
	<path class="st1" d="M45.2,21.19c-0.27-0.15-0.49-0.37-0.64-0.64c-0.15-0.28-0.23-0.6-0.23-0.96v-1.41c0-0.37,0.08-0.69,0.23-0.96
		c0.15-0.28,0.36-0.49,0.64-0.64c0.28-0.15,0.59-0.23,0.95-0.23c0.36,0,0.68,0.08,0.95,0.23c0.27,0.15,0.49,0.37,0.64,0.64
		c0.15,0.28,0.23,0.6,0.23,0.96v1.41c0,0.37-0.08,0.69-0.23,0.96c-0.15,0.28-0.36,0.49-0.64,0.64c-0.28,0.15-0.59,0.23-0.95,0.23
		C45.79,21.42,45.47,21.34,45.2,21.19z M46.6,20.37c0.13-0.07,0.23-0.17,0.3-0.31c0.07-0.13,0.1-0.29,0.1-0.46v-1.46
		c0-0.17-0.04-0.33-0.1-0.46c-0.07-0.13-0.17-0.23-0.3-0.31c-0.13-0.07-0.28-0.11-0.44-0.11s-0.32,0.04-0.45,0.11
		c-0.13,0.07-0.23,0.17-0.3,0.31c-0.07,0.13-0.1,0.29-0.1,0.46v1.46c0,0.17,0.04,0.33,0.1,0.46c0.07,0.13,0.17,0.23,0.3,0.31
		c0.13,0.07,0.28,0.11,0.45,0.11S46.47,20.44,46.6,20.37z"/>
	<path class="st1" d="M49.55,21.2c-0.27-0.14-0.48-0.36-0.62-0.63c-0.14-0.28-0.21-0.61-0.21-1v-1.37c0-0.39,0.07-0.73,0.21-1
		c0.14-0.28,0.35-0.49,0.62-0.64c0.27-0.15,0.59-0.22,0.97-0.22c0.31,0,0.59,0.07,0.84,0.2s0.45,0.33,0.61,0.59
		c0.16,0.26,0.27,0.57,0.33,0.93h-0.97c-0.04-0.16-0.09-0.3-0.17-0.42c-0.08-0.12-0.17-0.21-0.28-0.27s-0.23-0.09-0.36-0.09
		c-0.18,0-0.33,0.04-0.45,0.11c-0.12,0.07-0.22,0.18-0.28,0.32c-0.06,0.14-0.1,0.3-0.1,0.5v1.37c0,0.19,0.03,0.36,0.1,0.5
		c0.07,0.14,0.16,0.24,0.28,0.31c0.12,0.07,0.27,0.11,0.45,0.11c0.14,0,0.26-0.03,0.37-0.09s0.2-0.15,0.28-0.27
		c0.08-0.12,0.13-0.26,0.16-0.42h0.97c-0.06,0.36-0.18,0.67-0.34,0.93c-0.16,0.26-0.36,0.45-0.61,0.59c-0.25,0.13-0.52,0.2-0.84,0.2
		C50.14,21.42,49.82,21.34,49.55,21.2z"/>
	<path class="st1" d="M53.75,21.2c-0.27-0.14-0.48-0.36-0.62-0.63c-0.14-0.28-0.21-0.61-0.21-1v-1.37c0-0.39,0.07-0.73,0.21-1
		c0.14-0.28,0.35-0.49,0.62-0.64c0.27-0.15,0.59-0.22,0.97-0.22c0.31,0,0.59,0.07,0.84,0.2s0.45,0.33,0.61,0.59
		c0.16,0.26,0.27,0.57,0.33,0.93h-0.97c-0.04-0.16-0.09-0.3-0.17-0.42c-0.08-0.12-0.17-0.21-0.28-0.27s-0.23-0.09-0.36-0.09
		c-0.18,0-0.33,0.04-0.45,0.11c-0.12,0.07-0.22,0.18-0.28,0.32c-0.06,0.14-0.1,0.3-0.1,0.5v1.37c0,0.19,0.03,0.36,0.1,0.5
		c0.07,0.14,0.16,0.24,0.28,0.31c0.12,0.07,0.27,0.11,0.45,0.11c0.14,0,0.26-0.03,0.37-0.09s0.2-0.15,0.28-0.27
		c0.08-0.12,0.13-0.26,0.16-0.42h0.97c-0.06,0.36-0.18,0.67-0.34,0.93c-0.16,0.26-0.36,0.45-0.61,0.59c-0.25,0.13-0.52,0.2-0.84,0.2
		C54.35,21.42,54.02,21.34,53.75,21.2z"/>
	<path class="st1" d="M57.99,21.2c-0.27-0.14-0.48-0.36-0.62-0.63c-0.14-0.28-0.21-0.61-0.21-1v-3.18h0.94v3.2
		c0,0.29,0.08,0.51,0.23,0.67c0.15,0.16,0.37,0.24,0.65,0.24c0.28,0,0.5-0.08,0.65-0.24c0.15-0.16,0.23-0.38,0.23-0.67v-3.2h0.94
		v3.18c0,0.39-0.07,0.72-0.21,1c-0.14,0.28-0.35,0.49-0.62,0.63c-0.27,0.15-0.6,0.22-0.98,0.22C58.59,21.42,58.26,21.34,57.99,21.2z
		"/>
	<path class="st1" d="M61.76,16.39h0.94v4.98h-0.94V16.39z M62.17,20.46h2.92v0.9h-2.92V20.46z"/>
	<path class="st1" d="M64.88,16.39h3.65v0.9h-3.65V16.39z M66.24,16.79h0.94v4.57h-0.94V16.79z"/>
	<path class="st1" d="M69.99,21.36h-0.97v-4.98h0.97V21.36z"/>
	<path class="st1" d="M71.88,21.34c-0.23-0.05-0.44-0.12-0.64-0.21c-0.2-0.09-0.38-0.2-0.54-0.33l0.44-0.77
		c0.19,0.16,0.41,0.28,0.66,0.37c0.25,0.08,0.51,0.13,0.77,0.13c0.31,0,0.54-0.05,0.71-0.16c0.17-0.1,0.25-0.25,0.25-0.44v0
		c0-0.13-0.04-0.24-0.11-0.32c-0.08-0.08-0.17-0.13-0.29-0.17c-0.12-0.04-0.28-0.07-0.47-0.1c-0.01,0-0.01,0-0.02,0
		c-0.01,0-0.01,0-0.02,0l-0.08-0.01c-0.33-0.05-0.61-0.12-0.83-0.2c-0.22-0.08-0.41-0.22-0.56-0.42c-0.15-0.2-0.23-0.48-0.23-0.84v0
		c0-0.32,0.07-0.6,0.22-0.83c0.14-0.23,0.35-0.4,0.63-0.52c0.27-0.12,0.6-0.18,0.99-0.18c0.18,0,0.36,0.02,0.55,0.06
		s0.37,0.1,0.55,0.18s0.35,0.17,0.51,0.28l-0.4,0.79c-0.19-0.13-0.39-0.24-0.6-0.31c-0.21-0.07-0.41-0.11-0.6-0.11
		c-0.29,0-0.51,0.05-0.67,0.14c-0.16,0.09-0.24,0.23-0.24,0.4v0c0,0.14,0.04,0.26,0.12,0.34c0.08,0.08,0.18,0.14,0.3,0.18
		s0.29,0.08,0.51,0.12c0.01,0,0.02,0,0.03,0c0.01,0,0.02,0,0.03,0.01c0.01,0,0.03,0,0.04,0.01c0.01,0,0.03,0.01,0.04,0.01
		c0.32,0.06,0.58,0.14,0.79,0.22c0.21,0.09,0.39,0.23,0.53,0.42s0.21,0.46,0.21,0.8v0.01c0,0.32-0.07,0.59-0.22,0.82
		s-0.36,0.4-0.65,0.52c-0.28,0.12-0.63,0.18-1.03,0.18C72.34,21.42,72.11,21.39,71.88,21.34z"/>
	<path class="st1" d="M74.65,16.39h3.65v0.9h-3.65V16.39z M76,16.79h0.94v4.57H76V16.79z"/>
	<path class="st1" d="M81.35,21.19c-0.27-0.15-0.49-0.37-0.64-0.64c-0.15-0.28-0.23-0.6-0.23-0.96v-1.41c0-0.37,0.08-0.69,0.23-0.96
		c0.15-0.28,0.36-0.49,0.64-0.64c0.28-0.15,0.59-0.23,0.95-0.23s0.68,0.08,0.95,0.23c0.27,0.15,0.49,0.37,0.64,0.64
		c0.15,0.28,0.23,0.6,0.23,0.96v1.41c0,0.37-0.08,0.69-0.23,0.96c-0.15,0.28-0.36,0.49-0.64,0.64c-0.28,0.15-0.59,0.23-0.95,0.23
		S81.63,21.34,81.35,21.19z M82.75,20.37c0.13-0.07,0.23-0.17,0.3-0.31c0.07-0.13,0.1-0.29,0.1-0.46v-1.46
		c0-0.17-0.04-0.33-0.1-0.46s-0.17-0.23-0.3-0.31c-0.13-0.07-0.28-0.11-0.45-0.11s-0.32,0.04-0.45,0.11
		c-0.13,0.07-0.23,0.17-0.3,0.31s-0.1,0.29-0.1,0.46v1.46c0,0.17,0.04,0.33,0.1,0.46c0.07,0.13,0.17,0.23,0.3,0.31
		c0.13,0.07,0.28,0.11,0.45,0.11S82.62,20.44,82.75,20.37z"/>
	<path class="st1" d="M85.05,16.39h0.94v4.98h-0.94V16.39z M85.48,18.53h1.59c0.11,0,0.21-0.03,0.3-0.08s0.15-0.12,0.2-0.22
		s0.07-0.2,0.07-0.32c0-0.12-0.02-0.23-0.07-0.33s-0.11-0.17-0.2-0.22c-0.08-0.05-0.19-0.08-0.3-0.08h-1.59v-0.9h1.57
		c0.31,0,0.58,0.06,0.82,0.19c0.24,0.13,0.42,0.31,0.55,0.54c0.13,0.23,0.2,0.5,0.2,0.8s-0.07,0.57-0.2,0.8
		c-0.13,0.23-0.31,0.41-0.55,0.53c-0.24,0.13-0.51,0.19-0.82,0.19h-1.57V18.53z"/>
	<path class="st1" d="M90.22,21.34c-0.23-0.05-0.44-0.12-0.64-0.21c-0.2-0.09-0.38-0.2-0.54-0.33l0.44-0.77
		c0.19,0.16,0.41,0.28,0.66,0.37c0.25,0.08,0.51,0.13,0.77,0.13c0.31,0,0.54-0.05,0.71-0.16c0.17-0.1,0.25-0.25,0.25-0.44v0
		c0-0.13-0.04-0.24-0.11-0.32c-0.08-0.08-0.17-0.13-0.29-0.17c-0.12-0.04-0.28-0.07-0.47-0.1c-0.01,0-0.01,0-0.02,0
		c-0.01,0-0.01,0-0.02,0l-0.08-0.01c-0.33-0.05-0.61-0.12-0.83-0.2c-0.22-0.08-0.41-0.22-0.56-0.42c-0.15-0.2-0.23-0.48-0.23-0.84v0
		c0-0.32,0.07-0.6,0.22-0.83c0.14-0.23,0.35-0.4,0.63-0.52c0.27-0.12,0.6-0.18,0.99-0.18c0.18,0,0.36,0.02,0.55,0.06
		c0.19,0.04,0.37,0.1,0.55,0.18c0.18,0.08,0.35,0.17,0.51,0.28l-0.4,0.79c-0.19-0.13-0.39-0.24-0.6-0.31
		c-0.21-0.07-0.41-0.11-0.6-0.11c-0.29,0-0.51,0.05-0.67,0.14s-0.24,0.23-0.24,0.4v0c0,0.14,0.04,0.26,0.12,0.34
		c0.08,0.08,0.18,0.14,0.3,0.18s0.29,0.08,0.51,0.12c0.01,0,0.02,0,0.03,0c0.01,0,0.02,0,0.03,0.01c0.01,0,0.03,0,0.04,0.01
		c0.01,0,0.03,0.01,0.04,0.01c0.32,0.06,0.58,0.14,0.79,0.22c0.21,0.09,0.39,0.23,0.53,0.42s0.21,0.46,0.21,0.8v0.01
		c0,0.32-0.07,0.59-0.22,0.82s-0.36,0.4-0.65,0.52c-0.28,0.12-0.63,0.18-1.03,0.18C90.68,21.42,90.44,21.39,90.22,21.34z"/>
	<path class="st1" d="M95.55,16.39h0.94v4.98h-0.94V16.39z M95.98,18.44h2.9v0.9h-2.9V18.44z M98.28,16.39h0.94v4.98h-0.94V16.39z"
		/>
	<path class="st1" d="M101.21,21.36h-0.97v-4.98h0.97V21.36z"/>
	<path class="st1" d="M102.24,16.39h0.94v4.98h-0.94V16.39z M102.71,20.46h1.19c0.31,0,0.55-0.07,0.72-0.22s0.25-0.36,0.25-0.63
		v-1.46c0-0.27-0.08-0.48-0.25-0.63s-0.41-0.22-0.72-0.22h-1.19v-0.9h1.17c0.42,0,0.77,0.07,1.06,0.21
		c0.29,0.14,0.52,0.34,0.67,0.61c0.15,0.27,0.23,0.59,0.23,0.97v1.41c0,0.36-0.07,0.67-0.22,0.94c-0.15,0.27-0.37,0.47-0.66,0.62
		s-0.66,0.22-1.08,0.22h-1.17V20.46z"/>
	<path class="st1" d="M106.77,16.39h0.94v4.98h-0.94V16.39z M107.25,20.46h1.2c0.31,0,0.55-0.07,0.72-0.22s0.25-0.36,0.25-0.63
		v-1.46c0-0.27-0.08-0.48-0.25-0.63s-0.41-0.22-0.72-0.22h-1.2v-0.9h1.17c0.42,0,0.77,0.07,1.06,0.21c0.29,0.14,0.52,0.34,0.67,0.61
		c0.15,0.27,0.23,0.59,0.23,0.97v1.41c0,0.36-0.07,0.67-0.22,0.94c-0.15,0.27-0.37,0.47-0.66,0.62c-0.29,0.15-0.65,0.22-1.08,0.22
		h-1.17V20.46z"/>
	<path class="st1" d="M111.31,16.39h0.94v4.98h-0.94V16.39z M111.65,16.39h3v0.9h-3V16.39z M111.65,18.44h2.62v0.9h-2.62V18.44z
		 M111.65,20.46h3v0.9h-3V20.46z"/>
	<path class="st1" d="M115.5,16.39h1.15l1.85,3.81l-0.08,0.09v-3.9h0.9v4.98h-1.15l-1.85-3.76l0.08-0.09v3.85h-0.9V16.39z"/>
	<path class="st1" d="M123.02,21.2c-0.27-0.14-0.47-0.36-0.62-0.63c-0.14-0.28-0.21-0.61-0.21-1v-1.37c0-0.39,0.07-0.73,0.21-1
		s0.35-0.49,0.62-0.64s0.59-0.22,0.97-0.22c0.31,0,0.59,0.07,0.84,0.2c0.25,0.13,0.45,0.33,0.61,0.59s0.27,0.57,0.33,0.93h-0.97
		c-0.04-0.16-0.09-0.3-0.17-0.42c-0.08-0.12-0.17-0.21-0.28-0.27s-0.23-0.09-0.36-0.09c-0.18,0-0.33,0.04-0.45,0.11
		c-0.12,0.07-0.22,0.18-0.28,0.32c-0.06,0.14-0.1,0.3-0.1,0.5v1.37c0,0.19,0.03,0.36,0.1,0.5c0.07,0.14,0.16,0.24,0.28,0.31
		c0.12,0.07,0.27,0.11,0.45,0.11c0.14,0,0.26-0.03,0.37-0.09s0.2-0.15,0.28-0.27c0.08-0.12,0.13-0.26,0.16-0.42h0.97
		c-0.06,0.36-0.18,0.67-0.34,0.93c-0.16,0.26-0.36,0.45-0.61,0.59c-0.25,0.13-0.52,0.2-0.84,0.2
		C123.61,21.42,123.29,21.34,123.02,21.2z"/>
	<path class="st1" d="M126.56,16.39h0.94v4.98h-0.94V16.39z M126.9,16.39h3v0.9h-3V16.39z M126.9,18.44h2.62v0.9h-2.62V18.44z
		 M126.9,20.46h3v0.9h-3V20.46z"/>
	<path class="st1" d="M130.75,16.39h0.94v4.98h-0.94V16.39z M131.17,20.46h2.92v0.9h-2.92V20.46z"/>
	<path class="st1" d="M134.78,16.39h0.94v4.98h-0.94V16.39z M135.19,20.46h2.92v0.9h-2.92V20.46z"/>
</g>
<g>
	<path class="st0" d="M34.26,18.09c0.01,0,0.03,0,0.04,0.01c-0.04-0.39-0.05-0.78-0.12-1.16c-0.06-0.33-0.17-0.66-0.25-0.98
		c-0.02-0.09-0.01-0.2-0.06-0.29c-0.5-0.94-0.67-2.01-1.2-2.93c-0.57-1.01-1.13-2.03-1.81-2.96c-0.67-0.92-1.45-1.78-2.25-2.59
		c-1.58-1.58-3.56-2.39-5.79-2.57C21.56,4.51,20.27,4.44,19,4.49c-1.38,0.06-2.71,0.41-4.01,0.93c-4.17,1.66-7.14,4.54-9.04,8.47
		c-0.93,1.93-1.17,3.98-0.78,6.13c0.25,1.42,0.61,2.79,1.25,4.08c0.88,1.77,2.17,3.21,3.79,4.4c0.79,0.58,1.6,0.91,2.59,1.05
		c0.76,0.1,1.47,0.57,2.2,0.89c1.62,0.73,3.33,1.12,5.1,1.31c0.18,0.02,0.35,0.08,0.53,0.12c0.56,0,1.12,0,1.69,0
		c0.87-0.12,1.75-0.18,2.61-0.36c2.26-0.48,3.97-1.81,5.42-3.49c0.51-0.59,0.95-1.24,1.43-1.85c0.31-0.38,0.62-0.76,0.96-1.12
		c1.12-1.19,1.47-2.67,1.75-4.19c0.02-0.13,0.07-0.26,0.11-0.4c0-0.31,0-0.63,0-0.94C34.48,19.04,34.37,18.56,34.26,18.09z
		 M29.08,24.07c-0.76,1.33-1.67,2.56-3.02,3.36c-0.54,0.32-1.25,0.38-1.88,0.55c-0.45,0.12-0.91,0.24-1.38,0.29
		c-1.09,0.13-2.18,0.32-3.27,0.3c-1.76-0.04-3.37-0.62-4.77-1.67c-0.76-0.57-1.48-1.19-2.21-1.8c-0.14-0.12-0.25-0.29-0.48-0.56
		c5.77-0.9,11.41-1.13,17.14-0.86C29.16,23.8,29.15,23.95,29.08,24.07z M29.09,21.28c-2.22,0.02-4.45-0.03-6.67,0.05
		c-2.26,0.07-4.52,0.23-6.78,0.39c-0.92,0.07-1.83,0.24-2.74,0.35c-0.76,0.09-0.89-0.03-0.94-0.76c0-0.04,0-0.08-0.01-0.12
		c-0.58-2.05,0.73-3.27,2.1-4.43c0.43-0.37,0.95-0.65,1.46-0.93c0.45-0.25,0.6-0.11,0.71,0.39c0.17,0.71,0.38,1.42,0.63,2.11
		c0.44,1.22,1.42,1.68,2.67,1.7c1.53,0.02,2.91-0.3,3.81-1.66c0.4-0.6,0.59-1.23,0.45-1.95c-0.05-0.27-0.01-0.56-0.01-0.94
		c2.7,1.04,4.85,2.44,5.79,5.12C29.76,21.13,29.69,21.27,29.09,21.28z M30.62,17.3c-0.63-1.03-1.48-1.83-2.51-2.47
		c-2.93-1.83-6.07-2.94-9.6-2.69c-3.38,0.25-6.32,1.41-8.38,4.18c-0.4,0.54-0.64,1.19-0.98,1.83c-0.1-1,0.05-1.92,0.52-2.8
		c1.13-2.1,2.73-3.81,4.74-5.13c1.58-1.05,3.28-1.89,5.13-2.39c2.01-0.55,3.9-0.24,5.65,0.8c2,1.18,3.4,2.92,4.45,4.9
		c0.48,0.91,0.73,1.93,1.06,2.91c0.08,0.25,0.06,0.53,0.08,0.8C30.73,17.26,30.67,17.28,30.62,17.3z"/>
</g>
</svg>
