<?xml version="1.0" encoding="utf-8"?>
<!-- Generator: Adobe Illustrator 24.2.0, SVG Export Plug-In . SVG Version: 6.00 Build 0)  -->
<svg version="1.1" id="Layer_1" xmlns="http://www.w3.org/2000/svg" xmlns:xlink="http://www.w3.org/1999/xlink" x="0px" y="0px"
	 viewBox="0 0 108.26 35.91" style="enable-background:new 0 0 108.26 35.91;" xml:space="preserve">
<style type="text/css">
	.st0{fill:#1A2523;}
	.st1{fill:#DEE0DE;}
</style>
<g>
	<g>
		<g>
			<rect x="39.55" y="12.37" class="st0" width="62.75" height="12.61"/>
		</g>
	</g>
	<g>
		<path class="st1" d="M44.45,16.42h0.94v4.98h-0.94V16.42z M44.88,18.57h1.59c0.11,0,0.21-0.03,0.3-0.08
			c0.09-0.05,0.15-0.12,0.2-0.22c0.05-0.09,0.07-0.2,0.07-0.32c0-0.12-0.02-0.23-0.07-0.33s-0.11-0.17-0.2-0.22
			c-0.09-0.05-0.19-0.08-0.3-0.08h-1.59v-0.9h1.57c0.31,0,0.58,0.06,0.82,0.19s0.42,0.31,0.55,0.54c0.13,0.23,0.2,0.5,0.2,0.8
			c0,0.3-0.07,0.57-0.2,0.8c-0.13,0.23-0.31,0.41-0.55,0.53c-0.24,0.13-0.51,0.19-0.82,0.19h-1.57V18.57z"/>
		<path class="st1" d="M49.51,21.22c-0.27-0.15-0.49-0.37-0.64-0.64c-0.15-0.28-0.23-0.6-0.23-0.96v-1.41
			c0-0.37,0.08-0.69,0.23-0.96c0.15-0.28,0.36-0.49,0.64-0.64c0.28-0.15,0.59-0.23,0.95-0.23c0.36,0,0.68,0.08,0.95,0.23
			c0.27,0.15,0.49,0.37,0.64,0.64c0.15,0.28,0.23,0.6,0.23,0.96v1.41c0,0.37-0.08,0.69-0.23,0.96c-0.15,0.28-0.36,0.49-0.64,0.64
			c-0.28,0.15-0.59,0.23-0.95,0.23C50.1,21.45,49.79,21.38,49.51,21.22z M50.91,20.41c0.13-0.07,0.23-0.17,0.3-0.31
			c0.07-0.13,0.1-0.29,0.1-0.46v-1.46c0-0.17-0.04-0.33-0.1-0.46c-0.07-0.13-0.17-0.23-0.3-0.31c-0.13-0.07-0.28-0.11-0.44-0.11
			s-0.32,0.04-0.45,0.11c-0.13,0.07-0.23,0.17-0.3,0.31c-0.07,0.13-0.1,0.29-0.1,0.46v1.46c0,0.17,0.04,0.33,0.1,0.46
			c0.07,0.13,0.17,0.23,0.3,0.31c0.13,0.07,0.28,0.11,0.45,0.11S50.78,20.48,50.91,20.41z"/>
		<path class="st1" d="M53.21,16.42h0.94v4.98h-0.94V16.42z M53.62,20.5h2.92v0.9h-2.92V20.5z"/>
		<path class="st1" d="M58.13,21.4h-0.97v-4.98h0.97V21.4z"/>
		<path class="st1" d="M58.78,16.42h0.97l1.06,3.32l1.06-3.32h0.97l-1.66,4.98h-0.73L58.78,16.42z"/>
		<path class="st1" d="M64.35,21.4h-0.97v-4.98h0.97V21.4z"/>
		<path class="st1" d="M66.73,16.42h0.6l1.9,4.98h-1.01L67.03,18l-1.19,3.4h-1.01L66.73,16.42z M65.74,19.7h2.62v0.9h-2.62V19.7z"/>
		<path class="st1" d="M69.85,16.42H71l1.85,3.81l-0.08,0.09v-3.9h0.9v4.97h-1.15l-1.85-3.76l0.08-0.09v3.84h-0.9V16.42z"/>
		<path class="st1" d="M77.13,21.29c-0.24-0.11-0.42-0.27-0.56-0.48c-0.14-0.21-0.22-0.46-0.23-0.75h0.97
			c0.01,0.1,0.04,0.19,0.09,0.26c0.05,0.07,0.11,0.13,0.18,0.16s0.16,0.06,0.25,0.06c0.18,0,0.32-0.05,0.41-0.15
			c0.1-0.1,0.15-0.24,0.15-0.42v-0.12c0-0.19-0.04-0.34-0.12-0.44s-0.19-0.15-0.34-0.15h-0.42v-0.9h0.42c0.12,0,0.21-0.04,0.28-0.13
			c0.07-0.09,0.1-0.22,0.1-0.38v-0.08c0-0.15-0.04-0.27-0.11-0.35c-0.07-0.08-0.17-0.13-0.3-0.13c-0.08,0-0.16,0.02-0.23,0.06
			c-0.07,0.04-0.13,0.11-0.18,0.19s-0.08,0.18-0.1,0.3h-0.97c0.03-0.3,0.11-0.57,0.25-0.79c0.14-0.22,0.31-0.39,0.53-0.5
			c0.22-0.12,0.46-0.17,0.73-0.17c0.44,0,0.78,0.11,1.02,0.34c0.24,0.23,0.36,0.54,0.36,0.96v0.15c0,0.23-0.06,0.43-0.17,0.6
			s-0.28,0.3-0.5,0.38c0.24,0.05,0.42,0.18,0.56,0.38c0.13,0.2,0.2,0.45,0.2,0.75v0.15c0,0.29-0.06,0.54-0.17,0.74
			c-0.11,0.21-0.28,0.36-0.5,0.47c-0.22,0.11-0.48,0.16-0.79,0.16C77.63,21.45,77.36,21.4,77.13,21.29z"/>
		<path class="st1" d="M80.63,21.08c-0.25-0.25-0.38-0.6-0.38-1.04v-2.26c0-0.45,0.13-0.79,0.38-1.04c0.25-0.25,0.62-0.37,1.11-0.37
			c0.49,0,0.86,0.12,1.11,0.37c0.25,0.25,0.38,0.59,0.38,1.04v2.26c0,0.45-0.13,0.8-0.38,1.04c-0.25,0.25-0.62,0.37-1.11,0.37
			C81.25,21.45,80.88,21.33,80.63,21.08z M82.16,20.36c0.09-0.13,0.13-0.31,0.13-0.56v-1.78c0-0.24-0.04-0.43-0.13-0.56
			s-0.23-0.19-0.42-0.19s-0.33,0.06-0.42,0.19s-0.13,0.31-0.13,0.56v1.78c0,0.24,0.04,0.43,0.13,0.56s0.23,0.19,0.42,0.19
			S82.07,20.48,82.16,20.36z"/>
		<path class="st1" d="M85.46,21.4h-0.94v-3.88l-0.61,0.23v-1l0.74-0.33h0.8V21.4z"/>
		<path class="st1" d="M88.44,16.42h0.94v4.98h-0.94V16.42z M88.87,18.48h2.9v0.9h-2.9V18.48z M91.16,16.42h0.94v4.98h-0.94V16.42z"
			/>
		<path class="st1" d="M93.96,21.22c-0.28-0.15-0.49-0.37-0.64-0.64s-0.23-0.6-0.23-0.96v-1.41c0-0.37,0.08-0.69,0.23-0.96
			s0.36-0.49,0.64-0.64c0.28-0.15,0.59-0.23,0.95-0.23c0.36,0,0.68,0.08,0.95,0.23c0.28,0.15,0.49,0.37,0.64,0.64
			s0.23,0.6,0.23,0.96v1.41c0,0.37-0.08,0.69-0.23,0.96s-0.36,0.49-0.64,0.64c-0.28,0.15-0.59,0.23-0.95,0.23
			C94.55,21.45,94.23,21.38,93.96,21.22z M95.36,20.41c0.13-0.07,0.23-0.17,0.3-0.31c0.07-0.13,0.1-0.29,0.1-0.46v-1.46
			c0-0.17-0.04-0.33-0.1-0.46c-0.07-0.13-0.17-0.23-0.3-0.31c-0.13-0.07-0.28-0.11-0.44-0.11s-0.32,0.04-0.45,0.11
			c-0.13,0.07-0.23,0.17-0.3,0.31c-0.07,0.13-0.1,0.29-0.1,0.46v1.46c0,0.17,0.04,0.33,0.1,0.46c0.07,0.13,0.17,0.23,0.3,0.31
			c0.13,0.07,0.28,0.11,0.45,0.11S95.23,20.48,95.36,20.41z M94.76,20.02l0.5-0.63l1.92,1.46l-0.5,0.64L94.76,20.02z"/>
	</g>
	<g>
		<g>
			<g>
				<path class="st0" d="M33.93,32.14l-13.48,0l-13.48,0c-0.97,0-1.84-0.5-2.32-1.34c-0.48-0.84-0.48-1.84,0-2.68L18.14,4.78
					c0.48-0.84,1.35-1.34,2.32-1.34c0,0,0,0,0,0c0.97,0,1.84,0.5,2.32,1.34l13.48,23.34c0.48,0.84,0.48,1.84,0,2.68
					C35.77,31.64,34.9,32.14,33.93,32.14z M20.45,29.59l13.48,0c0.02,0,0.07,0,0.11-0.06c0.04-0.06,0.01-0.11,0-0.13L20.57,6.06
					C20.55,6.04,20.53,6,20.45,6l0,0c-0.07,0-0.1,0.04-0.11,0.06L6.87,29.4c-0.01,0.02-0.04,0.06,0,0.13
					c0.04,0.06,0.09,0.06,0.11,0.06L20.45,29.59z"/>
			</g>
		</g>
		<g>
			<g>
				<g>
					<path class="st0" d="M13.83,28.84c-0.43-0.2-0.77-0.49-1.02-0.87c-0.25-0.38-0.39-0.84-0.42-1.37h1.77
						c0.03,0.19,0.08,0.35,0.17,0.48c0.09,0.13,0.19,0.23,0.33,0.3c0.13,0.07,0.29,0.1,0.46,0.1c0.32,0,0.57-0.09,0.75-0.27
						c0.18-0.18,0.27-0.44,0.27-0.76v-0.21c0-0.34-0.07-0.61-0.22-0.8c-0.14-0.19-0.35-0.28-0.61-0.28h-0.77v-1.65h0.77
						c0.22,0,0.38-0.08,0.5-0.25c0.12-0.16,0.18-0.39,0.18-0.69v-0.16c0-0.28-0.07-0.49-0.2-0.65c-0.13-0.15-0.32-0.23-0.55-0.23
						c-0.15,0-0.29,0.04-0.42,0.12c-0.13,0.08-0.23,0.19-0.32,0.34c-0.09,0.15-0.15,0.33-0.19,0.54h-1.76
						c0.05-0.55,0.2-1.03,0.45-1.43c0.25-0.4,0.57-0.71,0.97-0.92c0.4-0.21,0.84-0.31,1.34-0.31c0.8,0,1.42,0.2,1.86,0.61
						c0.44,0.41,0.66,0.99,0.66,1.74v0.27c0,0.42-0.11,0.79-0.32,1.1c-0.21,0.31-0.51,0.54-0.9,0.7c0.44,0.1,0.77,0.33,1.01,0.69
						c0.24,0.36,0.36,0.81,0.36,1.37v0.27c0,0.53-0.1,0.98-0.31,1.35c-0.21,0.37-0.51,0.66-0.91,0.85c-0.4,0.2-0.88,0.29-1.44,0.29
						C14.75,29.14,14.26,29.04,13.83,28.84z"/>
				</g>
			</g>
			<g>
				<g>
					<path class="st0" d="M19.48,28.46c-0.46-0.46-0.69-1.09-0.69-1.89v-4.12c0-0.82,0.23-1.45,0.7-1.9
						c0.46-0.45,1.14-0.68,2.02-0.68c0.89,0,1.56,0.22,2.02,0.67c0.46,0.45,0.69,1.08,0.69,1.9v4.12c0,0.82-0.23,1.45-0.7,1.9
						c-0.46,0.45-1.14,0.68-2.02,0.68C20.61,29.14,19.94,28.91,19.48,28.46z M22.26,27.14c0.16-0.24,0.24-0.57,0.24-1.01v-3.25
						c0-0.44-0.08-0.78-0.24-1.01c-0.16-0.23-0.42-0.35-0.76-0.35c-0.35,0-0.6,0.12-0.76,0.35c-0.16,0.24-0.24,0.57-0.24,1.01v3.25
						c0,0.44,0.08,0.78,0.24,1.01c0.16,0.23,0.42,0.35,0.76,0.35C21.84,27.49,22.1,27.38,22.26,27.14z"/>
				</g>
			</g>
			<g>
				<g>
					<path class="st0" d="M28.03,29.05h-1.71v-7.06l-1.1,0.42v-1.82l1.35-0.61h1.46V29.05z"/>
				</g>
			</g>
		</g>
	</g>
</g>
</svg>
