<?xml version="1.0" encoding="utf-8"?>
<!-- Generator: Adobe Illustrator 24.2.0, SVG Export Plug-In . SVG Version: 6.00 Build 0)  -->
<svg version="1.1" id="Layer_1" xmlns="http://www.w3.org/2000/svg" xmlns:xlink="http://www.w3.org/1999/xlink" x="0px" y="0px"
	 viewBox="0 0 30.88 23.26" style="enable-background:new 0 0 30.88 23.26;" xml:space="preserve">
<style type="text/css">
	.st0{fill:#1A2523;}
	.st1{fill:#DEE0DE;}
</style>
<path class="st0" d="M11.58,18.29c-0.16-0.05-0.12-0.11-0.22-0.21c-0.11-0.1-0.24-0.21-0.38-0.26c-0.26-0.18-0.44-0.47-0.66-0.71
	c-0.04-0.15-0.22-0.23-0.21-0.4c-0.02-0.01-0.02-0.02-0.02-0.04c0.07-0.06,0.29-0.06,0.23-0.18c-0.14-0.29-0.29-0.57-0.35-0.89
	c-0.1-0.41-0.26-0.78-0.52-1.11c-0.19-0.28-0.2-0.63-0.31-0.94c0.12-0.02,0.13-0.16,0.16-0.26c0.01-0.12-0.1-0.22-0.14-0.32
	c-0.03-0.06,0.04-0.12-0.01-0.17c-0.02-0.04-0.04-0.08-0.04-0.12c0-0.03-0.02-0.07-0.05-0.07c-0.04-0.03-0.05-0.08-0.08-0.12
	C8.93,12.4,8.87,12.4,8.96,12.3c0.01-0.11-0.1-0.26-0.2-0.32c-0.12-0.01-0.1-0.19,0.02-0.17c0.23,0.12,0.3,0.46,0.46,0.66
	c0.12,0.16,0.18,0.41,0.35,0.52c0.56-0.07,0.23-0.4,0.07-0.7c0,0,0,0.01-0.01,0.01c-0.14-0.22-0.24-0.43-0.36-0.64
	c-0.08-0.11-0.1-0.37-0.29-0.27c-0.08,0.02,0-0.06-0.03-0.09C8.95,11.27,9,11.26,9.01,11.24c-0.01,0-0.01,0-0.02,0
	c0.07-0.15,0.22-0.13,0.07-0.32c-0.04-0.07-0.2,0.03-0.11-0.13c-0.01-0.15-0.16,0.08-0.21-0.06c-0.03-0.03-0.02-0.07,0.01-0.09
	c0.13-0.06,0.1-0.26,0.18-0.36c0.13-0.23-0.09-0.22-0.09-0.35C8.86,9.8,8.97,9.66,8.95,9.54C8.89,9.43,8.72,9.37,8.69,9.26
	C8.8,8.93,9.12,8.74,8.77,8.41C8.76,8.32,8.74,8.25,8.64,8.23C8.59,8.2,8.48,8.15,8.49,8.08c0.06-0.14,0.12-0.29,0.16-0.44
	c-0.22-0.02-0.3-0.11-0.07-0.23c0.06-0.04,0.12-0.1,0.19-0.13c0.03,0.02,0.06,0,0.07-0.02c0.07-0.12,0.06-0.14,0.2-0.05
	c-0.02-0.06,0.01-0.07,0.05-0.1C9.1,7.14,9.11,7.17,9.11,7.2c0.01,0,0.01,0,0.02,0c0.01-0.16-0.08-0.32-0.05-0.48
	c0.02,0,0.03,0.03,0.06,0.03C9.08,6.62,8.98,6.43,9.05,6.29c0,0.01,0.01,0.02,0.01,0.03C9.08,6.3,9.07,6.27,9.08,6.26
	c0.03,0.02,0.03,0.05,0.05,0.08C9.14,6.3,9.08,6.2,9.15,6.2c0-0.03,0.01-0.05,0.03-0.07c0.03,0.02,0.04,0.05,0.06,0.08
	C9.26,6.13,9.2,6.09,9.19,6.03c0.05-0.09-0.02-0.19,0-0.29c0.06-0.1-0.07-0.1-0.08-0.17c0-0.02-0.02-0.03-0.03-0.04l0.01-0.01
	c-0.04-0.01,0.05-0.04,0-0.04c0-0.01,0.01-0.01,0.01-0.02c-0.01,0-0.01,0-0.01,0c0.02-0.17,0.04-0.33,0.1-0.48
	c-0.03-0.1-0.27,0.08-0.34,0.1C8.72,5.12,8.62,5.27,8.49,5.17C8.23,5.05,7.95,5.09,7.68,5.05C7.58,4.97,7.32,4.71,7.24,4.7l0,0
	C6.82,4.44,7.12,5.35,7,5.38C6.84,5.37,6.62,5.39,6.68,5.61c-0.04,0.04-0.01,0.1-0.05,0.14C6.61,5.8,6.64,5.85,6.65,5.89
	c-0.06,0.18-0.26,0.3-0.32,0.48C6.37,6.33,6.38,6.36,6.4,6.39c0,0.01-0.02,0.02-0.01,0.04c0.2-0.04,0.05,0.14,0.05,0.24
	c0.02-0.01,0.03-0.03,0.05-0.04c0.05,0.06,0,0.11-0.01,0.17c0.09,0.04-0.04,0.07,0.15,0.1c0,0,0-0.01,0.01-0.02
	C6.72,6.96,6.87,6.97,6.8,7.13c0,0,0,0,0.01,0c0.02-0.02,0.02-0.04,0.05-0.05c-0.01,0.05-0.01,0.11,0,0.16
	c0.02-0.03,0.03-0.06,0.05-0.07c0,0.04,0.01,0.07,0.03,0.1c0.04-0.03,0.08-0.04,0.13-0.03C7.05,7.31,7.1,7.34,7.16,7.35
	C7.13,7.4,7.14,7.43,7.14,7.46c-0.08,0-0.21-0.04-0.25,0.05C6.77,7.56,6.6,7.57,6.46,7.61C6.36,7.62,6.25,7.6,6.18,7.69
	C6.03,7.77,5.91,7.89,5.8,8.02c-0.31-0.26-0.07-0.3,0.09-0.54c-0.01-0.24-0.42,0.1-0.5,0.17c-0.03,0.04,0,0.12,0.05,0.1
	c0.03-0.01,0.04,0.02,0.04,0.04C5.4,7.93,5.65,8.04,5.64,8.15C5.53,8.27,5.46,8.42,5.38,8.56C5.35,8.61,5.41,8.65,5.35,8.7
	C5.33,8.74,5.26,8.73,5.24,8.77c-0.02,0.06-0.21,0.22-0.1,0.24C5.06,9.14,4.98,9.27,4.89,9.39C4.81,9.49,4.58,9.6,4.7,9.74
	c0.07,0.12,0.05,0.46,0.17,0.5c0.09-0.02,0.04,0.16,0.11,0.15c0.11,0,0.03,0.1,0.1,0.11c0.47,0.09,0.24-0.16,0.65-0.1
	c-0.03,0.08-0.08,0.14-0.12,0.22c-0.03,0.04-0.11-0.02-0.16,0.02c-0.16,0.08-0.62,0.44-0.61,0.6c-0.07,0.15-0.04,0.31-0.01,0.46
	c-0.03,0.16-0.16,0.35-0.13,0.5c0.59,0.82,0.92-0.15,0.93,0.09c-0.04,0.11,0.01,0.23-0.02,0.34c-0.01,0.05-0.07,0.06-0.08,0.1
	c-0.03,0.1-0.09,0.25,0.01,0.33c0.02,0.05,0.1,0.02,0.1,0.06c-0.02,0.13-0.04,0.25-0.03,0.38c-0.07,0.4,0.14,0.8-0.02,1.19
	c-0.18,0.68-0.39,1.34-0.45,2.04c0.03,0.46,0.08,0.98,0.27,1.38c-0.06,0.32-0.06,0.66,0.03,0.98c0.01,0.06,0.07-0.01,0.08,0.06
	c-0.01,0.12,0.09,0.22,0.21,0.2c0.01-0.05,0.04-0.01,0.06,0.01c0.09,0.06,0.2,0.04,0.3,0.06c0.04,0.02,0.11-0.12,0.12-0.02
	c0,0.02,0.01,0.04,0.03,0.04c0.28-0.23,0.21-0.65,0.13-0.97c-0.04-0.25,0.02-0.5-0.05-0.75c0.06-0.09,0.3,0,0.35-0.1
	c-0.02-0.13-0.04-0.27-0.05-0.41c0.03-0.55,0.09-1.33,0.09-1.41c0.07-0.4,0.23-0.8,0.31-1.2c0.02-0.06,0.04-0.12,0.04-0.18
	c-0.01-0.27,0.09-0.54,0.18-0.8c0.19,0.08,0.41,0.32,0.42,0.32c0.29,0.43,0.42,0.97,0.64,1.44c0.21,0.56,0.43,1.12,0.7,1.65
	c0.06,0.11,0.07,0.26,0.23,0.15c0.17,0.37,0.07,0.77,0.15,1.15c0.02,0.07,0.08,0.01,0.12,0c0.07-0.01,0.03,0.14,0.22,0.1
	c0.06-0.01,0.12-0.05,0.18-0.09c0.03,0.04,0.06,0.08,0.09,0.11c-0.01,0.05-0.01,0.1,0.07,0.13c0.16,0.13,0.15,0.02,0.27,0.09
	c0.09,0.09,0.23,0.08,0.35,0.11c0.02-0.01,0.03-0.05,0.06-0.04c0.06,0.02,0.13-0.01,0.18,0.03c0.14,0.07,0.45-0.13,0.58-0.17
	C11.57,18.54,11.62,18.36,11.58,18.29z M6.93,5.59C6.89,5.63,6.81,5.78,6.75,5.71C6.73,5.65,6.73,5.6,6.78,5.55
	C6.82,5.51,6.95,5.51,6.93,5.59z"/>
<g>
	<g>
		<g>
			<rect x="12.77" y="8.84" class="st0" width="13.6" height="5.58"/>
		</g>
	</g>
	<g>
		<path class="st1" d="M20.32,11.95c0.02-0.07,0.05-0.13,0.08-0.18c0.03-0.05,0.08-0.1,0.13-0.17c0.04-0.05,0.08-0.09,0.1-0.13
			c0.02-0.03,0.04-0.07,0.06-0.12c0.02-0.04,0.02-0.09,0.02-0.14v0c0-0.07-0.02-0.12-0.05-0.16c-0.03-0.04-0.08-0.06-0.14-0.06
			c-0.06,0-0.11,0.02-0.14,0.06c-0.03,0.04-0.05,0.1-0.05,0.18v0h-0.43v0c0-0.13,0.03-0.25,0.08-0.34c0.05-0.09,0.12-0.17,0.21-0.22
			c0.09-0.05,0.2-0.07,0.33-0.07c0.13,0,0.24,0.02,0.34,0.07c0.09,0.04,0.17,0.11,0.21,0.19c0.05,0.08,0.07,0.19,0.07,0.31v0
			c0,0.08-0.01,0.15-0.03,0.21c-0.02,0.06-0.05,0.12-0.08,0.16c-0.03,0.05-0.07,0.1-0.13,0.16c-0.05,0.06-0.09,0.11-0.12,0.15
			s-0.05,0.09-0.07,0.14c-0.02,0.05-0.03,0.11-0.03,0.18h-0.42C20.29,12.1,20.3,12.02,20.32,11.95z M20.29,12.42h0.42v0.42h-0.42
			V12.42z"/>
		<path class="st1" d="M21.66,11.95c0.02-0.07,0.05-0.13,0.08-0.18c0.03-0.05,0.08-0.1,0.13-0.17c0.04-0.05,0.08-0.09,0.1-0.13
			c0.02-0.03,0.04-0.07,0.06-0.12c0.02-0.04,0.02-0.09,0.02-0.14v0c0-0.07-0.02-0.12-0.05-0.16c-0.03-0.04-0.08-0.06-0.14-0.06
			c-0.06,0-0.11,0.02-0.14,0.06c-0.03,0.04-0.05,0.1-0.05,0.18v0h-0.43v0c0-0.13,0.03-0.25,0.08-0.34c0.05-0.09,0.12-0.17,0.21-0.22
			c0.09-0.05,0.2-0.07,0.33-0.07c0.13,0,0.24,0.02,0.34,0.07c0.09,0.04,0.17,0.11,0.21,0.19c0.05,0.08,0.07,0.19,0.07,0.31v0
			c0,0.08-0.01,0.15-0.03,0.21c-0.02,0.06-0.05,0.12-0.08,0.16c-0.03,0.05-0.07,0.1-0.13,0.16c-0.05,0.06-0.09,0.11-0.12,0.15
			s-0.05,0.09-0.07,0.14c-0.02,0.05-0.03,0.11-0.03,0.18h-0.42C21.63,12.1,21.64,12.02,21.66,11.95z M21.63,12.42h0.42v0.42h-0.42
			V12.42z"/>
		<path class="st1" d="M23,11.95c0.02-0.07,0.05-0.13,0.08-0.18c0.03-0.05,0.08-0.1,0.13-0.17c0.04-0.05,0.08-0.09,0.1-0.13
			c0.02-0.03,0.04-0.07,0.06-0.12c0.02-0.04,0.02-0.09,0.02-0.14v0c0-0.07-0.02-0.12-0.05-0.16c-0.03-0.04-0.08-0.06-0.14-0.06
			c-0.06,0-0.11,0.02-0.14,0.06c-0.03,0.04-0.05,0.1-0.05,0.18v0h-0.43v0c0-0.13,0.03-0.25,0.08-0.34c0.05-0.09,0.12-0.17,0.21-0.22
			c0.09-0.05,0.2-0.07,0.33-0.07c0.13,0,0.24,0.02,0.34,0.07c0.09,0.04,0.17,0.11,0.21,0.19c0.05,0.08,0.07,0.19,0.07,0.31v0
			c0,0.08-0.01,0.15-0.03,0.21c-0.02,0.06-0.05,0.12-0.08,0.16c-0.03,0.05-0.07,0.1-0.13,0.16c-0.05,0.06-0.09,0.11-0.12,0.15
			s-0.05,0.09-0.07,0.14c-0.02,0.05-0.03,0.11-0.03,0.18h-0.42C22.97,12.1,22.98,12.02,23,11.95z M22.97,12.42h0.42v0.42h-0.42
			V12.42z"/>
	</g>
	<g>
		<g>
			<path class="st1" d="M16.94,9.7c0.35,0.07,0.67,0.21,0.96,0.42c0.25,0.19,0.42,0.4,0.38,0.74c-0.03,0.24,0,0.48-0.01,0.72
				c0,0.09-0.01,0.18-0.04,0.27c-0.08,0.22-0.1,0.44,0.01,0.66c0.07,0.14,0.02,0.25-0.15,0.31c-0.28,0.09-0.5,0.24-0.59,0.53
				c-0.02,0.06-0.09,0.14-0.14,0.14c-0.24,0.03-0.49,0.04-0.73,0.05c-0.03,0-0.07-0.03-0.08-0.06c-0.1-0.2-0.26-0.18-0.41-0.11
				c-0.1,0.04-0.15,0.03-0.17-0.07c-0.08-0.28-0.29-0.4-0.54-0.49c-0.22-0.08-0.26-0.13-0.16-0.34c0.1-0.21,0.06-0.39,0.01-0.59
				c-0.03-0.15-0.04-0.3-0.05-0.45c-0.01-0.16,0-0.31,0-0.47c0-0.14,0.06-0.23,0.2-0.28c0.25-0.09,0.43-0.26,0.54-0.52
				c0.1-0.25,0.33-0.4,0.6-0.46C16.7,9.7,16.82,9.7,16.94,9.7z M16.02,12.6c0.11-0.06,0.31-0.16,0.5-0.27
				c0.03-0.02,0.05-0.11,0.04-0.16c-0.03-0.25-0.22-0.4-0.57-0.46c-0.19-0.03-0.3,0.04-0.43,0.27
				C15.39,12.27,15.57,12.59,16.02,12.6z M17.49,12.59c0.42,0.01,0.61-0.26,0.49-0.55c-0.07-0.17-0.16-0.35-0.37-0.34
				c-0.24,0.01-0.49,0.06-0.61,0.31c-0.04,0.09-0.04,0.27,0.01,0.31C17.18,12.45,17.38,12.53,17.49,12.59z M17.01,13.13
				c-0.1-0.17-0.16-0.39-0.24-0.4c-0.18-0.02-0.14,0.19-0.17,0.31c-0.03,0.11,0.03,0.2,0.15,0.19
				C16.81,13.23,16.88,13.18,17.01,13.13z"/>
		</g>
	</g>
</g>
</svg>
